<svg width="24" height="24" viewBox="0 0 24 24" fill="none" xmlns="http://www.w3.org/2000/svg">
<g clip-path="url(#clip0_451_2930)">
<path d="M24 11.9987C24 15.402 22.5835 18.4746 20.3051 20.6592C20.0473 20.9066 19.7765 21.1435 19.4979 21.3675C17.4434 23.0131 14.8369 24 11.9987 24C9.15786 24 6.54877 23.0131 4.4917 21.3623C4.21569 21.1409 3.94749 20.9066 3.69231 20.6618C1.41651 18.4772 0 15.4046 0 11.9987C0 5.37181 5.37181 0 11.9987 0C18.6256 0 24 5.37181 24 11.9987Z" fill="white"/>
<path d="M19.4979 21.3673C17.4434 23.013 14.8369 23.9999 11.9987 23.9999C9.15786 23.9999 6.54877 23.013 4.4917 21.3621C4.562 20.9767 4.67397 20.6044 4.83281 20.2477C4.95259 19.9769 5.10361 19.7217 5.27547 19.4769C5.43431 19.2478 5.61137 19.0342 5.80926 18.8416C6.09048 18.5682 6.39774 18.326 6.74145 18.1307C6.81957 18.0864 6.89769 18.0396 6.9758 17.9953C6.96799 17.9562 6.93414 17.9562 6.91331 17.9484C6.55398 17.8104 6.22589 17.6177 5.91602 17.3912C5.73115 17.2558 5.5645 17.097 5.39264 16.9459C5.25464 16.8262 5.16871 16.6725 5.14527 16.4903C5.12444 16.3366 5.16871 16.196 5.24943 16.0684C5.2963 15.9929 5.35619 15.9226 5.41347 15.8497C5.62699 15.5841 5.81447 15.3029 5.98372 15.006C6.08788 14.8238 6.17902 14.6337 6.26494 14.441C6.3691 14.204 6.45763 13.9619 6.53314 13.7145C6.6373 13.376 6.72583 13.0349 6.77791 12.686C6.80134 12.5297 6.83259 12.3761 6.85603 12.2199C6.87425 12.0975 6.87165 11.9725 6.89508 11.8501C6.93414 11.6574 6.9029 11.4595 6.94195 11.2643C6.95237 11.2174 6.94716 11.1679 6.94716 11.121C6.94716 10.3737 6.94977 9.62642 6.94977 8.8817C6.94977 8.63694 6.9706 8.39478 7.00184 8.15522C7.06954 7.63444 7.22578 7.13971 7.45492 6.6684C7.63979 6.29344 7.86112 5.94452 8.13193 5.62425C8.36888 5.34303 8.63188 5.08524 8.92351 4.8561C9.1865 4.64779 9.47033 4.46812 9.76977 4.3171C10.1551 4.1218 10.5587 3.97599 10.9832 3.89006C11.129 3.86142 11.2748 3.84319 11.4206 3.81455C11.4623 3.80673 11.5066 3.80934 11.5482 3.80934C11.8451 3.80934 12.1445 3.80934 12.4414 3.80934C12.5611 3.80153 12.6783 3.83277 12.7955 3.8484C13.0376 3.88485 13.2746 3.94474 13.5037 4.02025C13.8214 4.12441 14.1287 4.2546 14.4203 4.42125C14.6286 4.54103 14.8291 4.66862 15.0192 4.81444C15.2588 4.99671 15.4879 5.1946 15.691 5.41854C16.0842 5.85078 16.4019 6.3299 16.6362 6.8663C16.7898 7.21782 16.9018 7.58237 16.9721 7.95993C17.0164 8.19949 17.0424 8.44165 17.0398 8.68641C17.0372 9.25927 17.0372 9.83473 17.0398 10.4102C17.0424 10.7591 17.0528 11.108 17.0685 11.4569C17.0789 11.6705 17.0997 11.884 17.1257 12.0975C17.1622 12.3917 17.2091 12.6834 17.269 12.9724C17.3341 13.2849 17.4174 13.5947 17.5215 13.8968C17.6439 14.2561 17.7923 14.6024 17.972 14.9357C18.1595 15.2794 18.3782 15.6049 18.6256 15.9096C18.6672 15.9617 18.7115 16.0137 18.748 16.0684C18.8964 16.2976 18.8938 16.6413 18.6777 16.8652C18.4798 17.0735 18.2636 17.2636 18.0293 17.4303C17.8002 17.5943 17.5554 17.7375 17.3002 17.8599C17.2481 17.8833 17.1934 17.9042 17.1414 17.9276C17.0997 17.9458 17.058 17.9693 17.0164 17.9875C17.032 18.0318 17.0685 18.0396 17.0971 18.0526C17.3861 18.2062 17.6517 18.3885 17.9017 18.5968C18.071 18.74 18.2298 18.891 18.3756 19.0551C18.5761 19.2738 18.748 19.516 18.9016 19.7685C19.0787 20.055 19.2115 20.3622 19.3208 20.6773C19.4015 20.9012 19.4614 21.1304 19.4979 21.3673Z" fill="#9E9E9E"/>
</g>
<defs>
<clipPath id="clip0_451_2930">
<rect width="24" height="24" fill="white"/>
</clipPath>
</defs>
</svg>
