<svg width="24" height="24" viewBox="0 0 24 24" fill="none" xmlns="http://www.w3.org/2000/svg">
<path d="M10 20.5C10 19.6716 10.6716 19 11.5 19C12.3284 19 13 19.6716 13 20.5C13 21.3284 12.3284 22 11.5 22C10.6716 22 10 21.3284 10 20.5ZM12 2C17.35 2.22 19.68 7.62 16.5 11.67C15.67 12.67 14.33 13.33 13.67 14.17C13.3389 14.5802 13.1714 15.0319 13.0867 15.5046C12.9406 16.32 12.3284 17 11.5 17C10.6716 17 9.98401 16.3278 10.0211 15.5002C10.0668 14.4802 10.2116 13.6042 10.67 12.92C11.33 11.92 12.67 11.33 13.5 10.67C15.92 8.43 15.32 5.26 12 5C11.2044 5 10.4413 5.31607 9.87868 5.87868C9.31607 6.44129 9 7.20435 9 8H6C6 6.4087 6.63214 4.88258 7.75736 3.75736C8.88258 2.63214 10.4087 2 12 2Z" fill="black"/>
</svg>
