<svg width="24" height="24" viewBox="0 0 24 24" fill="none" xmlns="http://www.w3.org/2000/svg">
<g clip-path="url(#clip0_58_3053)">
<path d="M21.9824 12.6223C21.8974 12.6228 21.8132 12.607 21.7345 12.5759C21.6558 12.5448 21.5842 12.4989 21.5239 12.441L12.2949 3.50093L3.06592 12.441C2.94237 12.5434 2.78345 12.5969 2.62091 12.5909C2.45837 12.5848 2.30418 12.5196 2.18916 12.4082C2.07414 12.2969 2.00676 12.1476 2.00048 11.9903C1.9942 11.8329 2.04949 11.6791 2.1553 11.5595L11.8428 2.1818C11.9638 2.06536 12.1275 2 12.2981 2C12.4687 2 12.6324 2.06536 12.7534 2.1818L22.441 11.5595C22.5298 11.6473 22.59 11.7584 22.614 11.8791C22.6379 11.9998 22.6246 12.1247 22.5757 12.2381C22.5268 12.3515 22.4444 12.4484 22.3389 12.5167C22.2334 12.5851 22.1094 12.6218 21.9824 12.6223Z" fill="black"/>
<path d="M12.2949 5.61401L4.54486 13.1412V20.7496C4.54486 21.0812 4.68095 21.3993 4.92318 21.6337C5.16542 21.8682 5.49396 22 5.83653 22H10.3574V15.7482H14.2324V22H18.7532C19.0958 22 19.4243 21.8682 19.6666 21.6337C19.9088 21.3993 20.0449 21.0812 20.0449 20.7496V13.0974L12.2949 5.61401Z" fill="black"/>
</g>
<defs>
<clipPath id="clip0_58_3053">
<rect width="24" height="24" fill="white"/>
</clipPath>
</defs>
</svg>
