<svg width="24" height="24" viewBox="0 0 24 24" fill="none" xmlns="http://www.w3.org/2000/svg">
<path d="M12.5263 18.3158C12.5263 16.2105 13.6842 14.3158 15.3684 13.3684C14 12.8421 12.3158 12.5263 10.4211 12.5263C5.78947 12.5263 2 14.4211 2 16.7368V18.8421H12.5263V18.3158ZM18.3158 14.6316C16.3158 14.6316 14.6316 16.3158 14.6316 18.3158C14.6316 20.3158 16.3158 22 18.3158 22C20.3158 22 22 20.3158 22 18.3158C22 16.3158 20.3158 14.6316 18.3158 14.6316ZM14.6316 6.21053C14.6316 8.52632 12.7368 10.4211 10.4211 10.4211C8.10526 10.4211 6.21053 8.52632 6.21053 6.21053C6.21053 3.89474 8.10526 2 10.4211 2C12.7368 2 14.6316 3.89474 14.6316 6.21053Z" fill="black"/>
</svg>
