<svg width="24" height="24" viewBox="0 0 24 24" fill="none" xmlns="http://www.w3.org/2000/svg">
<path d="M15.0677 13.4232L16.0722 12.8489L16.1592 14.0721L15.1523 14.6464L15.0677 13.4232Z" fill="#75DCFF"/>
<path d="M18.8891 13.6594C19.2049 13.4804 19.4386 13.1149 19.5107 12.6003L20.172 8.02567C20.3212 6.99887 19.7817 5.77318 18.9687 5.29086L13.775 2.19555C13.3723 1.95688 12.9794 1.94445 12.6662 2.116L11.4529 2.80218L10.7468 7.69252L11.4405 7.2997L11.3758 7.75467C11.2267 8.78147 11.7662 10.0072 12.5792 10.4895L17.7728 13.5848C17.7778 13.5873 17.7828 13.5898 17.7877 13.5947L17.6783 14.3456L18.8891 13.6594Z" fill="#75DCFF"/>
<path d="M18.5235 7.82682L17.6981 13.5451L17.7677 13.5873C17.7727 13.5898 17.7777 13.5923 17.7826 13.5973L17.6732 14.3481L18.8865 13.6594C19.1575 13.5053 19.3663 13.2144 19.4658 12.8091L20.1868 7.80693C20.2017 7.52102 20.1669 7.22268 20.0923 6.93677L18.5235 7.82682Z" fill="#75DCFF"/>
<path d="M18.9561 8.71178C19.1052 7.68499 18.5657 6.45929 17.7552 5.97697L12.5616 2.88167C11.7486 2.39935 10.9679 2.8394 10.8212 3.8662L10.1599 8.44079C10.0107 9.46758 10.5527 10.6933 11.3632 11.1756L13.8047 12.6673L15.1596 14.6587L15.0652 13.4181L16.5544 14.2709C17.3674 14.7532 18.1456 14.3107 18.2922 13.2839L18.9561 8.71178Z" fill="#0163E0"/>
<path d="M10.5901 5.46729L10.1599 8.44325C10.0133 9.47005 10.5552 10.6957 11.3633 11.1781L13.5287 12.5007L13.9588 9.50734C14.108 8.47309 13.566 7.23994 12.7481 6.75513L10.5901 5.46729Z" fill="#2563EB"/>
<path d="M15.9131 8.95313C15.8286 8.85368 15.7416 8.76169 15.6421 8.66971C15.6695 8.60506 15.6794 8.56529 15.6794 8.56529L15.744 8.36142L15.3388 7.99843L15.2791 8.2023C15.2791 8.2023 15.2642 8.25203 15.2294 8.33407C14.9659 8.14512 14.6849 7.99346 14.4189 7.88904C14.4264 7.72993 14.4313 7.57578 14.4388 7.4291C15.0081 7.72495 15.657 8.03573 16.1443 8.19982L16.3507 8.26943L16.2811 7.74236L16.0747 7.67274C15.6172 7.5186 15.0056 7.22772 14.4612 6.94429C14.4811 6.57882 14.5009 6.34015 14.5009 6.34015L14.5183 6.10147L14.0982 5.83545L14.0808 6.07412C14.0808 6.07412 14.0609 6.3302 14.041 6.72053C13.5313 6.44705 13.1559 6.22827 13.1559 6.22827L12.9446 6.10396L12.9247 6.59125L13.136 6.71556C13.136 6.71556 13.5065 6.93186 14.0186 7.20534C14.0087 7.37937 14.0012 7.56832 13.9987 7.76722C13.0515 7.61059 12.8103 8.52302 13.0043 9.22413C13.1161 9.61446 13.3449 9.95507 13.6681 10.1167C14.2026 10.3852 14.6501 10.1937 14.9808 9.83821C15.202 9.60451 15.3736 9.3012 15.488 9.05009C15.57 9.12468 15.6421 9.20175 15.7092 9.28131C15.9131 9.52495 16.0548 9.79844 16.0424 10.0794C16.025 10.4498 15.8311 10.5816 15.6073 10.6164C15.2319 10.6736 14.7744 10.4622 14.7744 10.4622L14.5656 10.3653L14.5929 10.875L14.8018 10.9719C14.8018 10.9719 15.3612 11.228 15.8211 11.1584C16.1543 11.1062 16.4377 10.8899 16.465 10.3305C16.4849 9.84816 16.2637 9.37081 15.9131 8.95313ZM13.6532 9.61197C13.4717 9.52247 13.3772 9.27882 13.3623 9.05258C13.3374 8.66225 13.5264 8.2918 13.9838 8.29678C13.9788 8.79153 13.9838 9.28877 14.0161 9.70147C13.9018 9.70147 13.7849 9.67661 13.6532 9.61197ZM14.6402 9.36087C14.5706 9.43545 14.496 9.50009 14.4139 9.55728C14.399 9.19181 14.399 8.78407 14.4065 8.38628C14.6203 8.46335 14.8465 8.57523 15.0653 8.71943C14.9634 8.93076 14.8192 9.16943 14.6402 9.36087Z" fill="#E9E9FC"/>
<path d="M11.7511 15.5464C12.0669 15.3674 12.3006 14.997 12.3751 14.4798L13.0439 9.84558C13.1931 8.81133 12.6511 7.57817 11.8332 7.09337L6.66437 4.01795C6.26161 3.77679 5.8663 3.76436 5.54807 3.93839L4.32984 4.62955L3.61382 9.57956L4.30995 9.18425L4.24282 9.64171C4.09365 10.676 4.63564 11.9091 5.4536 12.3939L8.7478 14.3506L8.17846 15.1834L10.0182 15.1064L10.6249 15.4743C10.6298 15.4768 10.6348 15.4793 10.6398 15.4843L10.5304 16.2401L11.7511 15.5464Z" fill="#18ACFE"/>
<path d="M11.3856 9.64678L10.5503 15.4297L10.6224 15.4719C10.6273 15.4744 10.6323 15.4769 10.6373 15.4819L10.5279 16.2377L11.7486 15.5465C12.0221 15.3924 12.2309 15.0965 12.3329 14.6888L13.0638 9.62441C13.0787 9.33601 13.0439 9.03767 12.9693 8.74927L11.3856 9.64678Z" fill="#18ACFE"/>
<path d="M11.8208 10.5391C11.9699 9.50487 11.4279 8.27171 10.61 7.78691L5.44616 4.709C4.62821 4.2242 3.84257 4.66674 3.6934 5.70099L3.02461 10.3328C2.87544 11.367 3.41992 12.6002 4.23539 13.0875L4.63815 13.3261L4.06881 14.1565L5.90611 14.0795L9.40418 16.1654C10.2221 16.6502 11.0053 16.2051 11.1545 15.1734L11.8208 10.5391Z" fill="#2CCCFF"/>
<path d="M7.40982 8.29486L5.73487 12.4131L5.08591 12.0521L7.00981 7.58138L7.42818 7.81414L7.40982 8.29486ZM8.65354 14.037L7.14958 8.15008L7.14817 7.65836L7.56653 7.89112L9.30579 14.3998L8.65354 14.037ZM8.60658 11.9596L8.5962 12.5551L5.90154 11.0559L5.91191 10.4604L8.60658 11.9596Z" fill="#E9E9FC"/>
<path d="M14.5778 21.6623C15.2864 21.2521 15.3635 20.6331 14.7494 20.2775L7.42755 16.051C6.81346 15.6955 5.73942 15.7402 5.02837 16.1505C4.31981 16.5607 4.24274 17.1797 4.85683 17.5353L12.1787 21.7618C12.7927 22.1148 13.8668 22.0701 14.5778 21.6623Z" fill="#EFF1FC"/>
</svg>
