<svg width="146" height="209" viewBox="0 0 146 209" fill="none" xmlns="http://www.w3.org/2000/svg">
<path d="M85.826 23.1154C77.1705 14.6537 67.8301 6.92224 57.9005 0C65.4426 26.2392 45.5659 54.0738 31.1283 74.1648C5.929 109.234 -3.48288 129.621 1.13033 155.047C5.18411 177.433 22.3114 190.922 25.7976 193.669C50.2875 212.962 79.1444 208.137 86.8192 206.854C94.8619 205.509 114.892 202.159 129.507 185.347C131.479 183.079 140.046 172.866 143.753 154.521C155.861 94.6237 98.5174 35.5225 85.826 23.1154Z" fill="#E30613"/>
<path d="M101.248 128.375C107.753 127.317 111.614 117.784 109.874 107.083C108.134 96.3815 101.449 88.5639 94.9441 89.622C88.4388 90.6802 84.5776 100.214 86.3177 110.915C88.0578 121.616 94.7425 129.434 101.248 128.375Z" fill="#E7364B"/>
<path d="M94.8478 84.3159C97.8172 83.8325 99.5806 79.4802 98.7861 74.5938C97.9915 69.7074 94.935 66.1386 91.9696 66.6211C89.0043 67.1035 87.2358 71.4578 88.0304 76.3442C88.8249 81.2306 91.8774 84.8004 94.8478 84.3159Z" fill="#E7364B"/>
<path d="M136.429 108.599C130.449 89.4579 119.55 72.2039 107.321 56.3112C94.6255 39.8177 80.4048 24.5572 64.847 10.7321C67.636 28.6327 60.6118 47.6259 51.5587 62.8294C42.4732 78.0857 30.6037 91.558 21.7543 106.952C17.2181 114.843 13.4977 123.527 11.5844 132.424C14.5233 127.383 18.8416 123.201 24.2595 121.973C36.7958 119.145 49.0707 128.384 55.9479 138.751C62.3134 148.344 64.8176 159.954 71.8297 169.169C78.4992 177.934 88.1755 183.562 99.3072 183.85C114.104 184.232 130.643 173.273 136.51 159.872C137.833 156.848 139.066 153.755 140.158 150.642C142.317 136.634 140.634 122.054 136.429 108.599ZM68.9951 130.172C54.9771 119.073 48.3836 99.398 52.8813 82.0933C55.502 72.0266 61.3891 63.173 65.6679 53.6911C69.9467 44.2092 72.5715 33.0599 68.4042 23.5324L76.1064 28.8658C102.278 48.7581 135.652 94.7822 113.739 128.157C103.912 143.118 81.3804 139.977 68.9951 130.172Z" fill="#B90E0C"/>
<path d="M106.883 149.286C101.463 158.676 101.696 168.96 107.402 172.255C113.109 175.55 122.131 170.611 127.552 161.221C132.973 151.831 132.74 141.549 127.032 138.253C121.324 134.957 112.303 139.902 106.883 149.286Z" fill="#C90C0F"/>
<path d="M104.236 70.8505C106.203 74.4284 107.581 78.3894 109.872 81.7758C110.425 82.5917 111.865 82.3505 111.83 81.2447C111.696 76.8519 109.63 72.6942 107.479 68.9541C105.365 65.2769 102.835 61.1882 99.4164 58.6087C98.2347 57.7167 96.9061 59.3962 97.5131 60.5121C99.4671 64.1052 102.25 67.2392 104.236 70.8505Z" fill="#E7E6F4"/>
<path d="M113.986 88.7766C116.373 88.7766 116.377 85.0669 113.986 85.0669C111.595 85.0669 111.591 88.7766 113.986 88.7766Z" fill="#E7E6F4"/>
<path d="M48.3197 193.858C44.9267 191.565 41.0098 190.059 37.5772 187.763C34.1923 185.498 31.1611 182.615 27.5715 180.668C26.6482 180.169 25.6145 181.175 26.1334 182.107C28.2049 185.823 31.7884 188.461 35.2828 190.744C38.7771 193.028 43.0478 195.686 47.2414 196.398C48.7869 196.662 49.6757 194.774 48.3197 193.858Z" fill="#E7E6F4"/>
<path d="M42.2662 152.769C40.0042 138.872 31.325 128.72 22.8769 130.094C14.7612 131.412 9.81359 142.892 11.4402 156.114C11.5077 156.654 11.5854 157.198 11.6733 157.746C12.9644 165.681 16.3473 172.395 20.5855 176.44C19.268 177.304 19.6025 179.869 21.5898 179.869C22.2232 179.869 22.6894 179.607 22.9864 179.223C23.132 179.033 23.2393 178.817 23.3026 178.586C25.7784 180.16 28.4316 180.85 31.0625 180.422C39.5106 179.048 44.5262 166.667 42.2662 152.769Z" fill="#D70911"/>
<path d="M21.5921 176.158C21.3497 176.156 21.109 176.199 20.8827 176.286C20.7792 176.327 20.68 176.379 20.5868 176.44C19.2693 177.305 19.6038 179.869 21.5911 179.869C22.2245 179.869 22.6907 179.607 22.9877 179.223C23.1332 179.034 23.2406 178.817 23.3038 178.587C23.6079 177.514 23.0373 176.158 21.5921 176.158Z" fill="#E7E6F4"/>
</svg>
