<svg width="24" height="24" viewBox="0 0 24 24" fill="none" xmlns="http://www.w3.org/2000/svg">
<path d="M13.2402 4.21908C12.4092 3.40676 11.5124 2.66454 10.5591 2C11.2832 4.51897 9.37478 7.19109 7.98861 9.11982C5.56918 12.4865 4.66554 14.4436 5.10846 16.8846C5.49767 19.0336 7.14208 20.3285 7.4768 20.5923C9.82811 22.4443 12.5987 21.9812 13.3356 21.858C14.1078 21.7289 16.0309 21.4073 17.4341 19.7933C17.6234 19.5756 18.446 18.5951 18.8018 16.8341C19.9644 11.0839 14.4587 5.41016 13.2402 4.21908Z" fill="#E30613"/>
<path d="M14.7209 14.324C15.3455 14.2224 15.7162 13.3072 15.5491 12.2799C15.3821 11.2526 14.7403 10.5021 14.1157 10.6037C13.4911 10.7053 13.1204 11.6205 13.2874 12.6478C13.4545 13.6751 14.0963 14.4256 14.7209 14.324Z" fill="#E7364B"/>
<path d="M14.1064 10.0943C14.3915 10.0478 14.5608 9.63003 14.4845 9.16093C14.4083 8.69184 14.1148 8.34924 13.8301 8.39555C13.5454 8.44187 13.3756 8.85988 13.4519 9.32897C13.5282 9.79807 13.8212 10.1408 14.1064 10.0943Z" fill="#E7364B"/>
<path d="M18.0987 12.4255C17.5246 10.588 16.4781 8.93157 15.3039 7.40587C14.0851 5.82249 12.7197 4.35749 11.226 3.03027C11.4938 4.74873 10.8194 6.57209 9.95017 8.03162C9.07785 9.49622 7.93824 10.7896 7.0886 12.2674C6.65307 13.0249 6.29587 13.8586 6.11217 14.7127C6.39434 14.2287 6.80895 13.8273 7.32913 13.7094C8.53276 13.4379 9.71129 14.3249 10.3716 15.3201C10.9827 16.241 11.2232 17.3555 11.8964 18.2402C12.5368 19.0817 13.4658 19.6219 14.5346 19.6496C15.9552 19.6862 17.5432 18.6342 18.1065 17.3478C18.2335 17.0574 18.3519 16.7604 18.4567 16.4616C18.664 15.1169 18.5024 13.7172 18.0987 12.4255ZM11.6243 14.4965C10.2784 13.431 9.64532 11.5422 10.0771 9.88095C10.3288 8.91455 10.894 8.06461 11.3048 7.15434C11.7156 6.24408 11.9676 5.17375 11.5675 4.25911L12.307 4.77111C14.8198 6.68077 18.0241 11.0991 15.9202 14.3031C14.9767 15.7393 12.8134 15.4378 11.6243 14.4965Z" fill="#B90E0C"/>
<path d="M15.2619 16.3316C14.7415 17.233 14.7639 18.2203 15.3118 18.5366C15.8597 18.8529 16.7259 18.3788 17.2464 17.4773C17.7668 16.5759 17.7445 15.5888 17.1965 15.2724C16.6484 14.9559 15.7824 15.4307 15.2619 16.3316Z" fill="#C90C0F"/>
<path d="M15.0078 8.80168C15.1967 9.14516 15.3289 9.52542 15.5489 9.8505C15.602 9.92883 15.7402 9.90567 15.7369 9.79952C15.7241 9.37781 15.5257 8.97867 15.3192 8.61963C15.1162 8.26661 14.8733 7.8741 14.545 7.62646C14.4316 7.54083 14.304 7.70206 14.3623 7.80919C14.5499 8.15413 14.8171 8.45499 15.0078 8.80168Z" fill="#E7E6F4"/>
<path d="M15.9439 10.5226C16.1731 10.5226 16.1735 10.1665 15.9439 10.1665C15.7144 10.1665 15.714 10.5226 15.9439 10.5226Z" fill="#E7E6F4"/>
<path d="M9.63918 20.6102C9.31341 20.3901 8.93734 20.2455 8.60778 20.0252C8.28279 19.8077 7.99175 19.531 7.64711 19.344C7.55847 19.2961 7.45922 19.3927 7.50904 19.4821C7.70792 19.8389 8.05198 20.0921 8.38748 20.3113C8.72298 20.5305 9.13302 20.7858 9.53565 20.8541C9.68404 20.8795 9.76937 20.6982 9.63918 20.6102Z" fill="#E7E6F4"/>
<path d="M9.05797 16.6658C8.84079 15.3317 8.00749 14.3571 7.19638 14.489C6.41718 14.6155 5.94215 15.7176 6.09832 16.9869C6.1048 17.0388 6.11226 17.091 6.1207 17.1436C6.24466 17.9053 6.56946 18.5498 6.97638 18.9382C6.84988 19.0212 6.88199 19.2673 7.0728 19.2673C7.13362 19.2673 7.17838 19.2422 7.20689 19.2054C7.22086 19.1872 7.23117 19.1664 7.23724 19.1443C7.47495 19.2953 7.72969 19.3615 7.98229 19.3205C8.7934 19.1885 9.27495 18 9.05797 16.6658Z" fill="#D70911"/>
<path d="M7.07303 18.9111C7.04976 18.9109 7.02665 18.9151 7.00492 18.9234C6.99498 18.9274 6.98546 18.9323 6.97651 18.9382C6.85001 19.0212 6.88212 19.2674 7.07293 19.2674C7.13375 19.2674 7.17851 19.2423 7.20702 19.2054C7.22099 19.1872 7.2313 19.1664 7.23737 19.1443C7.26656 19.0413 7.21178 18.9111 7.07303 18.9111Z" fill="#E7E6F4"/>
</svg>
