<svg width="24" height="24" viewBox="0 0 24 24" fill="none" xmlns="http://www.w3.org/2000/svg">
<path d="M6.80989 1.99951C6.03796 1.99963 5.4123 2.64798 5.41241 3.44755C5.41253 4.24715 6.0384 4.89525 6.81033 4.89509C7.58226 4.89497 8.20792 4.24666 8.20777 3.44706C8.20777 3.44697 8.20777 3.44689 8.20777 3.44681C8.20765 2.64737 7.5819 1.99939 6.81009 1.99951C6.81005 1.99951 6.80997 1.99951 6.80989 1.99951ZM6.80989 4.48733C6.25501 4.48721 5.80531 4.02114 5.80543 3.44636C5.80555 2.87159 6.25549 2.40576 6.81037 2.40588C7.36505 2.40601 7.81471 2.87179 7.81483 3.44636C7.81428 4.02101 7.36465 4.48676 6.80989 4.48733Z" fill="#DDDDDD"/>
<path d="M10.6207 4.36516V11.2861C10.6207 11.424 10.5534 11.5525 10.4417 11.6276L8.344 13.0398H8.04943V13.4581C8.04943 13.6578 7.89308 13.8198 7.70026 13.8198H7.68332C7.49045 13.8198 7.33415 13.6578 7.33415 13.4581V13.0395H7.11587V13.82H6.4646V13.0395H6.19879V13.4578C6.19879 13.6576 6.04244 13.8195 5.84961 13.8195C5.65675 13.8195 5.50044 13.6576 5.50044 13.4578V13.0395H5.20496L3.1739 11.6278C3.06514 11.5522 2.99991 11.4255 2.99991 11.2897V4.36516C2.99991 3.91537 3.35192 3.55078 3.7861 3.55078H9.83409C10.2683 3.5505 10.6205 3.91492 10.6208 4.36467C10.6207 4.36483 10.6207 4.365 10.6207 4.36516Z" fill="#DDDDDD"/>
<path d="M5.32469 12.6336L3.39392 11.2921V4.36532C3.3942 4.14061 3.56996 3.9585 3.7869 3.95825H9.83394C10.0512 3.95813 10.2274 4.14032 10.2276 4.36532V11.2863L8.22765 12.6336H5.32469V12.6336Z" fill="#E1393A"/>
<path d="M4.06973 5.92578H9.55099V6.70625H4.06973V5.92578Z" fill="#3E3E3E"/>
<path d="M4.06973 6.7063H9.55099V10.0428H4.06973V6.7063Z" fill="#DDDDDD"/>
<path d="M7.59607 12.5422H7.78728V13.6164H7.59607V12.5422Z" fill="#E1393A"/>
<path d="M6.64136 12.5422H6.93404V13.82H6.64136V12.5422Z" fill="#E1393A"/>
<path d="M5.73468 12.5422H5.92589V13.6164H5.73468V12.5422Z" fill="#E1393A"/>
<path d="M4.48434 8.32324H7.01765V8.48201H4.48434V8.32324Z" fill="white"/>
<path d="M4.48434 8.8999H9.15771V9.05867H4.48434V8.8999Z" fill="white"/>
<path d="M4.48434 9.47681H9.15771V9.63558H4.48434V9.47681Z" fill="white"/>
<path d="M8.04853 8.03545L7.90727 8.48201H7.72433L8.18983 7.0625H8.40338L8.871 8.48201H8.68263L8.53617 8.03545H8.04853ZM8.4978 7.8923L8.36359 7.48377C8.33298 7.3911 8.31274 7.30692 8.29296 7.22474H8.28871C8.26846 7.30912 8.24608 7.39547 8.21973 7.48181L8.08552 7.89255L8.4978 7.8923Z" fill="#3E3E3E"/>
<path d="M19.2179 8.61974C19.3028 8.61961 19.3814 8.5733 19.4249 8.49777L19.9021 7.67095C19.9021 7.67095 20.386 6.89264 20.8755 7.15877C20.9739 7.21324 21.0219 7.33178 20.9904 7.44269C20.9096 7.65613 20.7882 7.85061 20.6335 8.01464C20.5661 8.09397 20.506 8.17954 20.4538 8.27024L20.4514 8.27416C20.2924 8.55331 20.171 8.85375 20.091 9.16709C20.0627 9.27612 20.0233 9.38172 19.9732 9.48198C19.5233 10.3922 19.0194 11.2728 18.4644 12.1186C18.3038 12.3578 18.2243 12.6454 18.2383 12.9364L18.6231 20.9058H14.2907L14.6156 13.2832C14.6294 13.0058 14.5969 12.7281 14.5196 12.4622C14.4435 12.2275 14.3263 12.0093 14.1739 11.8185C13.5273 10.9834 13.8867 8.98269 13.8867 8.98269L13.9015 8.45366C13.9136 8.01946 13.901 7.58489 13.8638 7.1522L13.6486 4.63365C13.6332 4.45301 13.7502 4.28881 13.9213 4.25074C14.1086 4.20925 14.2929 4.33284 14.333 4.52687C14.3352 4.53711 14.3368 4.54743 14.3381 4.5578L14.6677 7.32876C14.6778 7.41278 14.7496 7.4739 14.8311 7.46778L14.8728 7.4646C14.9553 7.45848 15.0183 7.3858 15.0152 7.3002L14.8751 3.38218C14.8643 3.07985 15.0922 2.82568 15.3841 2.8145C15.4044 2.81373 15.4248 2.81418 15.4452 2.81581C15.7144 2.83772 15.9244 3.06623 15.9323 3.34582L16.0453 7.30652C16.0479 7.39429 16.1187 7.46333 16.2034 7.46068C16.2036 7.46068 16.2039 7.46068 16.2041 7.46064L16.2483 7.45917C16.3312 7.45627 16.3968 7.38576 16.3967 7.29991L16.3863 2.55507C16.3858 2.24879 16.6251 2.00004 16.9208 1.99951H16.9234C17.2191 1.99947 17.4588 2.24781 17.4588 2.55409C17.4588 2.55621 17.4588 2.55833 17.4588 2.56045L17.4174 7.29505C17.4166 7.38287 17.4847 7.45472 17.5695 7.45554H17.5709C17.652 7.45558 17.7192 7.39017 17.7242 7.30628L17.9855 2.94043C18.0003 2.69184 18.2069 2.50276 18.4468 2.51806C18.4565 2.51867 18.4661 2.51961 18.4757 2.52091C18.6914 2.54964 18.8535 2.73885 18.8555 2.96409L18.9026 8.29775C18.9048 8.47643 19.0454 8.62002 19.2179 8.61974Z" fill="#FED19A"/>
<path d="M15.425 14.9795H17.1858C17.4087 14.9795 17.5893 15.1667 17.5893 15.3975C17.5893 15.6284 17.4087 15.8156 17.1858 15.8156H15.425C15.2021 15.8156 15.0215 15.6284 15.0215 15.3975C15.0215 15.1667 15.2021 14.9795 15.425 14.9795Z" fill="#F4BB87"/>
<path d="M15.8828 17.2498H16.7281C16.7573 17.2498 16.7809 17.2742 16.7809 17.3044V17.3976C16.7809 17.4277 16.7573 17.4522 16.7281 17.4522H15.8828C15.8537 17.4522 15.8301 17.4277 15.8301 17.3976V17.3044C15.8301 17.2742 15.8537 17.2498 15.8828 17.2498Z" fill="white"/>
<path d="M15.9931 18.5767H16.6187C16.6478 18.5767 16.6714 18.6011 16.6714 18.6313V18.7245C16.6714 18.7546 16.6478 18.7791 16.6187 18.7791H15.9931C15.9639 18.7791 15.9403 18.7546 15.9403 18.7245V18.6313C15.9403 18.6011 15.9639 18.5767 15.9931 18.5767Z" fill="white"/>
<path d="M16.4378 18.7791L16.3599 19.9454H16.2518L16.1737 18.7791H16.4378Z" fill="#DBD8DD"/>
<path d="M9.51096 21.9995C7.92685 21.9979 6.64302 20.6682 6.6412 19.0273V13.82H6.9346V19.0273C6.93546 20.5011 8.08954 21.6951 9.5123 21.6942C10.9338 21.6933 12.086 20.4998 12.0869 19.0273V9.88562C12.0869 8.63683 13.0642 7.62451 14.2697 7.62451C15.4753 7.62451 16.4526 8.63683 16.4526 9.88562V17.2498H16.1592V9.88562C16.1598 8.80475 15.3145 7.92798 14.2711 7.92728C13.2276 7.92659 12.3812 8.80221 12.3805 9.88309V9.88562V19.027C12.3788 20.668 11.0951 21.9977 9.51096 21.9995Z" fill="#E1393A"/>
<path d="M16.6625 17.4526L16.586 18.5782H16.0253L15.9488 17.4526H16.6625Z" fill="#DBD8DD"/>
<path d="M15.9895 15.0703H16.6215V15.7249H15.9895V15.0703Z" fill="#DDA97A"/>
<path opacity="0.3" d="M16.1599 17.2485H16.4533V18.5778H16.1599V17.2485Z" fill="#EF5261"/>
</svg>
