<svg width="240" height="619" viewBox="0 0 240 619" fill="none" xmlns="http://www.w3.org/2000/svg">
<path d="M254.762 68.6066C229.069 43.4922 201.344 20.5452 171.869 0C194.257 77.8781 135.256 160.491 92.4 220.121C17.5994 324.207 -10.3384 384.716 3.35522 460.181C15.3883 526.622 66.2281 566.656 76.5765 574.811C149.271 632.07 234.929 617.751 257.71 613.943C281.584 609.951 341.039 600.008 384.422 550.11C390.276 543.378 415.708 513.066 426.709 458.62C462.652 280.843 292.435 105.431 254.762 68.6066Z" fill="#E30613"/>
<path d="M404.969 322.322C387.22 265.511 354.866 214.301 318.566 167.132C280.882 118.179 238.67 72.8858 192.489 31.8528C200.768 84.9818 179.918 141.354 153.045 186.478C126.076 231.758 90.8427 271.744 64.5745 317.434C51.1094 340.853 40.0661 366.628 34.3865 393.035C43.1105 378.072 55.9287 365.659 72.0109 362.016C109.223 353.623 145.659 381.044 166.073 411.812C184.968 440.286 192.402 474.742 213.216 502.093C233.013 528.109 261.736 544.811 294.779 545.668C338.7 546.799 387.795 514.274 405.21 474.502C409.139 465.525 412.797 456.344 416.04 447.105C422.447 405.531 417.45 362.257 404.969 322.322ZM204.802 386.35C163.192 353.41 143.62 295.013 156.97 243.653C164.75 213.775 182.225 187.498 194.926 159.355C207.627 131.213 215.418 98.122 203.048 69.8442L225.911 85.6737C303.596 144.714 402.665 281.314 337.617 380.37C308.449 424.775 241.566 415.452 204.802 386.35Z" fill="#B90E0C"/>
<path d="M143.43 575.37C133.359 568.565 121.732 564.095 111.543 557.281C101.495 550.558 92.4973 542.002 81.842 536.223C79.1014 534.74 76.033 537.728 77.5732 540.492C83.7221 551.524 94.3594 559.351 104.732 566.129C115.104 572.906 127.781 580.797 140.229 582.909C144.817 583.694 147.455 578.09 143.43 575.37Z" fill="#E7E6F4"/>
<path d="M125.461 453.418C118.747 412.172 92.9838 382.041 67.9069 386.12C43.8167 390.031 29.1303 424.102 33.9586 463.345C34.1591 464.95 34.3897 466.565 34.6505 468.192C38.483 491.74 48.5246 511.667 61.1052 523.673C57.1944 526.239 58.1872 533.85 64.0864 533.85C65.9665 533.85 67.3503 533.074 68.2318 531.934C68.6639 531.371 68.9827 530.729 69.1704 530.045C76.5196 534.714 84.3952 536.762 92.2047 535.493C117.282 531.413 132.17 494.667 125.461 453.418Z" fill="#D70911"/>
<path d="M64.0932 522.838C63.3736 522.83 62.6592 522.959 61.9874 523.217C61.68 523.339 61.3857 523.493 61.109 523.674C57.1982 526.24 58.1909 533.851 64.0902 533.851C65.9703 533.851 67.3541 533.075 68.2356 531.935C68.6677 531.372 68.9865 530.73 69.1741 530.046C70.0766 526.863 68.3829 522.838 64.0932 522.838Z" fill="#E7E6F4"/>
</svg>
