<svg width="24" height="24" viewBox="0 0 24 24" fill="none" xmlns="http://www.w3.org/2000/svg">
<path d="M13.7067 2.2362V3.02514H10.2929V2.2362C10.2929 2.10575 10.3947 2 10.5202 2H13.4793C13.6049 2 13.7067 2.10575 13.7067 2.2362Z" fill="#DDDDDD"/>
<path d="M5.68157 3.33936H18.3177C18.6943 3.33936 18.9996 3.65661 18.9996 4.04799V21.2914C18.9996 21.6828 18.6943 22.0001 18.3177 22.0001H5.68157C5.30493 22.0001 4.99963 21.6828 4.99963 21.2914V4.04799C4.99963 3.65665 5.30493 3.33936 5.68157 3.33936Z" fill="#E1393A"/>
<path d="M6.13599 4.52026H17.8629V20.8188H6.13599V4.52026Z" fill="white"/>
<path d="M13.5523 6.00852H10.4468C10.2171 6.00919 10.0136 5.85452 9.94466 5.62681L9.68097 4.76133C9.62936 4.5929 9.65823 4.65079 9.75801 4.50833C9.85678 4.36693 10.0149 4.28351 10.1831 4.28418H13.8166C13.9848 4.28351 14.143 4.36693 14.2417 4.50833C14.342 4.65004 14.3702 4.59266 14.3188 4.76109L14.0544 5.62681C13.9855 5.85452 13.782 6.00919 13.5523 6.00852ZM10.1824 4.52038C10.1425 4.52074 10.1104 4.55469 10.1108 4.59618C10.1108 4.60373 10.112 4.61124 10.1142 4.61843L10.3786 5.48391C10.3879 5.51498 10.4155 5.5362 10.4468 5.53635H13.5523C13.5836 5.5362 13.6112 5.51498 13.6205 5.48391L13.8862 4.61819C13.8983 4.57863 13.8772 4.53643 13.8391 4.5239C13.8323 4.52165 13.8252 4.52046 13.818 4.52038H10.1824Z" fill="#DDDDDD"/>
<path d="M9.08709 2.86694H14.9121C15.009 2.86694 15.0876 2.94859 15.0876 3.04928V4.57424C15.0876 4.67497 15.009 4.75658 14.9121 4.75658H9.08709C8.99015 4.75658 8.91162 4.67493 8.91162 4.57424V3.04928C8.91158 2.94859 8.99015 2.86694 9.08709 2.86694Z" fill="#3E3E3E"/>
<path d="M7.36829 13.1963H9.35042V13.6734H7.36829V13.1963Z" fill="#3E3E3E"/>
<path d="M10.5994 13.1963H16.6311V13.6734H10.5994V13.1963Z" fill="#3E3E3E"/>
<path d="M7.36835 15.0994H9.35048V15.5765H7.36835V15.0994Z" fill="#3E3E3E"/>
<path d="M10.5994 15.0996H16.6311V15.5768H10.5994V15.0996Z" fill="#3E3E3E"/>
<path d="M7.36835 17.0024H9.35048V17.4796H7.36835V17.0024Z" fill="#3E3E3E"/>
<path d="M10.5994 17.0024H16.6311V17.4796H10.5994V17.0024Z" fill="#3E3E3E"/>
<path d="M7.36835 18.9058H9.35048V19.3829H7.36835V18.9058Z" fill="#3E3E3E"/>
<path d="M10.5994 18.9058H16.6311V19.3829H10.5994V18.9058Z" fill="#3E3E3E"/>
<path d="M13.3863 10.3282C13.3863 8.8136 11.9997 7.01367 11.9997 7.01367C11.9997 7.01367 10.6131 8.70919 10.6131 10.3282C10.6125 11.1239 11.2329 11.7695 11.9987 11.7701C12.7645 11.7706 13.3857 11.126 13.3862 10.3302C13.3863 10.3295 13.3863 10.3288 13.3863 10.3282Z" fill="#E1393A"/>
<path d="M11.8132 9.50757H12.1865V11.0189H11.8132V9.50757Z" fill="white"/>
<path d="M11.2723 10.0693H12.7266V10.4572H11.2723V10.0693Z" fill="white"/>
</svg>
