<svg width="24" height="24" viewBox="0 0 24 24" fill="none" xmlns="http://www.w3.org/2000/svg">
<path d="M18.167 14.3792C17.4953 14.2347 16.964 14.5466 16.4935 14.8189C16.0116 15.0996 15.0954 15.8429 14.5702 15.6526C11.8813 14.5455 9.35234 12.192 8.2576 9.49237C8.06465 8.95598 8.80446 8.03391 9.08304 7.54637C9.35338 7.07443 9.65879 6.53803 9.5195 5.8613C9.39362 5.25317 7.76543 3.18139 7.18969 2.61484C6.80998 2.24061 6.42099 2.03479 6.02168 2.00152C4.52041 1.93707 2.84373 3.94024 2.54967 4.41947C1.81296 5.44133 1.81709 6.80103 2.56205 8.44973C4.35739 12.8781 11.1477 19.5613 15.5927 21.4241C16.413 21.8077 17.1631 22 17.8369 22C18.4962 22 19.0833 21.816 19.5878 21.4511C19.9686 21.2318 22.0538 19.4719 21.9992 17.9302C21.9661 17.5373 21.7608 17.1444 21.3914 16.7639C20.8291 16.1828 18.7706 14.506 18.167 14.3792Z" fill="black"/>
</svg>
