<svg width="24" height="24" viewBox="0 0 24 24" fill="none" xmlns="http://www.w3.org/2000/svg">
<g clip-path="url(#clip0_84_2245)">
<path d="M18.9434 2.10469C14.2888 1.25827 11.9506 5.84634 11.9506 5.84634C11.9506 5.84634 9.61239 1.25827 4.95775 2.10469C0.909059 2.84107 -0.793294 7.13023 1.09247 11.3066C2.80977 15.1094 11.9506 22.0017 11.9506 22.0017C11.9506 22.0017 21.0914 15.1108 22.8087 11.3066C24.6945 7.13023 22.9921 2.84107 18.9434 2.10469Z" fill="#0094D4"/>
<path d="M7.28782 14.7412C3.90893 12.3473 1.93078 8.92901 0.899584 5.18872C0.102073 6.91009 0.107507 9.12329 1.09251 11.3066C2.80981 15.1094 11.9506 22.0017 11.9506 22.0017C11.9506 22.0017 15.3906 19.4081 18.4462 16.5251C14.638 17.3375 10.6925 17.1066 7.28782 14.7412Z" fill="#0082C7"/>
<path d="M14.1475 11.1231H12.5212V9.49681C12.5212 9.17345 12.259 8.9126 11.937 8.9126H11.3528C11.0295 8.9126 10.7686 9.17481 10.7686 9.49681V11.1231H9.13963C8.81628 11.1231 8.55542 11.3853 8.55542 11.7073V12.2915C8.55542 12.6148 8.81763 12.8757 9.13963 12.8757H10.7659V14.502C10.7659 14.8253 11.0281 15.0862 11.3501 15.0862H11.9343C12.2577 15.0862 12.5185 14.824 12.5185 14.502V12.8771H14.1448C14.4681 12.8771 14.729 12.6148 14.729 12.2928V11.7086C14.7331 11.3853 14.4709 11.1231 14.1475 11.1231Z" fill="#F1F2F2"/>
<path d="M18.9433 2.10461C18.5507 2.03261 18.173 2 17.8129 2C13.9096 2 11.9505 5.84626 11.9505 5.84626C11.9355 5.81773 10.0552 2.1576 6.32578 2.00543C6.49289 5.58812 7.76591 9.217 10.6992 11.1231H10.7658V9.49688C10.7658 9.17352 11.028 8.91267 11.35 8.91267H11.9342C12.2575 8.91267 12.5184 9.17488 12.5184 9.49688V11.1231H14.1446C14.468 11.1231 14.7289 11.3854 14.7289 11.7074V12.2916C14.7289 12.4043 14.6976 12.5089 14.6419 12.5972C15.3144 12.7114 15.9937 12.7644 16.6758 12.7644C18.6838 12.7644 20.7163 12.3038 22.6768 11.5674C22.7216 11.4818 22.7637 11.3962 22.8004 11.3134C22.8018 11.3106 22.8031 11.3079 22.8045 11.3052C23.3262 10.1517 23.5735 8.98875 23.5721 7.89506C23.5748 5.03109 21.8738 2.63719 18.9433 2.10461Z" fill="#60B2E3"/>
<path d="M11.937 8.91138H11.3528C11.0295 8.91138 10.7686 9.17359 10.7686 9.49558V11.1219H10.7021C11.0988 11.38 11.5254 11.6055 11.9832 11.7957C12.8528 12.1843 13.7454 12.4452 14.6475 12.5973C14.7018 12.5076 14.7344 12.403 14.7344 12.2916V11.7074C14.7344 11.3841 14.4722 11.1232 14.1502 11.1232H12.5213V9.49694C12.5213 9.17359 12.259 8.91138 11.937 8.91138Z" fill="#F6F6F7"/>
<path d="M17.7504 3.05981C17.6879 3.05981 17.6241 3.06117 17.5616 3.06389C15.9951 3.12639 13.7547 4.26084 13.574 5.23904C13.4124 6.11128 14.3797 6.52702 15.0631 6.52702C15.1446 6.52702 15.2234 6.52158 15.2954 6.50936C15.9638 6.39795 16.6024 6.11264 17.2803 6.09769C17.2967 6.09769 17.3116 6.09769 17.3279 6.09769C18.298 6.09769 19.2422 6.71722 19.6253 7.60984C19.7924 7.99976 19.8577 8.42501 19.9568 8.83939C20.056 9.25241 20.2 9.67087 20.4921 9.98063C20.7082 10.2102 21.0206 10.3651 21.329 10.3651C21.4364 10.3651 21.5437 10.3461 21.6456 10.304C22.0016 10.1586 22.2108 9.78907 22.3453 9.42768C22.8928 7.959 22.6157 6.21997 21.6646 4.97275C20.7503 3.77581 19.2544 3.05981 17.7504 3.05981Z" fill="#9FCEEF"/>
<path d="M18.2694 8.66821C17.5467 8.66821 16.9611 9.25378 16.9611 9.97657C16.9611 10.6994 17.5467 11.2849 18.2694 11.2849C18.9922 11.2849 19.5778 10.6994 19.5778 9.97657C19.5778 9.25378 18.9922 8.66821 18.2694 8.66821Z" fill="#9FCEEF"/>
</g>
<defs>
<clipPath id="clip0_84_2245">
<rect width="24" height="24" fill="white"/>
</clipPath>
</defs>
</svg>
