<svg width="24" height="24" viewBox="0 0 24 24" fill="none" xmlns="http://www.w3.org/2000/svg">
<path d="M17.0466 4.38637L18.7561 2.58586C19.1125 2.21074 19.5958 2 20.0998 2C20.6037 2 21.0871 2.21074 21.4434 2.58586C21.7998 2.96097 22 3.46974 22 4.00024C22 4.53073 21.7998 5.0395 21.4434 5.41462L10.683 16.7414C10.1473 17.305 9.48663 17.7192 8.76072 17.9467L6.03996 18.8L6.85062 15.9361C7.06673 15.172 7.46026 14.4766 7.99567 13.9126L17.0466 4.38637ZM17.0466 4.38637L19.7198 7.20019M18.1998 14.5334V19.6C18.1998 20.2365 17.9596 20.847 17.532 21.2971C17.1044 21.7471 16.5245 22 15.9198 22H5.27997C4.67528 22 4.09536 21.7471 3.66779 21.2971C3.24021 20.847 3 20.2365 3 19.6V8.40018C3 7.76367 3.24021 7.15323 3.66779 6.70315C4.09536 6.25306 4.67528 6.00021 5.27997 6.00021H10.0932" stroke="black" stroke-width="1.5" stroke-linecap="round" stroke-linejoin="round"/>
</svg>
