<svg width="24" height="24" viewBox="0 0 24 24" fill="none" xmlns="http://www.w3.org/2000/svg">
<g clip-path="url(#clip0_323_2748)">
<path d="M22 4.00727C21.9058 3.99758 21.8109 3.99758 21.7167 4.00727H2.36628C2.24226 4.00918 2.11906 4.02777 2 4.06252L11.9862 14L22 4.00727Z" fill="black"/>
<path d="M22.9175 5L12.9075 14.6196C12.6499 14.8668 12.3014 15.0055 11.9381 15.0055C11.5749 15.0055 11.2264 14.8668 10.9688 14.6196L1.04813 5.07298C1.01763 5.18114 1.00146 5.2926 1 5.40469V18.6732C1 19.0251 1.14487 19.3625 1.40273 19.6114C1.66059 19.8602 2.01033 20 2.375 20H21.625C21.9897 20 22.3394 19.8602 22.5973 19.6114C22.8551 19.3625 23 19.0251 23 18.6732V5.40469C22.9945 5.26647 22.9667 5.12992 22.9175 5ZM3.31688 18.6732H2.36125V17.7245L7.35938 12.9412L8.32875 13.8766L3.31688 18.6732ZM21.6113 18.6732H20.6488L15.6369 13.8766L16.6062 12.9412L21.6044 17.7245L21.6113 18.6732Z" fill="black"/>
</g>
<defs>
<clipPath id="clip0_323_2748">
<rect width="24" height="24" fill="white"/>
</clipPath>
</defs>
</svg>
