<svg width="24" height="24" viewBox="0 0 24 24" fill="none" xmlns="http://www.w3.org/2000/svg">
<path d="M21.5 12.2222C21.5 11.3999 21.4336 10.7999 21.29 10.1777H11.949V13.8888H17.4319C17.3214 14.8111 16.7245 16.1999 15.3979 17.1332L15.3793 17.2575L18.3328 19.5572L18.5374 19.5777C20.4166 17.8333 21.5 15.2666 21.5 12.2222Z" fill="#4285F4"/>
<path d="M11.9485 22.0001C14.6347 22.0001 16.8898 21.1111 18.5369 19.5778L15.3975 17.1333C14.5574 17.7222 13.4298 18.1333 11.9485 18.1333C9.31761 18.1333 7.08464 16.3889 6.28865 13.9778L6.17198 13.9877L3.10095 16.3767L3.06079 16.4889C4.69682 19.7555 8.05736 22.0001 11.9485 22.0001Z" fill="#34A853"/>
<path d="M6.28907 13.9778C6.07904 13.3555 5.95749 12.6888 5.95749 12C5.95749 11.311 6.07904 10.6444 6.27802 10.0222L6.27246 9.88967L3.16294 7.4624L3.0612 7.51104C2.38691 8.86661 2 10.3889 2 12C2 13.6111 2.38691 15.1332 3.0612 16.4888L6.28907 13.9778Z" fill="#FBBC05"/>
<path d="M11.9485 5.86664C13.8167 5.86664 15.0769 6.67774 15.7954 7.35557L18.6033 4.6C16.8788 2.98889 14.6347 2 11.9485 2C8.05733 2 4.69677 4.24443 3.06073 7.51106L6.27756 10.0222C7.08461 7.6111 9.31759 5.86664 11.9485 5.86664Z" fill="#EB4335"/>
</svg>
