<svg width="200" height="200" viewBox="0 0 200 200" fill="none" xmlns="http://www.w3.org/2000/svg">
<path d="M125.565 111.86L133.935 107.074L134.66 117.267L126.269 122.053L125.565 111.86Z" fill="#75DCFF"/>
<path d="M157.409 113.828C160.04 112.336 161.988 109.291 162.589 105.002L168.1 66.8807C169.343 58.324 164.847 48.1099 158.072 44.0906L114.792 18.2964C111.435 16.3074 108.162 16.2038 105.551 17.6334L95.4409 23.3516L89.5569 64.1044L95.3373 60.8309L94.7986 64.6224C93.5555 73.179 98.0514 83.3931 104.826 87.4124L148.107 113.207C148.148 113.227 148.19 113.248 148.231 113.29L147.319 119.546L157.409 113.828Z" fill="#75DCFF"/>
<path d="M154.362 65.223L147.484 112.875L148.064 113.227C148.106 113.248 148.147 113.269 148.188 113.31L147.277 119.567L157.387 113.828C159.646 112.544 161.386 110.119 162.215 106.742L168.223 65.0573C168.347 62.6747 168.057 60.1885 167.436 57.8059L154.362 65.223Z" fill="#75DCFF"/>
<path d="M157.967 72.5988C159.211 64.0422 154.715 53.8281 147.961 49.8088L104.68 24.0145C97.9053 19.9952 91.3998 23.6623 90.1774 32.219L84.6663 70.3405C83.4232 78.8972 87.9398 89.1113 94.694 93.1306L115.039 105.562L126.331 122.157L125.543 111.818L137.954 118.925C144.729 122.944 151.213 119.256 152.436 110.7L157.967 72.5988Z" fill="#0163E0"/>
<path d="M88.2506 45.5613L84.6663 70.361C83.4439 78.9177 87.9605 89.1318 94.6939 93.1511L112.74 104.173L116.324 79.2284C117.567 70.6096 113.05 60.3334 106.234 56.2933L88.2506 45.5613Z" fill="#2563EB"/>
<path d="M132.609 74.6084C131.905 73.7796 131.179 73.0131 130.351 72.2465C130.579 71.7078 130.662 71.3763 130.662 71.3763L131.2 69.6774L127.823 66.6526L127.326 68.3515C127.326 68.3515 127.202 68.7658 126.912 69.4495C124.715 67.8749 122.374 66.6111 120.157 65.741C120.22 64.415 120.261 63.1305 120.323 61.9081C125.068 64.3736 130.475 66.9633 134.536 68.3307L136.255 68.9108L135.675 64.5186L133.956 63.9385C130.144 62.6539 125.047 60.2299 120.51 57.868C120.675 54.8224 120.841 52.8335 120.841 52.8335L120.986 50.8445L117.485 48.6277L117.34 50.6166C117.34 50.6166 117.174 52.7506 117.008 56.0034C112.761 53.7244 109.632 51.9012 109.632 51.9012L107.871 50.8653L107.706 54.926L109.467 55.9619C109.467 55.9619 112.554 57.7644 116.822 60.0434C116.739 61.4937 116.677 63.0683 116.656 64.7258C108.762 63.4205 106.753 71.0241 108.369 76.8667C109.301 80.1194 111.207 82.9578 113.9 84.3045C118.355 86.5421 122.084 84.9468 124.84 81.9841C126.684 80.0365 128.113 77.5089 129.066 75.4164C129.75 76.0379 130.351 76.6802 130.91 77.3432C132.609 79.3736 133.79 81.6526 133.686 83.9937C133.541 87.0808 131.925 88.1788 130.061 88.4689C126.932 88.9454 123.12 87.1843 123.12 87.1843L121.38 86.3763L121.608 90.6236L123.348 91.4316C123.348 91.4316 128.01 93.5656 131.842 92.9855C134.619 92.5504 136.981 90.7479 137.208 86.0863C137.374 82.0669 135.53 78.089 132.609 74.6084ZM113.776 80.0987C112.264 79.3528 111.476 77.3225 111.352 75.4371C111.145 72.1843 112.72 69.0973 116.532 69.1388C116.49 73.2617 116.532 77.4053 116.801 80.8446C115.848 80.8446 114.874 80.6374 113.776 80.0987ZM122.001 78.0062C121.421 78.6277 120.8 79.1664 120.116 79.6429C119.992 76.5973 119.992 73.1995 120.054 69.8846C121.836 70.5269 123.721 71.4592 125.544 72.6609C124.695 74.4219 123.493 76.4109 122.001 78.0062Z" fill="#E9E9FC"/>
<path d="M97.9256 129.554C100.557 128.062 102.504 124.975 103.126 120.665L108.699 82.0467C109.942 73.4279 105.426 63.1516 98.6093 59.1116L55.536 33.4831C52.1797 31.4734 48.8855 31.3698 46.2335 32.8201L36.0816 38.5798L30.1147 79.8298L35.9159 76.5356L35.3565 80.3478C34.1134 88.9666 38.6299 99.2428 45.4463 103.283L72.8979 119.588L68.1535 126.529L83.485 125.886L88.5402 128.953C88.5816 128.973 88.6231 128.994 88.6645 129.036L87.7529 135.334L97.9256 129.554Z" fill="#18ACFE"/>
<path d="M94.8797 80.389L87.9184 128.58L88.5192 128.932C88.5607 128.953 88.6021 128.973 88.6435 129.015L87.7319 135.313L97.9046 129.553C100.184 128.269 101.924 125.803 102.773 122.406L108.865 80.2025C108.989 77.7992 108.699 75.313 108.077 72.9097L94.8797 80.389Z" fill="#18ACFE"/>
<path d="M98.5063 87.8265C99.7494 79.2077 95.2328 68.9314 88.4165 64.8914L45.3847 39.2422C38.5684 35.2021 32.0214 38.89 30.7783 47.5088L25.2051 86.1069C23.962 94.7257 28.4993 105.002 35.2949 109.063L38.6513 111.052L33.9068 117.972L49.2176 117.329L78.3681 134.712C85.1844 138.752 91.7107 135.043 92.9538 126.445L98.5063 87.8265Z" fill="#2CCCFF"/>
<path d="M61.7368 69.7905L47.7788 104.109L42.3708 101.101L58.4034 63.8448L61.8898 65.7845L61.7368 69.7905ZM72.1011 117.641L59.5681 68.584L59.5564 64.4863L63.0427 66.426L77.5365 120.665L72.1011 117.641ZM71.7098 100.33L71.6233 105.292L49.1678 92.7992L49.2542 87.8364L71.7098 100.33Z" fill="#E9E9FC"/>
<path d="M121.482 180.52C127.387 177.102 128.029 171.943 122.912 168.98L61.8965 133.759C56.7791 130.796 47.8288 131.169 41.9034 134.588C35.9987 138.006 35.3564 143.165 40.4738 146.128L101.489 181.349C106.606 184.291 115.557 183.918 121.482 180.52Z" fill="#EFF1FC"/>
</svg>
