<svg width="24" height="24" viewBox="0 0 24 24" fill="none" xmlns="http://www.w3.org/2000/svg">
<g opacity="0.05">
<path d="M11.3392 7.66001L11.4775 7.49717L11.5272 7.43774C11.4682 7.42471 11.4188 7.41467 11.3277 7.39648C11.2727 7.45321 11.2561 7.47112 11.1739 7.55932L11.1234 7.6136L11.0518 7.60058C10.9092 7.57344 10.8868 7.56801 10.781 7.55064C10.738 7.59732 10.71 7.62772 10.682 7.6592L10.8064 7.68634L11.0185 7.73437L10.8804 7.90508C10.8342 7.96235 10.8072 7.99573 10.7834 8.02559C10.8582 8.04648 10.9114 8.06222 11.0198 8.09425C11.0804 8.01283 11.0978 7.98867 11.1843 7.87252L11.2396 7.79788L11.328 7.82502C11.4832 7.87089 11.5128 7.8793 11.6218 7.91377C11.6685 7.84836 11.6957 7.81091 11.7286 7.76721C11.6824 7.75419 11.6367 7.7417 11.5462 7.71701L11.3392 7.66001Z" fill="#00ACEA"/>
<path d="M11.8724 6.9218L11.9729 6.8032C11.9875 6.78583 11.9996 6.77199 12.0092 6.76032C11.9662 6.75082 11.9291 6.7435 11.8642 6.73047C11.8244 6.77145 11.8124 6.78475 11.7525 6.84934L11.7159 6.88897L11.6625 6.87838C11.5592 6.85803 11.5429 6.85477 11.466 6.84228L11.3941 6.92072L11.4844 6.94107L11.6393 6.97608L11.5391 7.10011L11.4686 7.1875C11.5221 7.2027 11.5616 7.21464 11.6401 7.23744C11.6842 7.17773 11.6967 7.16064 11.7595 7.0765L11.7998 7.02222L11.8636 7.04122C11.9766 7.07433 11.9972 7.08057 12.0773 7.10554C12.1112 7.05805 12.1307 7.03091 12.1547 6.99915L12.0212 6.96279L11.8724 6.9218Z" fill="#00ACEA"/>
<path d="M16.8324 14.4569L16.7314 14.3972L16.7763 14.2886C16.8454 14.1198 16.8596 14.0851 16.9047 13.9705C16.8003 13.9078 16.7546 13.881 16.6558 13.824C16.6176 13.9168 16.5989 13.9597 16.533 14.1168L16.475 14.2525L16.3463 14.1811C16.216 14.1087 16.1778 14.0875 16.0995 14.0454C16.032 14.2001 16.0069 14.2569 15.9342 14.4194C16.0264 14.4666 16.0613 14.4856 16.2037 14.5633L16.3148 14.6238L16.2614 14.7402C16.1842 14.9088 16.1668 14.9467 16.115 15.0588C16.2275 15.115 16.2753 15.1403 16.3802 15.1929C16.427 15.0914 16.4451 15.0515 16.5178 14.8906L16.576 14.7611L16.7004 14.8268L16.9045 14.9354C16.9659 14.7934 16.9889 14.7391 17.0519 14.5871C16.9838 14.5464 16.9504 14.5269 16.8324 14.4569Z" fill="#00ACEA"/>
<path d="M7.96885 12.7842L8.07247 12.8439L8.026 12.9552C7.9555 13.1248 7.94134 13.1596 7.89487 13.2752C8.00624 13.3419 8.05351 13.3696 8.159 13.431C8.19852 13.3346 8.21722 13.2906 8.28505 13.1324L8.34247 12.9967L8.47013 13.0657C8.6074 13.1397 8.64612 13.1606 8.72944 13.2071C8.79808 13.0515 8.82345 12.9945 8.89743 12.8301C8.80235 12.7799 8.76737 12.762 8.62075 12.6873L8.50511 12.6284L8.55852 12.509C8.63864 12.3345 8.65547 12.296 8.70888 12.1817L8.429 12.04C8.38039 12.1445 8.3625 12.1842 8.28799 12.3481L8.22924 12.4775L8.10478 12.4116L7.89006 12.2957C7.82704 12.4401 7.8038 12.4946 7.73837 12.6504C7.81182 12.6928 7.84466 12.7118 7.96885 12.7842Z" fill="#00ACEA"/>
<path d="M11.6393 9.68044L11.7969 9.73797L11.7074 9.88019C11.6497 9.97246 11.626 10.0102 11.5952 10.059C11.7218 10.1087 11.7774 10.1312 11.9235 10.1909C11.9699 10.113 11.9876 10.0824 12.0583 9.96242L12.1171 9.862L12.2239 9.90651C12.3874 9.97463 12.4223 9.98929 12.531 10.0357L12.6357 9.8487C12.5556 9.81559 12.5126 9.79822 12.3719 9.74177L12.221 9.68125L12.3858 9.41935C12.276 9.3781 12.2231 9.35883 12.0898 9.31079C12.0533 9.36344 12.0338 9.39058 11.9667 9.48394L11.9088 9.56536L11.8158 9.53334C11.6556 9.47906 11.6252 9.46739 11.5189 9.43156C11.4692 9.5005 11.4428 9.53768 11.404 9.5944L11.6393 9.68044Z" fill="#00ACEA"/>
<path d="M14.0728 10.8574L14.0971 10.7632C14.1265 10.65 14.1345 10.6183 14.1518 10.5547C14.0359 10.4766 13.9889 10.4462 13.8941 10.384C13.8842 10.4161 13.8727 10.4532 13.8535 10.5165L13.8033 10.682L13.6572 10.5927C13.5314 10.5159 13.4908 10.491 13.419 10.4481C13.3936 10.5173 13.3768 10.5621 13.3448 10.6481C13.4492 10.7086 13.4807 10.7274 13.6343 10.8188L13.7325 10.8772L13.6914 10.9857C13.642 11.1149 13.6297 11.1486 13.5982 11.23C13.7317 11.3095 13.7825 11.341 13.892 11.4099C13.9091 11.3556 13.9235 11.3136 13.9571 11.2132L14.0124 11.0476L14.1564 11.1431C14.2616 11.2126 14.3054 11.2417 14.3583 11.2772C14.3756 11.2132 14.3874 11.1686 14.409 11.0872C14.3131 11.0199 14.2883 11.0031 14.1516 10.9114L14.0728 10.8574Z" fill="#00ACEA"/>
<path d="M14.684 9.28628L14.7083 9.1921C14.7374 9.07893 14.7457 9.04718 14.7617 8.98367C14.6458 8.90551 14.5988 8.87511 14.504 8.81323C14.4941 8.84499 14.4826 8.88217 14.4634 8.9454L14.4132 9.11096L14.2671 9.02167C14.1413 8.94486 14.1007 8.91989 14.0289 8.87701C14.0035 8.94622 13.9867 8.991 13.9544 9.0773C14.0588 9.13755 14.0906 9.15628 14.2442 9.24774L14.3422 9.30609L14.3013 9.41465C14.2519 9.54384 14.2393 9.57749 14.2081 9.65891C14.3416 9.7387 14.3921 9.76991 14.5032 9.83885C14.5203 9.78457 14.5347 9.74277 14.5684 9.64208L14.6237 9.47653L14.7676 9.57206L14.9695 9.70613C14.9869 9.64208 14.9986 9.59757 15.02 9.51615C14.9244 9.44885 14.8993 9.43202 14.7625 9.34029L14.684 9.28628Z" fill="#00ACEA"/>
<path d="M15.2297 8.06481L15.2478 7.99452C15.2697 7.90985 15.2745 7.88596 15.2887 7.83847C15.2019 7.78012 15.1669 7.75705 15.0961 7.71118C15.0887 7.73506 15.0801 7.76275 15.0657 7.80997L15.028 7.93373L14.9188 7.86696C14.8251 7.8097 14.7946 7.79097 14.7409 7.75841C14.722 7.80997 14.7094 7.84362 14.6854 7.90795C14.7634 7.953 14.7871 7.96711 14.902 8.0355L14.9752 8.0792L14.9444 8.16062C14.9076 8.25724 14.8982 8.28166 14.875 8.34381C14.9738 8.40325 15.0125 8.42686 15.0953 8.47951C15.1082 8.43962 15.1191 8.40759 15.1442 8.33241L15.1853 8.20866L15.2922 8.28003L15.4428 8.38018C15.4559 8.33241 15.4647 8.29876 15.4807 8.23797C15.4091 8.18749 15.3904 8.175 15.2884 8.10634L15.2297 8.06481Z" fill="#00ACEA"/>
<path d="M13.5965 7.28418L13.6118 7.21335C13.6302 7.12786 13.6353 7.10479 13.6465 7.05567C13.5573 7.00139 13.5212 6.97913 13.4486 6.93652C13.4422 6.96068 13.435 6.9889 13.4219 7.03667L13.3893 7.16178L13.2777 7.09963C13.1815 7.04535 13.1503 7.02907 13.0953 6.99922C13.0784 7.0516 13.0685 7.08552 13.0458 7.1512C13.126 7.19272 13.15 7.20548 13.2675 7.26926L13.3426 7.30997L13.3158 7.39139C13.283 7.48936 13.2747 7.51406 13.2539 7.57729C13.3551 7.63157 13.3946 7.65437 13.4796 7.70241C13.4908 7.66197 13.5001 7.6294 13.5223 7.55341L13.5586 7.42803L13.6689 7.49479L13.8238 7.58842C13.8347 7.54011 13.8422 7.507 13.8558 7.44458C13.7824 7.39736 13.7632 7.38569 13.6582 7.32137L13.5965 7.28418Z" fill="#00ACEA"/>
<path d="M14.3267 15.5216L14.2017 15.4627L14.2631 15.3376C14.3497 15.162 14.37 15.1226 14.4234 15.0087C14.2701 14.9335 14.2156 14.9069 14.057 14.8301C13.9995 14.949 13.9808 14.9878 13.893 15.1677L13.835 15.2866L13.7167 15.2304C13.5415 15.1471 13.5031 15.1294 13.3866 15.0732C13.3033 15.244 13.2755 15.3007 13.1927 15.467L13.5132 15.6177L13.6425 15.6771L13.4195 16.1173C13.5714 16.1868 13.6265 16.2115 13.784 16.2802C13.8425 16.167 13.8615 16.1303 13.952 15.9569L14.0108 15.8446L14.1251 15.8969C14.2882 15.9719 14.3248 15.9887 14.4303 16.0356C14.5142 15.8728 14.5419 15.8185 14.6215 15.66C14.5238 15.6147 14.4845 15.5957 14.3267 15.5216Z" fill="#00ACEA"/>
<path d="M9.73656 7.5559L9.78356 7.50461L9.85166 7.51384C9.97798 7.53067 9.99908 7.53338 10.0966 7.54695L10.1633 7.47367L10.1398 7.47204L9.82175 7.44897L9.80867 7.45983L9.7654 7.46254C9.64923 7.46906 9.63427 7.46987 9.55335 7.47611L9.54614 7.48209L9.76166 7.48371L9.53225 7.71332L9.49513 7.75077L9.55255 7.75864C9.62679 7.67613 9.64148 7.66012 9.73656 7.5559Z" fill="#00ACEA"/>
<path d="M8.81513 10.9268L8.94279 10.9854L8.87896 11.1122C8.79884 11.2731 8.77881 11.3119 8.72753 11.415C8.84023 11.4693 8.88991 11.4943 9.00902 11.5532C9.06403 11.4414 9.08299 11.4031 9.16926 11.2324L9.22694 11.117L9.34311 11.1713C9.49427 11.2405 9.53006 11.2574 9.62754 11.3032C9.70766 11.1434 9.73703 11.088 9.81448 10.936C9.72875 10.8978 9.68869 10.8804 9.54608 10.8191L9.41068 10.7607L9.48092 10.6293C9.56237 10.4765 9.58481 10.4345 9.63475 10.3433C9.52231 10.2969 9.47157 10.2765 9.35166 10.2288C9.29317 10.3346 9.27421 10.3688 9.18448 10.5319L9.12653 10.6369L9.01703 10.5911C8.88537 10.5368 8.85038 10.5213 8.77187 10.4896C8.69388 10.6348 8.66504 10.6872 8.59267 10.8272C8.65649 10.8541 8.69709 10.8728 8.81513 10.9268Z" fill="#00ACEA"/>
<path d="M8.77858 17.3299L8.6787 17.2721L8.71983 17.1635C8.76924 17.033 8.78206 16.9993 8.81464 16.9171C8.67844 16.8379 8.62769 16.8085 8.50912 16.7361C8.49042 16.789 8.4768 16.8319 8.44369 16.935L8.39027 17.1006L8.24526 17.008C8.13176 16.9358 8.08849 16.9084 8.0292 16.8693C8.00971 16.9345 7.99716 16.9779 7.97446 17.0609C8.07167 17.1272 8.09811 17.1448 8.24152 17.2387L8.32618 17.2949L8.29627 17.3929C8.26342 17.4998 8.25407 17.5299 8.23751 17.5926C8.35582 17.6692 8.40309 17.699 8.50618 17.7639C8.5174 17.7308 8.53048 17.693 8.55345 17.6265L8.60686 17.471L8.7468 17.5541C8.87766 17.6317 8.91799 17.6556 8.99277 17.6987L9.07289 17.499C8.96526 17.4379 8.93321 17.4192 8.77858 17.3299Z" fill="#00ACEA"/>
<path d="M8.42923 8.72911L8.62472 8.77335L8.50961 8.93972C8.44766 9.02901 8.41935 9.06999 8.3889 9.11504L8.51576 9.15195C8.57958 9.05262 8.59774 9.02548 8.69389 8.88272L8.7473 8.8013L8.83944 8.82844L9.0643 8.89222C9.13534 8.7861 9.16766 8.73807 9.21947 8.66262C9.18929 8.65502 9.1535 8.64661 9.09715 8.63331L8.89605 8.58527L9.02184 8.41863L9.11318 8.29732C9.0838 8.29297 9.05255 8.2889 9.00929 8.2832C8.93932 8.36869 8.9233 8.38851 8.82368 8.51253L8.77534 8.57278L8.70163 8.56111C8.60576 8.54592 8.58252 8.54212 8.52297 8.53587C8.4578 8.61947 8.42496 8.6618 8.38223 8.71825L8.42923 8.72911Z" fill="#00ACEA"/>
<path d="M9.84254 19.4291L9.91919 19.2972C9.94269 19.2562 9.95685 19.232 9.96886 19.2103C9.84949 19.1541 9.79848 19.1289 9.67349 19.0681C9.66147 19.0934 9.64972 19.12 9.62756 19.1691L9.56987 19.2977L9.44569 19.2334C9.32177 19.1696 9.28251 19.1493 9.21067 19.1113C9.20854 19.1175 9.20613 19.1235 9.20373 19.13C9.28198 19.1721 9.31563 19.1894 9.44676 19.2576L9.55759 19.3148L9.50898 19.4312L9.49429 19.4665C9.60112 19.5192 9.64812 19.5412 9.75441 19.5906L9.77791 19.5509L9.83774 19.4486L9.94456 19.4958C10.0842 19.5572 10.1168 19.5716 10.2047 19.6085L10.2146 19.5933C10.1483 19.5661 10.1043 19.5452 9.97981 19.4901L9.84254 19.4291Z" fill="#00ACEA"/>
<path d="M6.12948 13.8259L6.08968 13.9304C6.02959 14.0894 6.01704 14.1226 5.97859 14.2289C6.02666 14.261 6.0587 14.2832 6.09876 14.3104C6.12547 14.2374 6.14497 14.1907 6.19704 14.0582L6.2558 13.9095L6.38933 13.9926C6.46785 14.0411 6.50203 14.062 6.54342 14.0865C6.59951 13.9508 6.62354 13.8965 6.68577 13.7518C6.62835 13.7198 6.5971 13.7027 6.49882 13.6492L6.38879 13.5893L6.44034 13.4736C6.50924 13.3189 6.5258 13.2815 6.5712 13.1819L6.43446 13.1113C6.39654 13.1949 6.37838 13.2362 6.31455 13.3811L6.25446 13.5168L6.12654 13.4424L6.02853 13.3854C5.98099 13.5 5.96016 13.5521 5.90781 13.684C5.94066 13.706 5.9679 13.7231 6.03467 13.7654L6.12948 13.8259Z" fill="#00ACEA"/>
<path d="M6.98862 16.4872L7.02842 16.3819C7.09144 16.215 7.104 16.1813 7.14806 16.0663C7.03509 15.9973 6.98782 15.968 6.89515 15.9097C6.86845 15.987 6.85082 16.0332 6.80221 16.171L6.74533 16.3322L6.60379 16.2391C6.51726 16.1822 6.4772 16.1558 6.43447 16.1268C6.40028 16.2321 6.38346 16.2861 6.34313 16.4169C6.42085 16.4747 6.44622 16.4929 6.5664 16.5784L6.64652 16.6359L6.61634 16.7312C6.568 16.8843 6.55839 16.9144 6.52767 17.0194C6.62622 17.0903 6.67002 17.1215 6.75067 17.1782C6.76937 17.1209 6.78539 17.0723 6.82358 16.9589L6.87859 16.7942L7.02227 16.8883C7.13471 16.9622 7.17477 16.9882 7.23592 17.0281C7.27919 16.9106 7.29975 16.8549 7.3529 16.7135C7.25462 16.6533 7.22471 16.6348 7.0821 16.5461L6.98862 16.4872Z" fill="#00ACEA"/>
<path d="M7.78359 8.63189C7.82979 8.63542 7.85035 8.63705 7.88667 8.64058C7.9286 8.5863 7.95718 8.54857 7.98362 8.51465L7.89709 8.51655L7.88641 8.52822L7.84822 8.53745L7.82151 8.54423C7.80575 8.55861 7.79 8.573 7.77451 8.58765L7.82445 8.57951L7.78359 8.63189Z" fill="#00ACEA"/>
<path d="M7.47923 10.3367L7.61543 10.3929L7.54707 10.5253C7.47549 10.6643 7.45573 10.7023 7.41353 10.7881L7.55267 10.8537C7.60155 10.7555 7.62077 10.718 7.70009 10.5636L7.75804 10.451L7.87235 10.5023C7.9741 10.5479 8.00721 10.5628 8.0657 10.5899C8.13914 10.4504 8.16772 10.397 8.23609 10.2719L8.06677 10.2073L7.91775 10.1516L7.99787 10.0127C8.07051 9.88674 8.09588 9.8425 8.1346 9.77601C8.08733 9.76 8.05181 9.74887 7.99573 9.73096C7.93698 9.82866 7.91962 9.85824 7.83362 10.0059L7.77727 10.1025L7.67339 10.0642C7.59914 10.0371 7.56923 10.026 7.53184 10.0132C7.46267 10.1351 7.43597 10.1828 7.37508 10.2947L7.47923 10.3367Z" fill="#00ACEA"/>
<path d="M6.74844 10.0475L6.79251 10.0627L6.85741 10.0863L6.94073 10.1172C7.00135 10.007 7.02859 9.95764 7.0788 9.86971L7.05583 9.86428L6.87396 9.82167L6.87717 9.81652L6.85447 9.81435L6.81254 9.81055C6.75379 9.90798 6.72815 9.95113 6.68568 10.0258L6.74871 10.0469L6.74844 10.0475Z" fill="#00ACEA"/>
<path d="M16.4844 9.96914L16.5084 9.87497C16.5378 9.76179 16.5458 9.73031 16.5634 9.66653C16.4473 9.58837 16.4003 9.55797 16.3054 9.49609C16.2956 9.52785 16.2843 9.56503 16.2651 9.62826L16.2146 9.79382L16.0686 9.70453C15.943 9.62772 15.9024 9.60302 15.8303 9.56014C15.805 9.62908 15.7884 9.67386 15.7561 9.76016C15.8605 9.82041 15.8923 9.83941 16.0459 9.9306L16.1439 9.98922L16.1027 10.0978C16.0533 10.227 16.0411 10.2593 16.0098 10.342C16.1433 10.4216 16.1938 10.4528 16.3036 10.522C16.3207 10.4677 16.3351 10.4256 16.3687 10.3249L16.424 10.1597L16.5682 10.2549L16.7699 10.389C16.7872 10.3249 16.799 10.2804 16.8206 10.199C16.725 10.1317 16.6999 10.1149 16.5632 10.0234L16.4844 9.96914Z" fill="#00ACEA"/>
<path d="M16.7704 8.87142L16.7853 8.81362C16.8032 8.74414 16.8083 8.72487 16.819 8.68579C16.7479 8.63802 16.7191 8.61875 16.6609 8.5813C16.6547 8.60084 16.6478 8.62364 16.636 8.66272L16.6066 8.76395L16.5169 8.70967C16.44 8.66272 16.4152 8.64752 16.3711 8.62119L16.3254 8.74387C16.3895 8.78078 16.409 8.79218 16.503 8.84835L16.5631 8.88418L16.538 8.95013C16.5078 9.02938 16.5001 9.04919 16.4809 9.10048C16.561 9.14906 16.5938 9.16833 16.6617 9.21067C16.6723 9.17783 16.6812 9.15151 16.7017 9.0899L16.7356 8.98867L16.8238 9.04702L16.9474 9.12844C16.9581 9.08908 16.9653 9.06194 16.9787 9.01174C16.9199 8.97048 16.9047 8.96017 16.8208 8.90318L16.7704 8.87142Z" fill="#00ACEA"/>
<path d="M13.013 17.685L13.1183 17.7268C13.2822 17.7916 13.3156 17.8049 13.4267 17.8467C13.5034 17.7181 13.5335 17.6684 13.6014 17.5501L13.3287 17.4388L13.1885 17.381L13.4144 16.9715C13.2697 16.9093 13.2139 16.8849 13.0571 16.8154C12.9994 16.924 12.9813 16.959 12.8969 17.1202L12.8389 17.2307L12.7251 17.1807C12.5515 17.1042 12.5158 17.0885 12.398 17.0361C12.3245 17.1764 12.297 17.2288 12.2295 17.3561C12.3256 17.3984 12.3678 17.4163 12.5267 17.4839L12.6653 17.5428L12.5916 17.6758L12.4597 17.9135C12.5948 17.9678 12.6488 17.9903 12.7983 18.0492C12.8536 17.9583 12.872 17.9268 12.9551 17.7846L13.013 17.685Z" fill="#00ACEA"/>
<path d="M6.82412 12.0941L6.78459 12.1989C6.7245 12.3579 6.71195 12.3907 6.67349 12.496C6.72157 12.5283 6.75228 12.5503 6.79367 12.5775C6.82038 12.5042 6.83961 12.4575 6.89195 12.3251L6.95044 12.1766L7.08397 12.2594C7.16275 12.308 7.19667 12.3289 7.23833 12.3533C7.29442 12.2176 7.31845 12.1633 7.38041 12.0186C7.32326 11.9866 7.29175 11.9698 7.19347 11.9163L7.08344 11.8564L7.13471 11.7407C7.20361 11.5858 7.22017 11.5486 7.26584 11.449C7.21109 11.4218 7.17718 11.4034 7.1291 11.3784C7.09118 11.462 7.07302 11.503 7.00919 11.6479L6.9491 11.785L6.82091 11.7103L6.72317 11.6533C6.67563 11.7681 6.65453 11.82 6.60246 11.9519C6.6353 11.9739 6.66254 11.991 6.72931 12.0333L6.82412 12.0941Z" fill="#00ACEA"/>
<path d="M7.31773 14.9372L7.28755 15.0325C7.23921 15.1855 7.22986 15.2157 7.19915 15.3207C7.29743 15.3915 7.34123 15.4227 7.42188 15.4795C7.44058 15.4222 7.45687 15.3739 7.49479 15.2602L7.5498 15.0954L7.69348 15.1896C7.80592 15.2634 7.84598 15.2895 7.90714 15.3294C7.9504 15.2119 7.97096 15.1562 8.02411 15.0148C7.92583 14.9548 7.89592 14.9361 7.75331 14.8476L7.6601 14.7887L7.69989 14.6832C7.76292 14.5163 7.77574 14.4826 7.81954 14.3675C7.70657 14.2989 7.6593 14.2693 7.56663 14.2109C7.53992 14.2883 7.5223 14.3344 7.47369 14.4726L7.41681 14.6335L7.27526 14.5407C7.18874 14.4834 7.14868 14.4571 7.10595 14.4281C7.07176 14.5334 7.05494 14.5874 7.01488 14.7182C7.09233 14.7763 7.1177 14.7942 7.23788 14.881L7.31773 14.9372Z" fill="#00ACEA"/>
<path d="M8.90419 15.679L8.86252 15.7876C8.80324 15.9417 8.78935 15.9775 8.75223 16.0742C8.89244 16.1556 8.94318 16.186 9.07537 16.262C9.10609 16.1871 9.12398 16.1434 9.17953 16.0071L9.23641 15.8676L9.36701 15.9398C9.5219 16.0256 9.5617 16.0484 9.65864 16.1008C9.71579 15.9667 9.73876 15.9108 9.80446 15.7675C9.68989 15.7061 9.65463 15.6861 9.48612 15.5959L9.37635 15.5368L9.42656 15.4214C9.49947 15.2534 9.51549 15.2165 9.5649 15.1053C9.41134 15.0238 9.35739 14.9929 9.21478 14.9153C9.17499 15.0116 9.15736 15.0537 9.09167 15.2084L9.03318 15.3473L8.90339 15.273C8.76211 15.1916 8.72018 15.168 8.63899 15.1207C8.58852 15.251 8.56795 15.3056 8.51481 15.4478C8.61736 15.5088 8.64834 15.5292 8.80617 15.6223L8.90419 15.679Z" fill="#00ACEA"/>
<path d="M10.4839 18.2314L10.548 18.1047C10.6054 17.991 10.6241 17.9541 10.658 17.8876C10.509 17.8165 10.454 17.7899 10.3041 17.7163C10.2713 17.7863 10.2537 17.8227 10.1973 17.9405L10.1378 18.0626L10.0178 18.0015C9.86561 17.9242 9.82555 17.9038 9.73422 17.8564L9.64716 18.0577C9.74357 18.1082 9.77909 18.1264 9.93051 18.2037L10.0478 18.2634L9.99087 18.3837C9.95054 18.4692 9.93372 18.5045 9.91395 18.5465C10.0507 18.6138 10.1009 18.6388 10.2384 18.7028C10.2617 18.6581 10.2798 18.6239 10.3266 18.5362L10.3856 18.4257L10.4986 18.477C10.6559 18.5487 10.6914 18.565 10.7923 18.6098C10.8348 18.5343 10.8572 18.4936 10.8978 18.4198C10.8051 18.3783 10.7643 18.3593 10.6123 18.2895L10.4839 18.2314Z" fill="#00ACEA"/>
<path d="M15.6907 16.5837L15.8005 16.6307C15.9241 16.685 15.9583 16.6983 16.0318 16.727C16.1087 16.5843 16.1364 16.5324 16.2091 16.3943C16.1501 16.3672 16.11 16.3498 15.9989 16.2988L15.871 16.2402L15.9351 16.1131C16.0152 15.9549 16.0344 15.9164 16.0846 15.8146C15.9778 15.7628 15.9308 15.7391 15.8176 15.6843C15.7642 15.7956 15.7441 15.8333 15.6595 16.0024L15.6015 16.1183L15.4848 16.064C15.3395 15.9964 15.3043 15.9802 15.21 15.937C15.1299 16.0963 15.1008 16.1514 15.0231 16.3004C15.1056 16.3354 15.1456 16.3531 15.2829 16.4125L15.4189 16.4717L15.3475 16.603C15.2674 16.7528 15.2429 16.7957 15.1956 16.8823C15.3024 16.9246 15.3513 16.9444 15.4648 16.9887C15.5227 16.8847 15.5417 16.8505 15.6314 16.6901L15.6907 16.5837Z" fill="#00ACEA"/>
<path d="M17.3278 12.5864L17.3377 12.5151C17.3542 12.3948 17.3574 12.3715 17.3665 12.292C17.304 12.2347 17.2674 12.2016 17.2274 12.1658L17.2151 12.2309L17.1745 12.448L17.0022 12.3123C16.9349 12.2594 16.8986 12.2309 16.8642 12.2038C16.8516 12.2537 16.8401 12.2985 16.8204 12.3739C16.9133 12.4418 16.9368 12.46 17.0661 12.5579L17.1376 12.6122L17.1141 12.7026C17.0789 12.8421 17.0719 12.8695 17.0463 12.9688C17.131 13.0321 17.1742 13.0652 17.23 13.1081C17.2375 13.0728 17.2458 13.0321 17.2597 12.9653L17.3051 12.7449L17.4755 12.8888C17.5099 12.9175 17.5356 12.9393 17.5569 12.9574C17.562 12.9186 17.5671 12.8782 17.5745 12.8182C17.5011 12.7482 17.4843 12.7327 17.3791 12.6358L17.3278 12.5864Z" fill="#00ACEA"/>
<path d="M10.8419 11.4001L10.7271 11.3458C10.5604 11.2687 10.5236 11.2519 10.4149 11.203C10.331 11.3659 10.303 11.4218 10.2223 11.583C10.3225 11.6302 10.3625 11.6495 10.5241 11.7266L10.6478 11.7857L10.5869 11.91C10.5003 12.0864 10.48 12.1252 10.4248 12.2417C10.5818 12.319 10.6368 12.3459 10.7987 12.4246C10.8569 12.3038 10.8758 12.2653 10.9637 12.0843L11.0219 11.9646L11.141 12.0221C11.3176 12.1076 11.3547 12.1258 11.4735 12.1828C11.5576 12.0107 11.5854 11.9543 11.6677 11.7865C11.555 11.7323 11.5157 11.7141 11.3427 11.6324L11.2174 11.5732L11.2799 11.4478C11.3646 11.2782 11.3846 11.2375 11.4401 11.1303C11.2842 11.0581 11.2292 11.0331 11.0692 10.9609C11.0096 11.0755 10.9907 11.1121 10.9012 11.2866L10.8419 11.4001Z" fill="#00ACEA"/>
<path d="M10.0905 13.9305L10.2142 13.994C10.3845 14.0819 10.423 14.1026 10.5346 14.1587C10.6134 13.9894 10.6401 13.9324 10.7216 13.7595C10.6046 13.7012 10.5669 13.6822 10.392 13.594L10.2745 13.5348L10.3306 13.4143C10.4163 13.2308 10.4345 13.1915 10.4908 13.0707C10.3306 12.9909 10.2745 12.9635 10.1169 12.8845C10.0614 13.0026 10.043 13.0419 9.96017 13.2202L9.90356 13.3462L9.78151 13.2837C9.62127 13.2023 9.58201 13.182 9.48373 13.1312C9.40949 13.2941 9.38412 13.3511 9.30961 13.5185C9.4143 13.5728 9.45088 13.5934 9.61379 13.6813L9.72489 13.7413L9.67148 13.8575C9.59136 14.0339 9.5756 14.0708 9.52379 14.1891L9.88513 14.3826C9.934 14.2741 9.95296 14.2317 10.0315 14.0583L10.0905 13.9305Z" fill="#00ACEA"/>
<path d="M10.3273 9.10627L10.4653 8.94344L10.5153 8.88454C10.4562 8.87151 10.4068 8.8612 10.3158 8.84302C10.2608 8.90001 10.2442 8.91765 10.1619 9.00586L10.1115 9.06014L10.0391 9.04575C9.89648 9.01861 9.87405 9.01318 9.76803 8.99609C9.7253 9.04277 9.69725 9.07316 9.66921 9.10465L9.79366 9.13179L10.0057 9.17982L9.86764 9.35053C9.82144 9.40753 9.79446 9.44091 9.7707 9.47076C9.84547 9.49193 9.89862 9.5074 10.007 9.5397C10.0677 9.45828 10.085 9.43412 10.1713 9.31796L10.2268 9.24333L10.315 9.27047C10.4704 9.31606 10.4998 9.32475 10.6087 9.35895C10.6555 9.29381 10.683 9.25609 10.7156 9.21239L10.5332 9.16218L10.3273 9.10627Z" fill="#00ACEA"/>
<path d="M13.1787 12.7466L13.0684 12.6869L13.1197 12.5713C13.1977 12.3943 13.214 12.3574 13.2653 12.2388C13.1144 12.1574 13.0612 12.1289 12.913 12.0488C12.8652 12.1574 12.8462 12.1995 12.7691 12.3718L12.7111 12.5007L12.2715 12.273L12.087 12.6717C12.2024 12.7303 12.2397 12.749 12.4125 12.8345L12.5306 12.8937L12.4742 13.0145C12.3893 13.1963 12.3711 13.2351 12.314 13.3564C12.4716 13.4354 12.5258 13.4625 12.6788 13.5383C12.7335 13.4213 12.7517 13.3822 12.8337 13.2055L12.8916 13.0807L13.0134 13.142C13.1697 13.2202 13.2097 13.2403 13.3048 13.2897C13.3777 13.1268 13.4028 13.0709 13.476 12.9062L13.1787 12.7466Z" fill="#00ACEA"/>
<path d="M14.943 13.9106L15.0647 13.9717C15.221 14.0498 15.261 14.0699 15.3558 14.1193C15.429 13.9565 15.4541 13.9006 15.5273 13.7358C15.4253 13.6802 15.3892 13.6609 15.2295 13.573L15.1195 13.5135L15.1705 13.3977C15.2487 13.221 15.265 13.1838 15.316 13.0655L14.9641 12.8755C14.916 12.984 14.8973 13.0261 14.8198 13.1985L14.7622 13.3274L14.3223 13.0997L14.1378 13.4986C14.2534 13.557 14.2905 13.5757 14.4636 13.6615L14.5816 13.7206L14.5253 13.8414C14.4403 14.0235 14.4222 14.0623 14.365 14.1834C14.5223 14.2623 14.5768 14.2895 14.7298 14.3652C14.7833 14.2482 14.8028 14.2091 14.8847 14.0327L14.943 13.9106Z" fill="#00ACEA"/>
<path d="M12.0561 15.0145L12.1704 15.0669C12.3335 15.1418 12.3704 15.1589 12.4759 15.2059C12.5595 15.043 12.5872 14.9888 12.6671 14.83C12.5712 14.7841 12.5309 14.7654 12.3733 14.691L12.2483 14.6324L12.31 14.5073C12.3966 14.3317 12.4169 14.2923 12.4703 14.1781L12.1039 13.9995C12.0464 14.1187 12.0275 14.1572 11.9396 14.3374L11.8819 14.456L11.7636 14.4001C11.5882 14.3168 11.55 14.2989 11.4333 14.2427C11.3502 14.4134 11.3222 14.4701 11.2394 14.6368L11.5598 14.7874L11.6862 14.8468L11.4634 15.2868C11.6154 15.3565 11.6701 15.3809 11.8277 15.4496C11.8865 15.3361 11.9054 15.2998 11.996 15.1264L12.0561 15.0145Z" fill="#00ACEA"/>
<path d="M13.037 8.20151L13.2018 7.93961C13.092 7.89836 13.0391 7.87936 12.9061 7.83105C12.8695 7.88371 12.8498 7.91085 12.7827 8.00421L12.7248 8.08563L12.6321 8.0536C12.4719 7.99932 12.4412 7.98765 12.3349 7.95183C12.2852 8.02076 12.2588 8.05794 12.22 8.11467L12.4564 8.20043L12.614 8.25796L12.5237 8.40126C12.466 8.49354 12.4422 8.53126 12.4115 8.58011C12.5381 8.62978 12.5937 8.65231 12.7398 8.71201C12.7862 8.63412 12.8038 8.60345 12.8746 8.4835L12.9334 8.38335L13.0402 8.42759C13.2036 8.49571 13.2386 8.51037 13.3473 8.55677C13.3922 8.47698 13.4152 8.43573 13.452 8.36978C13.3719 8.33667 13.3292 8.3193 13.1882 8.26285L13.037 8.20151Z" fill="#00ACEA"/>
<path d="M15.9018 11.6566L15.9261 11.5627C15.9552 11.4493 15.9635 11.4178 15.9809 11.354C15.865 11.2759 15.818 11.2455 15.7231 11.1836C15.713 11.2153 15.7018 11.2528 15.6826 11.316L15.6321 11.4813L15.4863 11.392C15.3605 11.3152 15.3199 11.2905 15.248 11.2476C15.2213 11.3166 15.2058 11.3614 15.1735 11.4477C15.278 11.5079 15.3097 11.5269 15.4633 11.6184L15.5613 11.6767L15.5202 11.7853C15.471 11.9145 15.4585 11.9481 15.4272 12.0295C15.5608 12.1091 15.6112 12.1405 15.721 12.2095C15.7381 12.1552 15.7525 12.1131 15.7862 12.0124L15.8415 11.8472L15.9854 11.9427C16.0904 12.0122 16.1342 12.0412 16.187 12.0768C16.2044 12.0127 16.2164 11.9682 16.2378 11.8868C16.1422 11.8192 16.1171 11.8027 15.9803 11.7109L15.9018 11.6566Z" fill="#00ACEA"/>
<path d="M11.1669 16.8706L11.2839 16.9249C11.4556 17.0063 11.4922 17.0231 11.6075 17.076C11.677 16.9403 11.704 16.886 11.7745 16.7503C11.6647 16.6991 11.6246 16.6801 11.4553 16.5994L11.3317 16.5403L11.3926 16.416C11.4727 16.2548 11.4906 16.2162 11.5413 16.112C11.3739 16.0306 11.3178 16.0035 11.1493 15.9204C11.0988 16.0263 11.0809 16.0648 11.0051 16.2284L10.9471 16.3536L10.8253 16.2922C10.6536 16.2062 10.6141 16.1864 10.5048 16.1294C10.4405 16.2702 10.4162 16.324 10.3529 16.4638C10.4645 16.521 10.5016 16.5397 10.6718 16.6266L10.7898 16.686L10.7313 16.8076C10.6632 16.9523 10.6448 16.9916 10.6037 17.0768C10.7612 17.1545 10.8157 17.1808 10.9741 17.2568C11.0173 17.1702 11.036 17.1322 11.1076 16.9878L11.1669 16.8706Z" fill="#00ACEA"/>
<path d="M13.7778 19.2919L13.6756 19.2536C13.5239 19.1972 13.4915 19.1849 13.3882 19.1451C13.3129 19.2721 13.2814 19.3228 13.2175 19.4273L13.4453 19.5066L13.6091 19.5638L13.5129 19.7101C13.4496 19.8067 13.4216 19.8493 13.3898 19.8974C13.4755 19.9245 13.526 19.9378 13.636 19.9685C13.7009 19.8781 13.718 19.8531 13.8093 19.7196L13.8644 19.6382L13.9568 19.6653C14.0903 19.7055 14.1202 19.7142 14.2073 19.7381C14.2834 19.6271 14.3141 19.5806 14.3755 19.4897L14.2003 19.4354L14.0334 19.3831L14.1272 19.2333C14.2027 19.1122 14.2286 19.0704 14.2692 19.0039L14.008 18.9065C13.9477 19.011 13.9279 19.0422 13.8353 19.1963L13.7778 19.2919Z" fill="#00ACEA"/>
<path d="M17.1411 16.8057L17.2116 16.67C17.2829 16.5327 17.3027 16.4945 17.3451 16.4119C17.3043 16.3919 17.2733 16.3772 17.2268 16.3552C17.1793 16.4505 17.1603 16.4874 17.0829 16.638L17.0263 16.7482L16.9133 16.7004C16.8166 16.6595 16.784 16.6462 16.729 16.6215C16.6564 16.7588 16.6283 16.8114 16.561 16.9347C16.6006 16.9507 16.6366 16.9642 16.7143 16.9936L16.8623 17.0497L16.7822 17.1887C16.7149 17.307 16.6903 17.3515 16.6521 17.4145C16.6914 17.4264 16.7231 17.4365 16.7691 17.4514C16.8268 17.3561 16.8444 17.3263 16.9293 17.18L16.9867 17.0831L17.0909 17.1227C17.1547 17.1472 17.1822 17.1577 17.2143 17.1681C17.2834 17.047 17.3104 16.9993 17.3681 16.8934C17.3467 16.8847 17.3206 16.8747 17.281 16.8595L17.1411 16.8057Z" fill="#00ACEA"/>
<path d="M14.8442 18.022L14.9379 17.8719C15.0135 17.7511 15.0394 17.7091 15.08 17.6428L14.8188 17.5454C14.7585 17.6499 14.7387 17.6811 14.646 17.835L14.5886 17.9294L14.4863 17.8912C14.3346 17.8347 14.3023 17.8225 14.199 17.7826C14.1237 17.9094 14.0921 17.9604 14.0283 18.0646L14.2561 18.1441L14.4198 18.2011L14.3237 18.3477C14.2604 18.4443 14.2323 18.4869 14.2006 18.5349C14.2863 18.5607 14.3368 18.5754 14.4468 18.606C14.5117 18.5157 14.5288 18.4904 14.6201 18.3572L14.6751 18.2757L14.7675 18.3029C14.9011 18.343 14.931 18.3517 15.018 18.3756C15.0942 18.2643 15.1249 18.2182 15.1863 18.1273C15.1436 18.1132 15.0995 18.1001 15.0111 18.073L14.8442 18.022Z" fill="#00ACEA"/>
<path d="M16.219 18.4261L16.2895 18.2904C16.3611 18.1531 16.3809 18.1148 16.4231 18.0323C16.3822 18.0122 16.3512 17.9973 16.3048 17.9756C16.2575 18.0708 16.2385 18.1078 16.1608 18.2584L16.1042 18.3686L15.9904 18.3205C15.8938 18.2796 15.8612 18.2663 15.8062 18.2416C15.7335 18.3789 15.7055 18.4315 15.6382 18.5548C15.678 18.5708 15.7138 18.5843 15.7915 18.6136L15.9397 18.6698L15.8596 18.8088C15.7923 18.9268 15.7677 18.97 15.7298 19.0346C15.769 19.0465 15.8006 19.0566 15.8465 19.0712C15.9042 18.9762 15.9218 18.9464 16.0067 18.7998L16.0639 18.7029L16.168 18.7426C16.2319 18.767 16.2594 18.7776 16.2917 18.7879C16.3608 18.6668 16.3876 18.6191 16.4452 18.513L16.3582 18.4793L16.219 18.4261Z" fill="#00ACEA"/>
<path d="M18.5875 15.6001L18.5074 15.5363L18.5017 15.532C18.4668 15.6226 18.4459 15.6742 18.4005 15.786L18.463 15.8278L18.4956 15.8498L18.4993 15.8411L18.5763 15.8973C18.6046 15.8243 18.6217 15.7773 18.6585 15.675L18.6452 15.6612L18.5875 15.6001Z" fill="#00ACEA"/>
<path d="M18.0116 15.1778L17.923 15.1181L17.9612 15.0168C18.0197 14.8619 18.0311 14.8312 18.0696 14.7243C18.0295 14.6952 18.0023 14.676 17.9686 14.6523C17.9419 14.7218 17.9243 14.769 17.8744 14.899L17.8167 15.0491L17.681 14.9658L17.5397 14.8792C17.4863 15.0103 17.4628 15.0651 17.4022 15.2049C17.4537 15.2345 17.4842 15.2502 17.5747 15.2975L17.6877 15.3561L17.6359 15.4739C17.5673 15.6288 17.5504 15.6668 17.5064 15.7637L17.6231 15.8248C17.6602 15.7434 17.6765 15.7027 17.739 15.5626L17.7972 15.4291L17.924 15.498L18.0108 15.5458C18.057 15.4337 18.0773 15.3829 18.1267 15.2551L18.0116 15.1778Z" fill="#00ACEA"/>
<path d="M17.7939 10.9565L17.8037 10.8852C17.8203 10.7652 17.8235 10.7419 17.8326 10.6623C17.7701 10.6051 17.7335 10.5717 17.6934 10.5361L17.6811 10.601L17.6406 10.8181L17.4683 10.6824L17.3302 10.5739C17.3177 10.6241 17.3062 10.6686 17.2864 10.7443C17.3794 10.8121 17.4031 10.8301 17.5321 10.9283L17.6037 10.9826L17.5815 11.0705C17.5463 11.21 17.5393 11.2374 17.5137 11.3368C17.5984 11.4003 17.6416 11.4331 17.6974 11.4763C17.7049 11.441 17.7135 11.4 17.7271 11.3332L17.7725 11.1131L17.9429 11.2567C17.9773 11.2855 18.003 11.3072 18.0243 11.3254C18.0297 11.2868 18.0347 11.2464 18.042 11.1864C17.9685 11.1161 17.9517 11.1006 17.8465 11.004L17.7939 10.9565Z" fill="#00ACEA"/>
<path d="M12.2269 18.9652L12.4301 18.6463C12.3092 18.6002 12.2536 18.5785 12.1097 18.5217C12.0635 18.6002 12.0453 18.6303 11.9716 18.7505L11.9128 18.8466L11.8092 18.8053C11.6436 18.7391 11.6092 18.7255 11.4981 18.6794C11.4516 18.7587 11.4279 18.7994 11.3913 18.8631C11.4671 18.8935 11.5115 18.9106 11.6487 18.9638L11.8031 19.0233L11.7134 19.1644C11.6778 19.2187 11.6567 19.2534 11.638 19.2819C11.7449 19.3199 11.7983 19.3384 11.9283 19.3823C11.9684 19.3297 11.9858 19.3044 12.0501 19.2124L12.1067 19.131L12.2002 19.162C12.3604 19.2141 12.3901 19.2241 12.4972 19.2583C12.5469 19.1907 12.5738 19.1538 12.6126 19.1004C12.5527 19.08 12.5044 19.0629 12.3882 19.0219L12.2269 18.9652Z" fill="#00ACEA"/>
<path d="M18.4669 13.3901L18.4829 13.3188C18.516 13.1711 18.5208 13.1489 18.5427 13.0376L18.4893 12.9792C18.481 13.0137 18.4709 13.055 18.4554 13.1166L18.4025 13.3269L18.2393 13.1882L18.1557 13.1177C18.132 13.1991 18.1151 13.2561 18.0791 13.3749C18.1416 13.4238 18.1637 13.4409 18.2569 13.5125L18.332 13.5704L18.3037 13.6618C18.2543 13.8206 18.2452 13.8496 18.2086 13.9652C18.2449 13.9924 18.2708 14.0116 18.2959 14.0309C18.3106 13.9815 18.3242 13.9343 18.3523 13.8363L18.4124 13.6276L18.5705 13.7742C18.5764 13.7793 18.5817 13.7845 18.5868 13.7894C18.6025 13.7242 18.6135 13.6724 18.637 13.5723C18.5983 13.5299 18.582 13.5125 18.5155 13.4423L18.4669 13.3901Z" fill="#00ACEA"/>
<path d="M18.7865 11.8206L18.8026 11.7495C18.8357 11.6015 18.8408 11.5793 18.8624 11.468C18.8408 11.4447 18.8237 11.4262 18.809 11.4097C18.8007 11.4441 18.7906 11.4854 18.7753 11.547L18.7233 11.7568L18.559 11.617L18.4762 11.5481C18.4522 11.6309 18.4354 11.6865 18.3996 11.8054C18.4618 11.8542 18.484 11.8713 18.5772 11.943L18.6525 12.0008L18.6239 12.0922C18.5745 12.251 18.5654 12.2803 18.5288 12.3957C18.5654 12.4228 18.5911 12.4421 18.6164 12.4613C18.6309 12.4119 18.6445 12.3647 18.6725 12.2667L18.7326 12.058L18.8907 12.2046L18.907 12.2198C18.9228 12.1547 18.9337 12.1028 18.9572 12.0027C18.9185 11.9603 18.9022 11.943 18.836 11.8727L18.7865 11.8206Z" fill="#00ACEA"/>
</g>
<path d="M20.1591 11.9851C19.8427 10.3054 19.0333 8.76229 17.8375 7.5589C17.7369 7.45757 17.6337 7.35906 17.5279 7.26334C17.6425 5.93593 16.7999 3.43256 14.7484 2.51984C12.4353 1.49043 9.22896 1.94991 7.731 4.25679C7.25216 4.99391 6.93863 5.83714 6.88682 6.91649C6.80322 6.98272 6.72043 7.05057 6.63978 7.12004C5.54259 8.06304 4.70515 9.2794 4.20943 10.6501C3.71372 12.0207 3.57672 13.4987 3.81185 14.9393L5.00909 12.504L4.95568 11.8353C4.82828 11.7947 4.71903 11.7098 4.64715 11.5955C4.57527 11.4812 4.54536 11.3447 4.56267 11.2102C4.57999 11.0757 4.64342 10.9516 4.74182 10.8599C4.84022 10.7682 4.96729 10.7147 5.10067 10.7088C5.23406 10.7029 5.36522 10.745 5.4711 10.8276C5.57698 10.9103 5.65079 11.0282 5.67957 11.1607C5.70834 11.2932 5.69022 11.4318 5.62841 11.552C5.56659 11.6723 5.46503 11.7665 5.34159 11.8182C5.3195 11.8274 5.29684 11.8351 5.27375 11.8413L5.33064 12.5646L3.92161 15.4911C4.56977 18.2737 6.59224 20.6571 9.46104 21.5945C10.2803 21.8629 11.1358 21.9997 11.9965 22C12.0905 22 12.1835 21.9981 12.2783 21.9948L12.5862 20.1808L12.6193 20.1773C11.6055 20.2729 10.5838 20.1275 9.63484 19.7526C8.68589 19.3777 7.83578 18.7836 7.15174 18.0172L7.19287 18.4669L7.60708 18.9899C7.73491 18.9507 7.87223 18.9586 7.99491 19.0122C8.11758 19.0657 8.21775 19.1615 8.27781 19.2827C8.33786 19.4038 8.35395 19.5427 8.32325 19.6747C8.29255 19.8067 8.21702 19.9236 8.10995 20.0046C8.00287 20.0856 7.87111 20.1257 7.73783 20.1178C7.60454 20.1099 7.47827 20.0545 7.38122 19.9613C7.28417 19.8681 7.22255 19.7432 7.2072 19.6084C7.19185 19.4736 7.22375 19.3376 7.29729 19.2244C7.31053 19.2042 7.32507 19.1849 7.34082 19.1666L6.89376 18.6007H6.89216L6.74581 17.5094C6.53652 17.2203 6.35032 16.9147 6.18898 16.5954C5.58859 15.407 5.3548 14.0622 5.51812 12.7367C5.68144 11.4112 6.23429 10.1666 7.10447 9.1653C7.45165 8.78534 8.0926 8.25612 8.09074 8.24255C8.22427 8.14186 8.35593 8.04795 8.48652 7.96328C8.88044 7.70832 9.29985 7.49653 9.73771 7.33146C10.8612 6.91 12.0769 6.8101 13.2524 7.04264C14.4279 7.27518 15.518 7.83124 16.4039 8.65019C17.0154 9.21545 17.5149 9.89427 17.8757 10.6501L18.076 9.92902L17.9042 9.28146C17.7716 9.26525 17.6489 9.20204 17.5576 9.10294C17.4663 9.00384 17.4123 8.8752 17.4051 8.73965C17.3979 8.60409 17.438 8.4703 17.5182 8.3618C17.5985 8.25331 17.7139 8.17705 17.844 8.14645C17.9742 8.11585 18.1108 8.13286 18.2298 8.1945C18.3488 8.25613 18.4427 8.35844 18.4948 8.48343C18.5469 8.60842 18.554 8.74808 18.5148 8.87786C18.4756 9.00764 18.3927 9.11922 18.2805 9.19298C18.2605 9.2061 18.2396 9.21789 18.218 9.22827L18.405 9.92902H18.4063L18.076 11.1096C18.4056 11.9553 18.561 12.8608 18.5325 13.77C18.5041 14.6792 18.2923 15.5728 17.9104 16.3955C17.5285 17.2182 16.9845 17.9525 16.3121 18.553C15.6397 19.1535 14.8533 19.6074 14.0014 19.8866L14.0649 19.8657L13.7143 21.816C16.5318 21.2072 18.9629 19.1253 19.9061 16.1438C20.3307 14.8007 20.4177 13.3711 20.1591 11.9851ZM14.5433 5.52938C13.3361 5.13153 12.0547 5.02294 10.7993 5.21211C9.93671 5.34111 9.09952 5.60746 8.31854 6.00134C8.32388 5.98668 8.32869 5.97203 8.33403 5.95765C8.78109 4.75698 9.80501 4.06247 10.1594 3.84427C10.1989 3.81984 10.2395 3.7965 10.2825 3.77343L9.85896 3.71915C9.81697 3.79383 9.75044 3.85109 9.67104 3.88087C9.59164 3.91065 9.50445 3.91105 9.42479 3.882C9.34513 3.85295 9.27809 3.79631 9.23544 3.72202C9.19279 3.64773 9.17726 3.56054 9.19157 3.47577C9.20589 3.391 9.24913 3.31407 9.31372 3.25848C9.3783 3.2029 9.46009 3.17221 9.54473 3.17181C9.62936 3.17142 9.71143 3.20133 9.77651 3.25631C9.8416 3.31129 9.88554 3.38782 9.90062 3.47245C9.90293 3.48754 9.90418 3.50278 9.90436 3.51805L10.6164 3.61711C11.5716 3.23226 12.9398 3.15573 13.9477 3.60788C14.5043 3.85702 14.9235 4.14579 15.2389 4.44921L14.97 3.787C14.9152 3.79887 14.8585 3.79729 14.8044 3.78239C14.7354 3.76331 14.6734 3.72384 14.6264 3.66898C14.5794 3.61412 14.5495 3.54633 14.5404 3.47419C14.5313 3.40204 14.5435 3.32878 14.5754 3.26366C14.6073 3.19855 14.6575 3.14451 14.7196 3.10837C14.7817 3.07224 14.853 3.05563 14.9244 3.06066C14.9958 3.06568 15.0641 3.09211 15.1207 3.1366C15.1773 3.18109 15.2197 3.24164 15.2425 3.3106C15.2652 3.37956 15.2673 3.45383 15.2486 3.52402C15.2441 3.53867 15.2386 3.55299 15.2323 3.5669C15.2128 3.61555 15.1831 3.65928 15.1452 3.695L15.6118 4.87477C15.9055 5.27431 16.087 5.74732 16.1371 6.24343C15.6318 5.94942 15.0976 5.71009 14.5433 5.52938Z" fill="#00ACEA"/>
<path d="M13.9019 19.9185C13.7107 19.9778 13.5178 20.0282 13.3232 20.0696C13.3619 20.0615 13.391 20.055 13.4274 20.0468L13.089 21.9257C13.2384 21.9056 13.3866 21.8813 13.5337 21.8527L13.883 19.9258L13.9019 19.9185Z" fill="#00ACEA"/>
<path d="M13.319 20.0703C13.1203 20.1123 12.9203 20.1445 12.7189 20.1669L12.7611 20.1623L12.4447 21.9872C12.601 21.9787 12.7566 21.9656 12.9115 21.9478L13.2467 20.0847L13.319 20.0703Z" fill="#00ACEA"/>
<path d="M8.17759 16.7991H8.80439V16.1445H9.23837V17.841H8.80439V17.1414H8.17759V17.841H7.74361V16.1445H8.17759V16.7991Z" fill="#00ACEA"/>
<path d="M10.5381 16.518H10.0221V16.8008H10.5092V17.1742H10.0221V17.4668H10.5381V17.8402H9.58813V16.1445H10.5381V16.518Z" fill="#00ACEA"/>
<path d="M11.8735 17.5463H11.2533L11.1537 17.841H10.6909L11.3265 16.1445H11.7997L12.4354 17.841H11.9731L11.8735 17.5463ZM11.7581 17.2111L11.5634 16.6463L11.3684 17.2111H11.7581Z" fill="#00ACEA"/>
<path d="M13.0603 16.1445V17.4676H13.5806V17.841H12.6277V16.1445H13.0603Z" fill="#00ACEA"/>
<path d="M14.3488 16.518V17.841H13.9148V16.518H13.5583V16.1445H14.7053V16.518H14.3488Z" fill="#00ACEA"/>
<path d="M15.3321 16.7991H15.9587V16.1445H16.3932V17.841H15.9587V17.1414H15.3321V17.841H14.8976V16.1445H15.3316L15.3321 16.7991Z" fill="#00ACEA"/>
<path d="M8.1653 14.7523L8.65162 14.1094H9.14382L8.53571 14.8468L9.2007 15.6675H8.6842L8.1653 14.9914V15.6675H7.76711V14.1094H8.16556L8.1653 14.7523Z" fill="#00ACEA"/>
<path d="M9.31843 14.2002C9.31823 14.1722 9.32378 14.1445 9.33472 14.1188C9.34517 14.0937 9.36042 14.0709 9.37958 14.0518C9.39856 14.0325 9.42094 14.017 9.44555 14.0062C9.47091 13.9953 9.49815 13.9897 9.52567 13.9897C9.55318 13.9897 9.58042 13.9953 9.60578 14.0062C9.65543 14.0281 9.69505 14.0684 9.71662 14.1188C9.7273 14.1446 9.7328 14.1723 9.7328 14.2002C9.7328 14.2282 9.7273 14.2559 9.71662 14.2817C9.70594 14.3067 9.69071 14.3294 9.67175 14.3487C9.65287 14.3681 9.63046 14.3836 9.60578 14.3943C9.58042 14.4051 9.55318 14.4107 9.52567 14.4107C9.49815 14.4107 9.47091 14.4051 9.44555 14.3943C9.42087 14.3836 9.39847 14.3681 9.37958 14.3487C9.36042 14.3296 9.34517 14.3068 9.33472 14.2817C9.32378 14.256 9.31823 14.2282 9.31843 14.2002ZM9.71101 14.6073V15.668H9.34246V14.6073H9.71101Z" fill="#00ACEA"/>
<path d="M10.3308 13.9509V15.6667H9.96335V13.9509H10.3308Z" fill="#00ACEA"/>
<path d="M10.5443 15.1283C10.5437 15.0523 10.5596 14.9772 10.591 14.9082C10.6219 14.8404 10.6663 14.7799 10.7214 14.7305C10.7795 14.6785 10.8467 14.6382 10.9195 14.6116C11.0001 14.5819 11.0852 14.5672 11.1708 14.5682C11.2557 14.5674 11.34 14.5817 11.42 14.6105C11.4932 14.6367 11.5609 14.6767 11.6195 14.7283C11.6753 14.7781 11.72 14.8395 11.7506 14.9082C11.7824 14.9807 11.7984 15.0593 11.7974 15.1386C11.7983 15.2161 11.7828 15.2928 11.752 15.3637C11.7211 15.4345 11.6755 15.4977 11.6184 15.549C11.5599 15.601 11.4918 15.6406 11.4181 15.6657C11.3366 15.6939 11.2509 15.708 11.1647 15.7072C11.0802 15.7081 10.9963 15.694 10.9166 15.6657C10.844 15.6402 10.7773 15.6002 10.7203 15.5479C10.6652 15.4967 10.6211 15.4344 10.591 15.365C10.5591 15.2904 10.5431 15.2097 10.5443 15.1283ZM10.9329 15.1324C10.9325 15.1662 10.939 15.1996 10.9521 15.2306C10.9644 15.2594 10.9817 15.2857 11.0031 15.3083C11.0244 15.3305 11.0501 15.3481 11.0784 15.3598C11.1077 15.3723 11.1392 15.3787 11.171 15.3787C11.2027 15.3787 11.2342 15.3723 11.2635 15.3598C11.2917 15.348 11.3173 15.3305 11.3385 15.3083C11.3599 15.2857 11.3772 15.2594 11.3896 15.2306C11.4025 15.2003 11.4091 15.1676 11.4088 15.1346C11.4089 15.1022 11.4024 15.0701 11.3896 15.0404C11.3773 15.0117 11.36 14.9855 11.3385 14.963C11.3173 14.9407 11.2918 14.923 11.2635 14.9112C11.2042 14.8866 11.1377 14.8866 11.0784 14.9112C11.05 14.9229 11.0244 14.9406 11.0031 14.963C10.9819 14.9852 10.9646 15.0111 10.9521 15.0393C10.9388 15.0685 10.9318 15.1002 10.9315 15.1324H10.9329Z" fill="#00ACEA"/>
<path d="M13.543 12.0195C13.4434 12.0678 13.3165 12.111 13.1937 12.101C13.2066 12.117 13.2182 12.1341 13.2284 12.152C13.2537 12.1996 13.2717 12.2508 13.2818 12.304C13.2963 12.2698 13.3175 12.2389 13.344 12.2132C13.3705 12.1875 13.4019 12.1675 13.4362 12.1544C13.5804 12.1023 13.6445 12.2057 13.6445 12.2057C13.6445 12.2057 13.6779 11.9235 13.9527 11.9107C14.0964 11.9039 14.205 12.0217 14.2566 12.1639C14.2838 12.2407 14.2951 12.3223 14.2898 12.4037C14.2845 12.4851 14.2627 12.5645 14.2259 12.637C14.2259 12.637 14.4045 12.5105 14.3805 12.225C14.3458 11.8097 13.9855 11.7066 13.9286 11.8035C13.9334 11.8003 13.9387 11.7982 13.9443 11.7971C13.9499 11.7961 13.9556 11.7963 13.9611 11.7976C13.9667 11.7989 13.9719 11.8014 13.9764 11.8048C13.981 11.8083 13.9848 11.8126 13.9877 11.8176C14.0082 11.8597 13.9399 11.9262 13.8592 11.87C13.8247 11.8458 13.8007 11.7913 13.793 11.7278C13.7625 11.8467 13.6632 11.9609 13.543 12.0195Z" fill="#00ACEA"/>
<path d="M16.7202 10.7485H14.5207V8.50541C14.5207 8.3964 14.4781 8.29186 14.4023 8.21476C14.3265 8.13766 14.2236 8.09431 14.1164 8.09424H12.6462C12.5389 8.09424 12.436 8.13756 12.3601 8.21467C12.2842 8.29178 12.2416 8.39636 12.2416 8.50541V10.7485H10.0423C9.98919 10.7484 9.93655 10.7589 9.8874 10.7794C9.83826 10.7999 9.79358 10.8301 9.75591 10.8682C9.71824 10.9063 9.68832 10.9515 9.66786 11.0013C9.64739 11.0512 9.63679 11.1046 9.63665 11.1586V12.6526C9.63665 12.7066 9.64712 12.7601 9.66745 12.81C9.68779 12.8598 9.7176 12.9051 9.75517 12.9433C9.79274 12.9814 9.83735 13.0117 9.88644 13.0323C9.93552 13.053 9.98813 13.0636 10.0413 13.0635H12.2405V15.292C12.2405 15.346 12.251 15.3994 12.2713 15.4493C12.2917 15.4992 12.3215 15.5445 12.359 15.5826C12.3966 15.6208 12.4412 15.6511 12.4903 15.6717C12.5394 15.6923 12.592 15.7029 12.6451 15.7029H14.1153C14.2225 15.7029 14.3254 15.6596 14.4012 15.5825C14.477 15.5055 14.5196 15.401 14.5196 15.292V13.0635H16.7192C16.7723 13.0636 16.8249 13.053 16.874 13.0323C16.9231 13.0117 16.9677 12.9814 17.0052 12.9433C17.0428 12.9051 17.0726 12.8598 17.093 12.81C17.1133 12.7601 17.1238 12.7066 17.1238 12.6526V11.1586C17.1235 11.0499 17.0809 10.9458 17.0053 10.8689C16.9296 10.7921 16.8272 10.7488 16.7202 10.7485ZM14.518 12.3226C14.4913 12.6399 14.236 12.8111 14.0221 12.8478C14.3292 12.457 14.0384 11.925 13.8464 12.1215C13.7508 12.2192 13.829 12.3948 13.6138 12.5066C13.6565 12.4306 13.6138 12.3183 13.504 12.3438C13.3942 12.3693 13.3339 12.5753 13.4749 12.768C13.594 12.9308 13.6987 12.8806 13.7152 12.8613C13.7494 12.8244 13.7072 12.7702 13.6717 12.8003C13.6752 12.7991 13.6789 12.7988 13.6825 12.7994C13.6861 12.7999 13.6896 12.8014 13.6925 12.8037C13.6954 12.8059 13.6978 12.8089 13.6993 12.8123C13.7008 12.8156 13.7015 12.8194 13.7014 12.8231C13.7014 12.8532 13.6434 12.8744 13.6063 12.8231C13.5582 12.7577 13.6009 12.6833 13.6805 12.6581C13.664 12.6757 13.6538 12.7124 13.6752 12.7278C13.6853 12.689 13.7083 12.654 13.7705 12.6247C13.7788 12.6216 13.7863 12.6168 13.7927 12.6106C13.799 12.6044 13.8041 12.597 13.8076 12.5888C13.811 12.5806 13.8128 12.5717 13.8128 12.5628C13.8129 12.5538 13.8111 12.545 13.8076 12.5368C13.8076 12.5368 13.9065 12.6353 13.8902 12.7539C13.8739 12.8725 13.6284 13.0945 13.4028 12.8733C13.3357 12.8068 13.2875 12.7232 13.2631 12.6312C13.2198 12.7528 13.1266 12.866 12.9536 12.933C12.7079 13.0283 12.3607 12.8898 12.2966 12.6551C12.2966 12.6551 12.5006 12.9099 12.8152 12.7957C13.073 12.7023 13.0556 12.3948 12.9936 12.4331C12.9919 12.4338 12.9903 12.4348 12.9889 12.4361C12.9876 12.4375 12.9865 12.439 12.9857 12.4408C12.985 12.4426 12.9846 12.4444 12.9845 12.4463C12.9845 12.4483 12.9848 12.4502 12.9855 12.4519C12.9862 12.4537 12.9872 12.4554 12.9885 12.4567C12.9898 12.4581 12.9914 12.4592 12.9931 12.46C12.9948 12.4608 12.9967 12.4612 12.9985 12.4612C13.0004 12.4613 13.0023 12.4609 13.004 12.4602C13.0017 12.4665 12.9975 12.4719 12.9921 12.4757C12.9867 12.4795 12.9802 12.4815 12.9736 12.4815C12.967 12.4815 12.9606 12.4795 12.9551 12.4757C12.9497 12.4719 12.9455 12.4665 12.9432 12.4602C12.9301 12.4331 12.9354 12.375 12.9165 12.3644C12.9187 12.3624 12.9214 12.361 12.9243 12.3603C12.9272 12.3597 12.9302 12.3597 12.9331 12.3605C12.9359 12.3613 12.9386 12.3627 12.9408 12.3648C12.9429 12.3669 12.9446 12.3694 12.9456 12.3723C12.9479 12.3537 12.9454 12.3348 12.9384 12.3176C12.9313 12.3003 12.9199 12.2852 12.9052 12.2738C12.9664 12.2597 13.0655 12.2624 13.0922 12.3905C13.1093 12.2876 12.987 12.0648 12.7247 12.1041C12.5378 12.1329 12.4309 12.2911 12.4395 12.4236C12.4491 12.5634 12.581 12.6757 12.7156 12.603C12.8224 12.5452 12.7621 12.3769 12.6411 12.4537C12.6622 12.4491 12.717 12.4401 12.717 12.4947C12.717 12.5492 12.5938 12.5791 12.5567 12.4803C12.5012 12.3278 12.627 12.236 12.6035 12.213C12.6336 12.204 12.636 12.2548 12.636 12.2548C12.6366 12.2413 12.6399 12.2282 12.6457 12.216C12.6514 12.2039 12.6595 12.1931 12.6695 12.1843C12.6795 12.1754 12.6912 12.1688 12.7038 12.1647C12.7164 12.1605 12.7297 12.1591 12.7429 12.1603C12.756 12.1602 12.7689 12.1638 12.78 12.1709C12.7911 12.178 12.8 12.1882 12.8056 12.2002C12.7969 12.197 12.7875 12.1961 12.7783 12.1977C12.7692 12.1993 12.7606 12.2033 12.7534 12.2093C12.7462 12.2153 12.7407 12.2231 12.7374 12.232C12.7341 12.2408 12.7331 12.2503 12.7346 12.2597C12.7346 12.3411 12.8604 12.3202 12.9026 12.4545C12.9448 12.5889 12.8224 12.794 12.5946 12.7704C12.268 12.7365 12.1615 12.3981 12.3043 12.1595C12.4331 11.9443 12.6881 11.8813 12.9047 11.9315C12.7178 11.6601 12.8895 11.4525 12.8895 11.4525C12.8871 11.473 12.8865 11.4936 12.8876 11.5141C12.8879 11.5378 12.8935 11.5611 12.9042 11.5822C12.9077 11.5301 12.9235 11.4795 12.9502 11.4348C12.9768 11.39 13.0136 11.3524 13.0575 11.325C13.0495 11.3248 13.0417 11.3233 13.0342 11.3206C13.0268 11.318 13.0201 11.3137 13.0147 11.3079C13.1544 11.2967 13.1731 11.208 13.1662 11.1648C13.1645 11.147 13.1579 11.1299 13.1472 11.1157C13.1364 11.1014 13.1219 11.0906 13.1053 11.0843C13.0888 11.078 13.0708 11.0766 13.0535 11.0803C13.0362 11.0839 13.0203 11.0924 13.0075 11.1049C12.9966 11.114 12.9889 11.1265 12.9855 11.1405C12.9821 11.1544 12.9831 11.1691 12.9885 11.1824C12.9939 11.1957 13.0034 11.2069 13.0155 11.2143C13.0276 11.2218 13.0418 11.2251 13.0559 11.2237C13.0965 11.2167 13.1047 11.1695 13.0882 11.1572C13.0665 11.1407 13.0524 11.1665 13.0657 11.1746C13.0791 11.1828 13.0823 11.1657 13.0823 11.1657C13.0983 11.1822 13.0823 11.2061 13.0537 11.2053C13.0441 11.2036 13.0354 11.1982 13.0296 11.1902C13.0238 11.1822 13.0212 11.1723 13.0225 11.1624C13.0276 11.0978 13.1226 11.1011 13.14 11.1651C13.1573 11.2292 13.0903 11.291 13.0198 11.2824C12.8828 11.2674 12.8395 11.075 12.9728 10.9936C13.1264 10.9 13.2813 11.0568 13.2684 11.1564C13.3734 11.1515 13.332 11.0414 13.332 11.0414C13.4028 11.0636 13.4175 11.1426 13.4167 11.1771C13.4359 11.1442 13.4252 11.0593 13.3462 11.0025C13.2671 10.9458 13.1771 10.9469 13.1638 10.8299C13.1531 10.736 13.2356 10.6956 13.2206 10.6731C13.2324 10.6817 13.2433 10.6953 13.2295 10.7273C13.225 10.736 13.2237 10.7459 13.2259 10.7554C13.2281 10.7649 13.2336 10.7733 13.2415 10.7789C13.2185 10.72 13.2775 10.6622 13.2989 10.6432C13.3432 10.6044 13.3296 10.568 13.3235 10.5547C13.3539 10.5735 13.4546 10.6492 13.3603 10.7643C13.3486 10.7765 13.3412 10.7923 13.3391 10.8093C13.3371 10.8262 13.3406 10.8434 13.3491 10.8582C13.3519 10.8364 13.3604 10.8158 13.3736 10.7984C13.3869 10.7811 13.4044 10.7676 13.4244 10.7594C13.4136 10.7773 13.4093 10.7985 13.4124 10.8193C13.4155 10.8402 13.4257 10.8592 13.4412 10.8731C13.4869 10.9228 13.4946 10.9439 13.4997 11.0232C13.5083 11.0052 13.5131 10.9856 13.5137 10.9656C13.5144 10.9457 13.5109 10.9258 13.5035 10.9073C13.5035 10.9073 13.6664 11.0614 13.5916 11.2167C13.532 11.3399 13.4145 11.3119 13.4279 11.2688C13.1237 11.3065 12.9351 11.6354 13.1106 11.845C13.2538 12.0162 13.4805 11.9158 13.5531 11.849C13.3662 11.8884 13.1854 11.6591 13.3021 11.5163C13.4249 11.3912 13.5387 11.5087 13.5788 11.4522C13.6103 11.4075 13.5729 11.3602 13.5294 11.3491C13.5555 11.3366 13.5854 11.3351 13.6126 11.345C13.6398 11.3548 13.662 11.3753 13.6744 11.4018C13.6976 11.4522 13.6709 11.5215 13.6477 11.5557C13.6661 11.5468 13.6822 11.5334 13.6944 11.5168C13.7066 11.5001 13.7146 11.4807 13.7176 11.4601C13.7574 11.6534 13.5235 11.7768 13.437 11.6889C13.4266 11.68 13.4198 11.6675 13.418 11.6538C13.4162 11.6402 13.4194 11.6263 13.427 11.6149C13.4346 11.6034 13.4461 11.5953 13.4593 11.592C13.4725 11.5887 13.4864 11.5904 13.4984 11.5969C13.5062 11.6014 13.512 11.6088 13.5146 11.6176C13.5171 11.6263 13.5163 11.6357 13.5123 11.6439C13.518 11.6372 13.5222 11.6294 13.5244 11.6208C13.5267 11.6123 13.527 11.6034 13.5254 11.5947C13.5112 11.535 13.4239 11.5377 13.3958 11.5855C13.3325 11.6941 13.4877 11.8195 13.6546 11.7302C13.6868 11.7129 13.7152 11.6892 13.7381 11.6605C13.761 11.6318 13.7781 11.5988 13.7881 11.5633C13.794 11.5779 13.7983 11.593 13.801 11.6086C13.8075 11.5695 13.8232 11.5325 13.8468 11.5009C13.8703 11.4693 13.9011 11.4439 13.9364 11.427C13.9158 11.445 13.902 11.4695 13.8971 11.4966C13.8923 11.5236 13.8967 11.5516 13.9097 11.5757C13.9035 11.5266 13.9097 11.4598 14.0053 11.4075C14.0747 11.3695 14.0459 11.319 14.0459 11.319C14.0459 11.319 14.126 11.3773 14.0902 11.4992C14.0688 11.573 14.0069 11.5744 13.99 11.5453C13.9689 11.509 14.0141 11.4843 14.0232 11.5052C14.0379 11.4802 13.9772 11.4807 13.9679 11.5266C13.9559 11.586 14.0632 11.6306 14.0995 11.5144C14.1028 11.5276 14.1027 11.5415 14.099 11.5546C14.0953 11.5677 14.0883 11.5796 14.0787 11.589C14.067 11.6025 14.0599 11.6194 14.0587 11.6374C14.0574 11.6553 14.062 11.6731 14.0718 11.6881C14.0539 11.6113 14.1214 11.5695 14.1786 11.5681C14.1385 11.7451 14.5586 11.8303 14.518 12.3226Z" fill="#00ACEA"/>
</svg>
