<svg width="24" height="24" viewBox="0 0 24 24" fill="none" xmlns="http://www.w3.org/2000/svg">
<path d="M18.4981 8.73235C18.4981 14.3767 11.9991 22 11.9991 22C11.9991 22 5.5 14.4758 5.5 8.73235C5.5 5.01419 8.41016 2 12 2C15.5898 2 18.5 5.01419 18.5 8.73235H18.4981Z" fill="#E1393A"/>
<path d="M11.9991 13.6836C14.6651 13.6836 16.8263 11.4452 16.8263 8.68386C16.8263 5.92256 14.6651 3.68408 11.9991 3.68408C9.3331 3.68408 7.17188 5.92256 7.17188 8.68386C7.17188 11.4452 9.3331 13.6836 11.9991 13.6836Z" fill="white"/>
<path d="M11.2029 5.82959H12.7954V11.5384H11.2029V5.82959Z" fill="#E1393A"/>
<path d="M9.24316 7.85913H14.7549V9.50855H9.24316V7.85913Z" fill="#E1393A"/>
</svg>
