<svg width="16" height="16" viewBox="0 0 16 16" fill="none" xmlns="http://www.w3.org/2000/svg">
<path d="M12.3321 5.82173C12.3321 9.58465 7.99939 14.6668 7.99939 14.6668C7.99939 14.6668 3.66666 9.65067 3.66666 5.82173C3.66666 3.34295 5.60676 1.3335 7.99999 1.3335C10.3932 1.3335 12.3333 3.34295 12.3333 5.82173H12.3321Z" fill="#E1393A"/>
<path d="M7.99955 9.12243C9.77689 9.12243 11.2177 7.63011 11.2177 5.78924C11.2177 3.94837 9.77689 2.45605 7.99955 2.45605C6.22222 2.45605 4.7814 3.94837 4.7814 5.78924C4.7814 7.63011 6.22222 9.12243 7.99955 9.12243Z" fill="white"/>
<path d="M7.4689 3.88672H8.53056V7.69256H7.4689V3.88672Z" fill="#E1393A"/>
<path d="M6.16226 5.23975H9.83676V6.33936H6.16226V5.23975Z" fill="#E1393A"/>
</svg>
