<svg width="24" height="24" viewBox="0 0 24 24" fill="none" xmlns="http://www.w3.org/2000/svg">
<path d="M21.2423 2H2.75771C2.42414 2 2.10424 2.13503 1.86837 2.37537C1.63251 2.61572 1.5 2.9417 1.5 3.28161V4.46391C1.5 4.80381 1.63251 5.12979 1.86837 5.37014C2.10424 5.61049 2.42414 5.74551 2.75771 5.74551H21.2423C21.5759 5.74551 21.8958 5.61049 22.1316 5.37014C22.3675 5.12979 22.5 4.80381 22.5 4.46391V3.28161C22.5 2.9417 22.4007 2.64656 22.1316 2.37537C21.8661 2.10777 21.5759 2 21.2423 2ZM22.5 18.2701C22.5 17.9302 22.3675 17.6042 22.1316 17.3638C21.8958 17.1235 21.5759 16.9885 21.2423 16.9885H9.48562C9.15205 16.9885 8.83215 17.1235 8.59629 17.3638C8.36042 17.6042 8.22791 17.9302 8.22791 18.2701V19.4524C8.22791 19.6206 8.26044 19.7873 8.32366 19.9428C8.38687 20.0982 8.47951 20.2395 8.59631 20.3585C8.7131 20.4774 8.85175 20.5718 9.00434 20.6362C9.15693 20.7005 9.32047 20.7336 9.48562 20.7336H21.2423C21.5758 20.7336 21.8956 20.5986 22.1315 20.3583C22.3674 20.1181 22.4999 19.7922 22.5 19.4524V18.2701ZM22.5 10.817C22.5 10.4771 22.3675 10.1511 22.1316 9.91079C21.8958 9.67044 21.5759 9.53542 21.2423 9.53542H4.33784C4.17267 9.53542 4.00913 9.56857 3.85653 9.63297C3.70394 9.69738 3.56529 9.79178 3.4485 9.91079C3.33172 10.0298 3.23907 10.1711 3.17587 10.3266C3.11266 10.4821 3.08013 10.6487 3.08013 10.817V11.9993C3.08013 12.1676 3.11266 12.3342 3.17587 12.4897C3.23908 12.6452 3.33173 12.7864 3.44853 12.9054C3.56532 13.0244 3.70397 13.1188 3.85656 13.1831C4.00915 13.2475 4.17269 13.2806 4.33784 13.2806H21.2423C21.5758 13.2806 21.8956 13.1456 22.1315 12.9053C22.3674 12.665 22.4999 12.3392 22.5 11.9993V10.817ZM2.28357 22C2.31152 21.9999 2.33916 21.9941 2.3649 21.983C2.39063 21.9719 2.41393 21.9557 2.43345 21.9353L7.02092 19.2363L7.01576 19.2273C7.04775 19.2092 7.07448 19.1829 7.09322 19.1509C7.11196 19.1189 7.12205 19.0824 7.12244 19.0452C7.12226 19.0038 7.11031 18.9633 7.08804 18.9286C7.06576 18.894 7.03412 18.8667 6.99693 18.85L6.99914 18.8462L2.43049 16.1581C2.4014 16.1291 2.36466 16.1094 2.32476 16.1014C2.28486 16.0934 2.24353 16.0974 2.20582 16.1129C2.16811 16.1284 2.13566 16.1548 2.11242 16.1888C2.08919 16.2228 2.07619 16.263 2.075 16.3044L2.07389 21.7863C2.07384 21.8144 2.07923 21.8422 2.08975 21.8682C2.10027 21.8941 2.11571 21.9177 2.1352 21.9375C2.15468 21.9574 2.17781 21.9731 2.20327 21.9838C2.22873 21.9946 2.25602 22 2.28357 22Z" fill="black"/>
</svg>
