<svg width="24" height="24" viewBox="0 0 24 24" fill="none" xmlns="http://www.w3.org/2000/svg">
<g clip-path="url(#clip0_451_2931)">
<path d="M24.0026 12C24.0026 15.4036 22.5859 18.4766 20.3073 20.6615C18.151 22.7292 15.224 24 12 24C8.77604 24 5.85156 22.7292 3.69531 20.6615C1.41667 18.4792 0 15.4062 0 12C0 5.37239 5.37239 0 12 0C18.6276 0 24.0026 5.37239 24.0026 12Z" fill="white"/>
<path d="M20.3071 20.6615C18.1508 22.7292 15.2237 24 11.9998 24C8.77583 24 5.85135 22.7292 3.6951 20.6615C3.8227 20.3542 3.97635 20.0625 4.16385 19.7865C4.38781 19.4557 4.65343 19.1589 4.95291 18.8984C5.35916 18.5443 5.81749 18.2682 6.3227 18.0729C6.62999 17.9557 6.9477 17.8672 7.26281 17.7656C7.84874 17.5755 8.43729 17.3932 9.02583 17.2057C9.37999 17.0937 9.73676 16.9844 10.0909 16.8672C10.2029 16.8307 10.2029 16.8437 10.2029 16.7187C10.2029 16.5859 10.2003 16.4505 10.2029 16.3177C10.2029 16.2734 10.1873 16.2448 10.1534 16.2214C10.0753 16.1745 9.99718 16.1276 9.92166 16.0781C9.69249 15.9219 9.46593 15.763 9.23676 15.6042C9.16645 15.5547 9.09354 15.5078 9.02322 15.4583C8.64041 15.1979 8.34093 14.8646 8.12999 14.4479C7.98416 14.1589 7.89301 13.8568 7.84614 13.5365C7.80708 13.276 7.7576 13.0208 7.71333 12.7604C7.70812 12.7266 7.71072 12.6927 7.70291 12.6615C7.65864 12.4974 7.70031 12.5104 7.52843 12.4974C7.34354 12.4844 7.17427 12.4089 7.03104 12.2943C6.83833 12.1432 6.69249 11.9557 6.6352 11.7109C6.61177 11.6094 6.58833 11.5052 6.58833 11.401C6.58833 10.5208 6.58833 9.63802 6.58833 8.75781C6.61697 8.58854 6.60916 8.41406 6.6352 8.24479C6.66124 8.0651 6.68989 7.88802 6.72635 7.70833C6.76541 7.51562 6.8227 7.32812 6.8852 7.14323C6.97635 6.86979 7.09354 6.60937 7.22895 6.35417C7.39562 6.04687 7.58833 5.75521 7.80447 5.48177C7.91906 5.33854 8.04145 5.20573 8.16906 5.07812C8.36437 4.88281 8.5701 4.69531 8.79926 4.53646C9.08572 4.33594 9.37999 4.14844 9.6977 4.0026C10.1066 3.8125 10.531 3.66927 10.9763 3.58854C11.1508 3.55729 11.3253 3.53125 11.4998 3.50781C11.5753 3.4974 11.6534 3.5026 11.729 3.5H12.2758C12.9269 3.52865 13.5493 3.67708 14.1482 3.9349C14.5909 4.125 14.9972 4.3724 15.3722 4.67187C15.7029 4.9349 15.9946 5.23437 16.2576 5.56771C16.4998 5.8724 16.7003 6.20052 16.8722 6.54948C17.0519 6.91667 17.1847 7.29948 17.2732 7.69531C17.3357 7.96875 17.3722 8.2474 17.3956 8.52864C17.4191 8.80208 17.4112 9.07292 17.4138 9.34635C17.4165 10.0312 17.4165 10.7161 17.4138 11.401C17.4112 11.625 17.3566 11.8359 17.2263 12.0234C17.0545 12.2708 16.8253 12.4271 16.531 12.4896C16.4894 12.4974 16.4451 12.4974 16.4034 12.5C16.3435 12.5052 16.3383 12.5078 16.3253 12.5625C16.3071 12.6458 16.2888 12.7318 16.2758 12.8151C16.2342 13.0729 16.1951 13.3333 16.1508 13.5911C16.0649 14.0859 15.8748 14.5312 15.5571 14.9245C15.3956 15.125 15.2055 15.2891 14.9998 15.4375C14.7081 15.6458 14.4112 15.8464 14.1144 16.0469C14.0362 16.1016 13.9529 16.151 13.8722 16.2005C13.8227 16.2292 13.7967 16.2656 13.7993 16.3281C13.8045 16.4714 13.8019 16.6146 13.7993 16.7578C13.7993 16.8099 13.8253 16.8385 13.8696 16.8516C14.0597 16.9115 14.2524 16.9713 14.4425 17.0338C14.5388 17.0651 14.6352 17.0937 14.729 17.1224C15.1612 17.2604 15.5935 17.3958 16.0258 17.5339C16.3852 17.6484 16.7446 17.763 17.1066 17.875C17.3435 17.9479 17.5805 18.0234 17.8097 18.1198C18.031 18.2135 18.242 18.3255 18.4451 18.4505C18.8305 18.6875 19.1717 18.9792 19.4737 19.3151C19.7029 19.5729 19.906 19.8516 20.0675 20.1562C20.1534 20.3307 20.2368 20.4922 20.3071 20.6615Z" fill="#9E9E9E"/>
</g>
<defs>
<clipPath id="clip0_451_2931">
<rect width="24" height="24" fill="white"/>
</clipPath>
</defs>
</svg>
