<svg width="24" height="24" viewBox="0 0 24 24" fill="none" xmlns="http://www.w3.org/2000/svg">
<path d="M8.65957 8.59574C8.65957 8.42646 8.72346 8.2641 8.83718 8.1444C8.9509 8.02469 9.10513 7.95745 9.26596 7.95745H15.734C15.8949 7.95745 16.0491 8.02469 16.1628 8.1444C16.2765 8.2641 16.3404 8.42646 16.3404 8.59574C16.3404 8.76503 16.2765 8.92738 16.1628 9.04709C16.0491 9.16679 15.8949 9.23404 15.734 9.23404H9.26596C9.10513 9.23404 8.9509 9.16679 8.83718 9.04709C8.72346 8.92738 8.65957 8.76503 8.65957 8.59574ZM9.26596 12.6383H15.734C15.8949 12.6383 16.0491 12.571 16.1628 12.4513C16.2765 12.3316 16.3404 12.1693 16.3404 12C16.3404 11.8307 16.2765 11.6684 16.1628 11.5487C16.0491 11.4289 15.8949 11.3617 15.734 11.3617H9.26596C9.10513 11.3617 8.9509 11.4289 8.83718 11.5487C8.72346 11.6684 8.65957 11.8307 8.65957 12C8.65957 12.1693 8.72346 12.3316 8.83718 12.4513C8.9509 12.571 9.10513 12.6383 9.26596 12.6383ZM12.5 14.766H9.26596C9.10513 14.766 8.9509 14.8332 8.83718 14.9529C8.72346 15.0726 8.65957 15.235 8.65957 15.4043C8.65957 15.5735 8.72346 15.7359 8.83718 15.8556C8.9509 15.9753 9.10513 16.0426 9.26596 16.0426H12.5C12.6608 16.0426 12.8151 15.9753 12.9288 15.8556C13.0425 15.7359 13.1064 15.5735 13.1064 15.4043C13.1064 15.235 13.0425 15.0726 12.9288 14.9529C12.8151 14.8332 12.6608 14.766 12.5 14.766ZM22 3.48936V15.0521C22.0003 15.2478 21.9639 15.4415 21.8928 15.6223C21.8217 15.8031 21.7173 15.9672 21.5856 16.1053L16.4001 21.5638C16.2689 21.7024 16.1129 21.8123 15.9412 21.8871C15.7695 21.962 15.5854 22.0004 15.3995 22H4.41489C4.03964 22 3.67976 21.8431 3.41441 21.5638C3.14907 21.2845 3 20.9056 3 20.5106V3.48936C3 3.09436 3.14907 2.71553 3.41441 2.43622C3.67976 2.15691 4.03964 2 4.41489 2H20.5851C20.9604 2 21.3202 2.15691 21.5856 2.43622C21.8509 2.71553 22 3.09436 22 3.48936ZM4.41489 20.7234H15.1277V15.4043C15.1277 15.235 15.1915 15.0726 15.3053 14.9529C15.419 14.8332 15.5732 14.766 15.734 14.766H20.7872V3.48936C20.7872 3.43293 20.7659 3.37881 20.728 3.33891C20.6901 3.29901 20.6387 3.2766 20.5851 3.2766H4.41489C4.36129 3.2766 4.30987 3.29901 4.27197 3.33891C4.23406 3.37881 4.21277 3.43293 4.21277 3.48936V20.5106C4.21277 20.5671 4.23406 20.6212 4.27197 20.6611C4.30987 20.701 4.36129 20.7234 4.41489 20.7234ZM19.9302 16.0426H16.3404V19.8213L19.9302 16.0426Z" fill="black"/>
</svg>
