<svg width="259" height="250" viewBox="0 0 259 250" fill="none" xmlns="http://www.w3.org/2000/svg">
<g clip-path="url(#clip0_81_3442)">
<path d="M177.919 62.6171C179.131 61.8944 180.708 62.1874 181.516 63.3202C185.761 69.2577 197.059 89.0429 192.774 126.738C189.985 151.211 175.635 186.543 170.764 197.988C170.601 198.374 170.344 198.717 170.014 198.986C169.684 199.255 169.292 199.442 168.871 199.533C168.449 199.623 168.012 199.613 167.595 199.504C167.178 199.395 166.796 199.19 166.479 198.906C161.588 194.59 149.643 187.305 127.896 192.187C121.004 193.73 99.4994 214.551 82.2189 195.801C71.5474 184.219 79.3287 177.402 79.4096 160.742C79.5106 139.297 57.1773 132.715 49.8811 129.199C48.0217 128.301 47.8802 125.82 49.6183 124.726C58.0868 119.414 69.9709 116.914 84.907 105.43C103.865 90.8788 104.027 77.246 107.907 72.5194C109.868 70.1366 125.309 63.4374 125.309 63.4374C125.309 63.4374 136.102 66.2108 136.627 66.4062L155.888 74.6288C156.656 74.9022 157.526 74.8241 158.233 74.3944L177.919 62.6171Z" fill="url(#paint0_linear_81_3442)"/>
<path d="M182.79 143.926C193.724 111.211 185.801 84.3359 185.801 84.3359C185.801 84.3359 153.706 95.293 153.625 96.5625C153.564 97.832 132.767 145.605 132.767 145.605C132.767 145.605 117.629 185.176 98.4282 203.574C112.192 202.129 123.328 193.203 127.896 192.188C142.226 188.965 152.271 191.035 158.88 194.062C162.498 188.496 175.109 166.934 182.79 143.926Z" fill="url(#paint1_radial_81_3442)"/>
<path d="M137.375 85.1953L127.128 80.7031C127.128 80.7031 110.878 116.543 102.652 128.906C94.4062 141.27 79.4095 160.742 79.4095 160.742C79.4298 177.402 71.5272 184.219 82.2189 195.801C82.9263 196.582 83.6741 197.266 84.4017 197.91C91.2533 189.961 102.572 174.434 111.06 162.793C134 131.328 137.375 85.1953 137.375 85.1953Z" fill="url(#paint2_linear_81_3442)"/>
<path d="M209.266 47.5781C207.225 42.207 197.24 26.7969 197.24 26.7969L185.639 32.1875L190.247 51.4453L169.491 68.1445C160.909 66.2275 152.031 65.883 143.317 67.1289C137.375 66.6992 120.479 66.8945 114.092 81.9141L104.835 103.203L97.3368 105.723C95.2551 109.922 102.086 113.711 106.432 115.703C110.777 117.695 114.516 116.152 118.073 111.719C120.196 109.062 125.127 101.621 128.725 96.0938C129.533 102.012 130.099 109.238 130.139 118.027L146.975 125.859L167.469 126.699C174.948 110.352 178.808 97.9101 180.768 89.1016C187.539 81.7187 205.082 62.5391 207.346 59.4922C210.135 55.7422 211.307 52.9492 209.266 47.5781Z" fill="url(#paint3_linear_81_3442)"/>
<path d="M84.0985 75.4296C85.291 73.3202 89.0301 71.8749 91.7181 71.0741C93.3552 70.5858 95.0934 71.4061 95.7402 72.91L99.7217 82.1288C100.207 83.2616 99.9845 84.5702 99.1356 85.5077L95.3966 89.5702C96.7709 91.3671 98.4889 92.8124 100.47 93.9647C103.845 95.9374 107.22 95.8593 107.564 96.1327C111.848 99.4725 115.042 103.379 112.536 109.785C110.05 116.152 101.48 114.199 101.48 114.199C101.48 114.199 92.6883 108.223 87.0292 95.2538C85.1899 91.0936 81.6126 79.8046 84.0985 75.4296Z" fill="url(#paint4_linear_81_3442)"/>
<path d="M106.472 161.816C106.472 161.816 95.2753 171.875 94.4466 176.387C93.0723 183.867 99.6207 190.781 103.016 188.105C110.393 182.324 112.394 175.156 116.052 169.961C119.69 164.766 111.323 157.07 106.472 161.816Z" fill="url(#paint5_linear_81_3442)"/>
<path d="M144.308 130.41L143.802 131.738C142.893 128.496 140.75 125.527 137.84 124.023C137.84 124.023 126.158 120.293 123.227 125.547C123.227 125.547 109.221 146.875 106.998 152.813C104.754 158.75 104.835 163.594 110.09 166.738C114.334 169.258 120.034 168.047 125.248 162.324C127.593 159.746 133.009 151.875 137.133 145.762C137.779 144.785 139.336 145.547 138.911 146.641L114.415 208.965L125.349 215.684C125.349 215.684 157.889 165.43 162.679 155.82C167.469 146.211 169.167 132.109 169.167 132.109L144.308 130.41Z" fill="url(#paint6_linear_81_3442)"/>
<path opacity="0.4" d="M123.773 124.785L127.815 118.418C128.381 117.188 129.836 116.68 131.009 117.324C144.388 124.707 151.503 126.68 166.722 125.801C168.116 125.723 169.268 126.934 169.167 128.399L168.642 135.254C168.642 135.254 163.063 138.301 146.025 134.805C133.939 132.324 123.773 124.785 123.773 124.785Z" fill="#212121"/>
<path d="M167.914 134.649C150.775 135.527 140.043 132.539 125.087 124.863C123.914 124.258 123.45 122.871 124.016 121.699L126.421 116.777C127.027 115.547 128.583 115.039 129.836 115.684C144.166 123.066 151.786 125.02 168.116 124.16C169.612 124.082 170.865 125.313 170.723 126.758L170.259 132.422C170.158 133.633 169.147 134.59 167.914 134.649Z" fill="url(#paint7_linear_81_3442)"/>
<path d="M152.736 130.84L148.067 133.828C147.137 134.414 145.904 134.18 145.298 133.281L142.206 128.769C142.06 128.558 141.959 128.321 141.909 128.072C141.858 127.823 141.859 127.566 141.912 127.318C141.965 127.069 142.068 126.833 142.215 126.623C142.363 126.413 142.552 126.233 142.771 126.094L147.44 123.105C147.659 122.965 147.904 122.867 148.162 122.818C148.42 122.77 148.685 122.771 148.943 122.822C149.2 122.873 149.444 122.972 149.662 123.115C149.879 123.257 150.065 123.44 150.209 123.652L153.301 128.164C153.908 129.043 153.665 130.234 152.736 130.84Z" fill="#FDD835"/>
<path d="M142.448 87.9297C145.035 86.8359 149.845 85.3125 156.778 85.0586C157.222 85.0391 157.647 85.0391 158.051 85.0391C164.296 85.0391 168.116 86.6797 170.077 87.832L156.05 102.402L142.448 87.9297Z" fill="#E53935"/>
<path d="M158.071 87.0703C161.891 87.0703 164.701 87.7344 166.661 88.457L156.091 99.4336L146.086 88.7891C148.653 88.0078 152.271 87.2461 156.859 87.0898C157.283 87.0703 157.667 87.0703 158.071 87.0703ZM158.071 83.0273C157.627 83.0273 157.182 83.0273 156.717 83.0469C145.055 83.457 139.073 87.3438 139.073 87.3438L156.05 105.41L173.189 87.5977C173.169 87.5977 168.763 83.0273 158.071 83.0273Z" fill="#FDD835"/>
<path opacity="0.42" d="M139.073 87.3437C139.073 87.3437 145.055 83.457 156.717 83.0468C168.379 82.6366 173.189 87.5976 173.189 87.5976L156.05 105.41L139.073 87.3437Z" fill="url(#paint8_linear_81_3442)"/>
<path d="M116.942 190.625C116.942 190.625 113.688 209.492 105.664 221.836C101.743 226.856 95.3561 230.977 92.0415 239.59C90.5257 243.555 99.3782 247.324 106.27 243.672C110.413 241.465 116.679 227.988 116.679 227.988C122.217 218.262 138.709 202.754 138.709 202.754C135.536 188.516 116.942 190.625 116.942 190.625Z" fill="url(#paint9_linear_81_3442)"/>
<path d="M107.927 72.5C107.927 72.5 119.428 58.4766 139.962 62.4805C155.222 65.4493 152.008 74.9219 152.008 74.9219C152.008 74.9219 144.307 74.9805 137.375 73.4375C130.362 71.875 124.117 68.7305 120.398 69.1016L107.927 72.5Z" fill="#ED4132"/>
<path d="M152.008 74.9414C152.008 74.9414 152.958 65.3516 159.668 63.0273C166.378 60.7031 181.415 58.5547 181.415 58.5547C181.415 58.5547 176.706 67.4609 173.068 70.2734C165.388 76.1914 152.008 74.9414 152.008 74.9414Z" fill="#ED4132"/>
<path opacity="0.4" d="M115.466 79.1602C115.466 79.1602 122.055 73.418 132.08 75.7422C146.511 79.082 152.008 74.9414 152.008 74.9414C152.008 74.9414 162.619 78.6328 172.664 73.9648C179.556 70.7617 181.435 58.5547 181.435 58.5547L179.071 61.1328C179.071 61.1328 170.218 70.4492 161.406 72.9688C154.959 74.8242 152.028 74.9414 152.028 74.9414C152.028 74.9414 128.26 67.0703 122.843 69.2578C117.427 71.4453 115.466 79.1602 115.466 79.1602Z" fill="#212121"/>
<path d="M187.317 48.6718C187.034 46.8554 183.456 19.1015 176.746 17.6562C176.746 17.6562 173.189 17.6953 169.551 18.0078C166.681 18.1054 164.781 17.3633 164.236 15.625C163.569 14.2968 164.256 11.3281 165.408 8.00779C166.56 4.66794 168.622 4.25779 170.259 4.21872C173.432 4.1406 178.848 7.24607 186.286 13.457C200.596 25.4101 208.417 43.4375 208.417 43.4375C208.154 43.4375 198.938 55.6054 187.317 48.6718Z" fill="url(#paint10_linear_81_3442)"/>
<path d="M151.523 61.0937L145.015 61.2695L145.197 66.1523C145.197 72.3242 151.988 74.9413 151.988 74.9413C151.988 74.9413 158.193 71.7187 158.193 66.0546L158.011 60.9374L151.523 61.0937ZM166.681 42.0507L162.498 42.1288L139.841 42.5781L135.657 42.6562C132.322 42.7148 129.634 45.5859 129.715 49.0429C129.796 52.4999 132.585 55.2538 135.92 55.1757L140.104 55.0976L162.76 54.6484L166.944 54.5703C170.279 54.5117 172.967 51.6406 172.886 48.1835C172.825 44.746 170.036 41.9921 166.681 42.0507Z" fill="#E59600"/>
<path d="M150.634 20.2148C140.75 20.4102 131.817 30.8008 132.14 45.4883C132.444 60.0977 142.024 67.1484 151.644 66.9531C161.244 66.7578 170.521 59.3555 170.218 44.7266C169.895 30.0391 160.517 20.0195 150.634 20.2148Z" fill="#FFCA28"/>
<path d="M142.304 50.4681C143.844 50.438 145.067 49.1634 145.035 47.6212C145.004 46.079 143.73 44.8532 142.19 44.8832C140.649 44.9133 139.427 46.188 139.458 47.7302C139.49 49.2724 140.764 50.4982 142.304 50.4681Z" fill="#404040"/>
<path d="M160.96 50.0978C162.5 50.068 163.723 48.7937 163.691 47.2515C163.659 45.7093 162.385 44.4832 160.845 44.513C159.305 44.5428 158.082 45.8171 158.114 47.3593C158.146 48.9015 159.42 50.1276 160.96 50.0978Z" fill="#404040"/>
<path d="M153.746 52.4219C153.688 52.3996 153.627 52.3864 153.564 52.3828L149.562 52.4609C149.502 52.4609 149.441 52.4805 149.38 52.5C149.017 52.6562 148.835 53.0078 149.017 53.3984C149.199 53.7891 150.027 54.8633 151.624 54.8242C153.241 54.7852 154.009 53.6914 154.171 53.3008C154.332 52.9102 154.11 52.5586 153.746 52.4219Z" fill="#E59600"/>
<path d="M156.394 57.461C154.615 58.5547 148.653 58.711 146.814 57.7149C145.763 57.1485 144.712 58.086 145.177 58.9844C145.621 59.8633 148.936 61.875 151.745 61.7969C154.555 61.7188 157.707 59.5508 158.092 58.6328C158.496 57.7344 157.425 56.836 156.394 57.461Z" fill="#795548"/>
<path d="M146.248 42.7735C145.662 41.9337 144.328 40.7227 141.822 40.7813C139.315 40.8399 138.062 42.1485 137.537 43.0274C137.294 43.4181 137.375 43.8478 137.557 44.1212C137.719 44.3556 138.204 44.5899 138.709 44.3556C139.214 44.1212 140.225 43.4962 141.902 43.4376C143.6 43.3985 144.631 43.9845 145.156 44.1798C145.682 44.3751 146.147 44.1212 146.288 43.8673C146.47 43.5743 146.511 43.1446 146.248 42.7735ZM165.044 42.2267C164.458 41.3868 163.124 40.1759 160.618 40.2345C158.112 40.3126 156.859 41.6017 156.333 42.4806C156.091 42.8712 156.171 43.3009 156.353 43.5743C156.515 43.8087 157 44.0431 157.505 43.8087C158.011 43.5743 159.021 42.9493 160.699 42.8907C162.396 42.8517 163.427 43.4376 163.953 43.6329C164.478 43.8282 164.943 43.5743 165.085 43.3204C165.182 43.152 165.23 42.9609 165.223 42.7681C165.216 42.5752 165.154 42.3879 165.044 42.2267Z" fill="#6D4C41"/>
<path d="M150.553 17.207C150.533 17.207 150.533 17.207 150.553 17.207C150.533 17.207 150.533 17.207 150.553 17.207C124.703 17.9882 130.766 46.3671 130.766 46.3671C130.766 46.3671 131.999 49.2773 132.565 50.5664C132.646 50.7421 132.929 50.7226 132.969 50.5273C133.454 48.125 135.212 39.6289 136.142 37.0312C136.688 35.5078 138.285 34.5898 139.942 34.8242C142.489 35.1953 146.531 35.6445 150.977 35.5468H151.058C155.504 35.4296 159.526 34.7851 162.053 34.2773C163.69 33.9453 165.347 34.7851 165.974 36.289C167.045 38.8281 169.228 47.1875 169.854 49.5898C169.915 49.7851 170.198 49.8046 170.259 49.6093L171.835 45.3515C171.855 45.332 176.383 16.6992 150.553 17.207Z" fill="#543930"/>
<path d="M171.855 45.332C171.855 45.332 176.383 16.6797 150.533 17.207L149.36 17.2656C148.592 17.3242 147.844 17.3828 147.137 17.5H147.117C147.056 17.5 147.016 17.5195 146.975 17.5195C125.309 20.7031 130.786 46.3672 130.786 46.3672L132.585 50.5469C132.666 50.7226 132.949 50.7031 132.989 50.5078C133.474 48.0859 135.233 39.6094 136.162 37.0312C136.708 35.5078 138.305 34.5898 139.962 34.8242C142.509 35.1953 146.551 35.6445 150.997 35.5469H151.078C155.525 35.4297 159.547 34.7851 162.073 34.2773C163.71 33.9453 165.368 34.7851 165.994 36.289C167.065 38.8281 169.268 47.2461 169.895 49.6094C169.955 49.8047 170.218 49.8242 170.299 49.6289C170.764 48.3203 171.855 45.332 171.855 45.332Z" fill="url(#paint11_radial_81_3442)"/>
<path d="M94.0581 11.5494C90.2783 7.85433 86.1996 4.47813 81.8635 1.45532C85.157 12.9135 76.4772 25.0684 70.1726 33.8417C59.1685 49.1559 55.0585 58.0584 57.073 69.1617C58.8432 78.937 66.3224 84.8272 67.8448 86.0272C78.5391 94.4517 91.1403 92.3449 94.4918 91.7846C98.0039 91.1972 106.75 89.7344 113.133 82.3929C113.994 81.4024 117.735 76.9427 119.353 68.9319C124.641 42.7757 99.6002 16.9673 94.0581 11.5494Z" fill="#E30613"/>
<path d="M100.793 57.514C103.633 57.052 105.319 52.8893 104.56 48.2162C103.8 43.5432 100.881 40.1294 98.0398 40.5914C95.1991 41.0535 93.513 45.2167 94.2728 49.8897C95.0327 54.5628 97.9518 57.9766 100.793 57.514Z" fill="#E7364B"/>
<path d="M97.9978 38.2744C99.2944 38.0633 100.064 36.1627 99.7175 34.0289C99.3706 31.8951 98.0358 30.3367 96.7409 30.5474C95.446 30.7581 94.6737 32.6595 95.0207 34.7933C95.3677 36.9271 96.7006 38.486 97.9978 38.2744Z" fill="#E7364B"/>
<path d="M116.155 48.8792C113.544 40.5206 108.785 32.9861 103.444 26.046C97.9007 18.8436 91.6908 12.1796 84.8969 6.14246C86.1149 13.9593 83.0475 22.2533 79.0942 28.8924C75.1267 35.5545 69.9435 41.4376 66.0792 48.1599C64.0983 51.6056 62.4737 55.3979 61.6381 59.2831C62.9215 57.0816 64.8073 55.2554 67.1731 54.7194C72.6475 53.4845 78.0077 57.5188 81.0109 62.0458C83.7906 66.2351 84.8841 71.3047 87.9461 75.3289C90.8586 79.1565 95.0841 81.6139 99.9451 81.74C106.406 81.9064 113.629 77.121 116.191 71.2693C116.769 69.9485 117.307 68.5977 117.784 67.2385C118.727 61.1217 117.991 54.7548 116.155 48.8792ZM86.7083 58.2996C80.5869 53.4531 77.7077 44.8612 79.6717 37.3046C80.8162 32.9086 83.387 29.0425 85.2554 24.9019C87.1239 20.7613 88.2701 15.8926 86.4503 11.7321L89.8137 14.0611C101.242 22.7477 115.816 42.8456 106.247 57.4197C101.956 63.953 92.1168 62.5814 86.7083 58.2996Z" fill="#B90E0C"/>
<path d="M103.253 66.6466C100.886 70.7469 100.988 75.2376 103.48 76.6765C105.972 78.1154 109.912 75.9586 112.279 71.8583C114.646 67.758 114.544 63.2677 112.052 61.8284C109.559 60.389 105.62 62.5485 103.253 66.6466Z" fill="#C90C0F"/>
<path d="M102.097 32.3947C102.956 33.9571 103.558 35.6868 104.559 37.1655C104.8 37.5218 105.429 37.4165 105.414 36.9336C105.355 35.0154 104.453 33.1998 103.514 31.5666C102.59 29.9608 101.485 28.1753 99.9927 27.0489C99.4767 26.6594 98.8965 27.3928 99.1616 27.8801C100.015 29.4491 101.23 30.8177 102.097 32.3947Z" fill="#E7E6F4"/>
<path d="M106.355 40.2227C107.397 40.2227 107.399 38.6028 106.355 38.6028C105.311 38.6028 105.309 40.2227 106.355 40.2227Z" fill="#E7E6F4"/>
<path d="M77.6798 86.1101C76.1981 85.1089 74.4877 84.4512 72.9887 83.4487C71.5106 82.4594 70.1869 81.2007 68.6194 80.3504C68.2162 80.1322 67.7648 80.5717 67.9914 80.9785C68.896 82.6015 70.4609 83.7532 71.9868 84.7504C73.5127 85.7476 75.3776 86.9085 77.2089 87.2192C77.8838 87.3347 78.2719 86.5102 77.6798 86.1101Z" fill="#E7E6F4"/>
<path d="M75.0364 68.1666C74.0486 62.0981 70.2586 57.6649 66.5694 58.2651C63.0255 58.8405 60.8649 63.8535 61.5752 69.6272C61.6047 69.8633 61.6387 70.101 61.677 70.3403C62.2408 73.805 63.7181 76.7368 65.5688 78.5033C64.9935 78.8808 65.1395 80.0006 66.0074 80.0006C66.284 80.0006 66.4876 79.8864 66.6172 79.7187C66.6808 79.6358 66.7277 79.5414 66.7553 79.4407C67.8365 80.1276 68.9951 80.429 70.1439 80.2423C73.8331 79.6421 76.0233 74.2357 75.0364 68.1666Z" fill="#D70911"/>
<path d="M66.0084 78.3802C65.9025 78.3791 65.7974 78.398 65.6986 78.4359C65.6534 78.454 65.6101 78.4765 65.5694 78.5032C64.9941 78.8808 65.1401 80.0005 66.008 80.0005C66.2846 80.0005 66.4881 79.8864 66.6178 79.7186C66.6814 79.6358 66.7283 79.5414 66.7559 79.4407C66.8886 78.9724 66.6395 78.3802 66.0084 78.3802Z" fill="#E7E6F4"/>
</g>
<defs>
<linearGradient id="paint0_linear_81_3442" x1="160.814" y1="95.7772" x2="105.755" y2="172.092" gradientUnits="userSpaceOnUse">
<stop stop-color="#A52714"/>
<stop offset="0.529" stop-color="#D23F31"/>
<stop offset="1" stop-color="#ED4132"/>
</linearGradient>
<radialGradient id="paint1_radial_81_3442" cx="0" cy="0" r="1" gradientTransform="matrix(35.1546 12.7549 25.5755 -65.8321 151.33 123.775)" gradientUnits="userSpaceOnUse">
<stop stop-color="#212121"/>
<stop offset="0.999" stop-color="#212121" stop-opacity="0"/>
</radialGradient>
<linearGradient id="paint2_linear_81_3442" x1="89.7496" y1="107.621" x2="117.95" y2="158.005" gradientUnits="userSpaceOnUse">
<stop stop-color="#212121"/>
<stop offset="0.999" stop-color="#212121" stop-opacity="0"/>
</linearGradient>
<linearGradient id="paint3_linear_81_3442" x1="153.619" y1="80.8984" x2="153.294" y2="119.332" gradientUnits="userSpaceOnUse">
<stop stop-color="#42A5F5"/>
<stop offset="1" stop-color="#1E88E5"/>
</linearGradient>
<linearGradient id="paint4_linear_81_3442" x1="101.795" y1="102.785" x2="89.2726" y2="74.6604" gradientUnits="userSpaceOnUse">
<stop stop-color="#A52714"/>
<stop offset="0.529" stop-color="#D23F31"/>
<stop offset="1" stop-color="#DB4437"/>
</linearGradient>
<linearGradient id="paint5_linear_81_3442" x1="111.422" y1="164.117" x2="101.798" y2="179.554" gradientUnits="userSpaceOnUse">
<stop offset="0.001" stop-color="#851F10"/>
<stop offset="0.841" stop-color="#A52714"/>
</linearGradient>
<linearGradient id="paint6_linear_81_3442" x1="141.054" y1="140.768" x2="123.594" y2="181.331" gradientUnits="userSpaceOnUse">
<stop stop-color="#42A5F5"/>
<stop offset="1" stop-color="#1E88E5"/>
</linearGradient>
<linearGradient id="paint7_linear_81_3442" x1="126.726" y1="121.971" x2="170.282" y2="131.821" gradientUnits="userSpaceOnUse">
<stop stop-color="#D32F2F"/>
<stop offset="0.23" stop-color="#F44336"/>
<stop offset="0.742" stop-color="#F44336"/>
<stop offset="1" stop-color="#D32F2F"/>
</linearGradient>
<linearGradient id="paint8_linear_81_3442" x1="156.125" y1="87.3886" x2="156.125" y2="106.637" gradientUnits="userSpaceOnUse">
<stop stop-color="#0D47A1" stop-opacity="0"/>
<stop offset="1" stop-color="#0D47A1"/>
</linearGradient>
<linearGradient id="paint9_linear_81_3442" x1="133.592" y1="196.049" x2="90.035" y2="241.122" gradientUnits="userSpaceOnUse">
<stop stop-color="#A52714"/>
<stop offset="0.529" stop-color="#D23F31"/>
<stop offset="1" stop-color="#ED4132"/>
</linearGradient>
<linearGradient id="paint10_linear_81_3442" x1="198.813" y1="46.7109" x2="172.214" y2="5.08034" gradientUnits="userSpaceOnUse">
<stop stop-color="#A52714"/>
<stop offset="0.529" stop-color="#D23F31"/>
<stop offset="1" stop-color="#DB4437"/>
</linearGradient>
<radialGradient id="paint11_radial_81_3442" cx="0" cy="0" r="1" gradientTransform="matrix(21.6619 -0.544426 -0.634883 -23.6155 151.171 40.8686)" gradientUnits="userSpaceOnUse">
<stop offset="0.794" stop-color="#6D4C41" stop-opacity="0"/>
<stop offset="1" stop-color="#6D4C41"/>
</radialGradient>
<clipPath id="clip0_81_3442">
<rect width="258.703" height="250" fill="white"/>
</clipPath>
</defs>
</svg>
