<svg width="24" height="24" viewBox="0 0 24 24" fill="none" xmlns="http://www.w3.org/2000/svg">
<path d="M12 22C9.68333 21.4167 7.77067 20.0873 6.262 18.012C4.75333 15.9367 3.99933 13.6327 4 11.1V5L12 2L20 5V11.1C20 12.15 19.8623 13.171 19.587 14.163C19.3117 15.155 18.916 16.1007 18.4 17L15.45 14.05C15.6333 13.7333 15.771 13.4043 15.863 13.063C15.955 12.7217 16.0007 12.3673 16 12C16 10.9 15.6083 9.95833 14.825 9.175C14.0417 8.39167 13.1 8 12 8C10.9 8 9.95833 8.39167 9.175 9.175C8.39167 9.95833 8 10.9 8 12C8 13.1 8.39167 14.0417 9.175 14.825C9.95833 15.6083 10.9 16 12 16C12.35 16 12.696 15.9543 13.038 15.863C13.38 15.7717 13.7007 15.634 14 15.45L17.225 18.65C16.525 19.4667 15.7373 20.1667 14.862 20.75C13.9867 21.3333 13.0327 21.75 12 22ZM12 14C11.45 14 10.9793 13.8043 10.588 13.413C10.1967 13.0217 10.0007 12.5507 10 12C9.99933 11.4493 10.1953 10.9787 10.588 10.588C10.9807 10.1973 11.4513 10.0013 12 10C12.5487 9.99867 13.0197 10.1947 13.413 10.588C13.8063 10.9813 14.002 11.452 14 12C13.998 12.548 13.8023 13.019 13.413 13.413C13.0237 13.807 12.5527 14.0027 12 14Z" fill="black"/>
</svg>
