<svg width="24" height="24" viewBox="0 0 24 24" fill="none" xmlns="http://www.w3.org/2000/svg">
<path d="M3 19.5C3 18.1739 3.50044 16.9021 4.39124 15.9645C5.28204 15.0268 6.49022 14.5 7.75 14.5H17.25C18.5098 14.5 19.718 15.0268 20.6088 15.9645C21.4996 16.9021 22 18.1739 22 19.5C22 20.163 21.7498 20.7989 21.3044 21.2678C20.859 21.7366 20.2549 22 19.625 22H5.375C4.74511 22 4.14102 21.7366 3.69562 21.2678C3.25022 20.7989 3 20.163 3 19.5Z" stroke="black" stroke-width="2" stroke-linejoin="round"/>
<path d="M12.5 9.5C14.4675 9.5 16.0625 7.82107 16.0625 5.75C16.0625 3.67893 14.4675 2 12.5 2C10.5325 2 8.9375 3.67893 8.9375 5.75C8.9375 7.82107 10.5325 9.5 12.5 9.5Z" stroke="black" stroke-width="2"/>
</svg>
