<svg width="24" height="24" viewBox="0 0 24 24" fill="none" xmlns="http://www.w3.org/2000/svg">
<path d="M11.7353 2C8.51225 2 5.93382 4.5 5.93382 7.625V10.125C4.83799 10.125 4 10.9375 4 12V20.125C4 21.1875 4.83799 22 5.93382 22H17.5368C18.6326 22 19.4706 21.1875 19.4706 20.125V12C19.4706 10.9375 18.6326 10.125 17.5368 10.125V7.625C17.5368 4.5 14.9583 2 11.7353 2ZM18.1814 12V20.125C18.1814 20.5 17.9235 20.75 17.5368 20.75H5.93382C5.54706 20.75 5.28922 20.5 5.28922 20.125V12C5.28922 11.625 5.54706 11.375 5.93382 11.375H6.57843H16.8922H17.5368C17.9235 11.375 18.1814 11.625 18.1814 12ZM7.22304 10.125V7.625C7.22304 5.1875 9.22132 3.25 11.7353 3.25C14.2493 3.25 16.2475 5.1875 16.2475 7.625V10.125H7.22304Z" fill="black"/>
<path d="M11.7353 13.25C10.6395 13.25 9.80151 14.0625 9.80151 15.125C9.80151 15.9375 10.3172 16.625 11.0907 16.875V18.25C11.0907 18.625 11.3486 18.875 11.7353 18.875C12.1221 18.875 12.3799 18.625 12.3799 18.25V16.875C13.1535 16.625 13.6692 15.9375 13.6692 15.125C13.6692 14.0625 12.8312 13.25 11.7353 13.25ZM11.7353 15.75C11.3486 15.75 11.0907 15.5 11.0907 15.125C11.0907 14.75 11.3486 14.5 11.7353 14.5C12.1221 14.5 12.3799 14.75 12.3799 15.125C12.3799 15.5 12.1221 15.75 11.7353 15.75Z" fill="black"/>
</svg>
