<svg width="24" height="24" viewBox="0 0 24 24" fill="none" xmlns="http://www.w3.org/2000/svg">
<path d="M13.2321 14.4766V21.7712H4C3.99971 20.6216 4.2575 19.4871 4.75362 18.4547C5.24973 17.4224 5.971 16.5195 6.86215 15.8154C7.75331 15.1113 8.7907 14.6245 9.89484 14.3925C10.999 14.1604 12.1406 14.1892 13.2321 14.4766ZM11.3857 13.2978C8.32524 13.2978 5.84642 10.7699 5.84642 7.64892C5.84642 4.52789 8.32524 2 11.3857 2C14.4461 2 16.9249 4.52789 16.9249 7.64892C16.9249 10.7699 14.4461 13.2978 11.3857 13.2978ZM17.466 17.0638L15.7774 15.3427L17.0837 14.0105L21 18.0053L17.0837 22L15.7774 20.6678L17.466 18.9468H14.1553V17.0638H17.466Z" fill="black"/>
</svg>
