<svg width="24" height="24" viewBox="0 0 24 24" fill="none" xmlns="http://www.w3.org/2000/svg">
<path d="M10.0321 2C11.9038 2 13.6988 2.78265 15.0223 4.17578C16.3458 5.56891 17.0893 7.45839 17.0893 9.42857C17.0893 11.2686 16.4487 12.96 15.3956 14.2629L15.6887 14.5714H16.5464L21.975 20.2857L20.3464 22L14.9179 16.2857V15.3829L14.6247 15.0743C13.344 16.2245 11.7157 16.8566 10.0321 16.8571C8.16048 16.8571 6.36547 16.0745 5.042 14.6814C3.71852 13.2882 2.97501 11.3988 2.97501 9.42857C2.97501 7.45839 3.71852 5.56891 5.042 4.17578C6.36547 2.78265 8.16048 2 10.0321 2ZM10.0321 4.28571C7.31786 4.28571 5.14643 6.57143 5.14643 9.42857C5.14643 12.2857 7.31786 14.5714 10.0321 14.5714C12.7464 14.5714 14.9179 12.2857 14.9179 9.42857C14.9179 6.57143 12.7464 4.28571 10.0321 4.28571Z" fill="black"/>
</svg>
