<svg width="24" height="24" viewBox="0 0 24 24" fill="none" xmlns="http://www.w3.org/2000/svg">
<path fill-rule="evenodd" clip-rule="evenodd" d="M13.5844 7.89712C13.5844 7.12876 13.8896 6.39186 14.4329 5.84855C14.9762 5.30523 15.7131 5 16.4815 5C17.2498 5 17.9867 5.30523 18.5301 5.84855C19.0734 6.39186 19.3786 7.12876 19.3786 7.89712C19.3786 8.66548 19.0734 9.40238 18.5301 9.94569C17.9867 10.489 17.2498 10.7942 16.4815 10.7942C15.7131 10.7942 14.9762 10.489 14.4329 9.94569C13.8896 9.40238 13.5844 8.66548 13.5844 7.89712ZM13.5844 12.2428C12.6239 12.2428 11.7028 12.6243 11.0236 13.3035C10.3445 13.9826 9.96296 14.9037 9.96296 15.8642C9.96296 16.4405 10.1919 16.9931 10.5994 17.4006C11.0069 17.8081 11.5595 18.037 12.1358 18.037H20.8272C21.4034 18.037 21.9561 17.8081 22.3636 17.4006C22.7711 16.9931 23 16.4405 23 15.8642C23 14.9037 22.6185 13.9826 21.9393 13.3035C21.2602 12.6243 20.3391 12.2428 19.3786 12.2428H13.5844Z" fill="black"/>
<mask id="mask0_451_2888" style="mask-type:luminance" maskUnits="userSpaceOnUse" x="4" y="5" width="7" height="4">
<mask id="mask1_451_2888" style="mask-type:luminance" maskUnits="userSpaceOnUse" x="4" y="5" width="7" height="4">
<path d="M7.40466 5.0034C8.79367 4.93476 10.0566 5.91377 10.5194 7.18972C10.6343 7.50685 10.7859 8.04916 10.542 8.3377L10.5337 8.34733C10.2063 8.73372 9.61987 8.61165 9.495 8.11749C9.47978 8.05754 9.47544 7.99542 9.46581 7.93423C9.3102 6.92695 8.45977 6.26165 7.47175 6.20325C6.58995 6.18089 5.733 6.80364 5.48421 7.65003C5.39476 7.95411 5.42116 8.31969 5.10621 8.50046C4.86611 8.63837 4.57135 8.58494 4.38437 8.38398C4.13558 8.11656 4.2269 7.70035 4.31666 7.38447C4.67478 6.12529 5.7125 5.20281 7.00491 5.03322C7.13878 5.01551 7.26892 4.99781 7.40466 5.0034Z" fill="white"/>
</mask>
<g mask="url(#mask1_451_2888)">
<path d="M14.1963 4.99976H3.01772V16.1969H14.1963V4.99976Z" fill="white"/>
</g>
</mask>
<g mask="url(#mask0_451_2888)">
<mask id="mask2_451_2888" style="mask-type:luminance" maskUnits="userSpaceOnUse" x="4" y="4" width="7" height="5">
<path d="M10.6731 4.99927H4.2235V8.57739H10.6731V4.99927Z" fill="white"/>
</mask>
<g mask="url(#mask2_451_2888)">
<rect width="6.45852" height="3.58409" transform="matrix(1 0 0 -1 4.21969 8.58057)" fill="black"/>
</g>
</g>
<mask id="mask3_451_2888" style="mask-type:luminance" maskUnits="userSpaceOnUse" x="1" y="9" width="14" height="9">
<path d="M3.04749 9.03295L11.6369 9.02979C12.7034 9.0334 13.6257 9.54427 13.9598 10.5986C14.0538 10.8956 14.0642 11.1501 14.0674 11.4594C13.7347 11.4652 13.3924 11.4377 13.061 11.4643C11.0555 11.6262 9.23944 13.3885 9.05679 15.398C8.92885 16.2543 9.17388 17.1359 9.48267 17.9248L3.44715 17.9217C3.22019 17.9217 2.97018 17.9416 2.7473 17.9058C1.82547 17.7566 1.08674 16.9686 1.0144 16.0301C0.989989 15.7118 1.004 15.3854 1.004 15.0662L1.00491 11.8934C1.00536 11.5163 0.980495 11.1257 1.05373 10.7541C1.24316 9.79428 2.07367 9.0976 3.04749 9.03295ZM7.33339 12.1985C6.71311 12.2686 6.28723 12.8337 6.37087 13.45L6.38036 13.5065C6.49022 14.12 6.99341 14.3813 7.573 14.3668C8.78146 14.1973 8.84973 12.4829 7.6693 12.2166L7.65664 12.2135C7.55627 12.1909 7.43556 12.1886 7.33339 12.1985ZM4.00594 12.199C2.60624 12.3179 2.63608 14.4414 4.14609 14.3641C4.89838 14.3008 5.36721 13.4997 5.04577 12.8202L4.93772 12.6389C4.8803 12.5557 4.80073 12.4802 4.72206 12.4174L4.70805 12.4056C4.51591 12.2505 4.24872 12.1872 4.00594 12.199Z" fill="white"/>
</mask>
<g mask="url(#mask3_451_2888)">
<mask id="mask4_451_2888" style="mask-type:luminance" maskUnits="userSpaceOnUse" x="1" y="9" width="14" height="9">
<path d="M14.0683 9.02856H0.999924V17.9268H14.0683V9.02856Z" fill="white"/>
</mask>
<g mask="url(#mask4_451_2888)">
<rect width="13.0812" height="8.90816" transform="matrix(1 0 0 -1 0.996773 17.9336)" fill="black"/>
</g>
</g>
</svg>
