<svg width="100" height="100" viewBox="0 0 100 100" fill="none" xmlns="http://www.w3.org/2000/svg">
<g opacity="0.05">
<path d="M47.2467 31.9168L47.8231 31.2383L48.0301 30.9906C47.7841 30.9363 47.5783 30.8945 47.1988 30.8187C46.9696 31.0551 46.9006 31.1297 46.5579 31.4972L46.3476 31.7234L46.0493 31.6691C45.4551 31.556 45.3617 31.5334 44.921 31.461C44.7418 31.6555 44.625 31.7822 44.5082 31.9134L45.0267 32.0264L45.9102 32.2266L45.3349 32.9379C45.1424 33.1765 45.0301 33.3156 44.931 33.44C45.2426 33.5271 45.464 33.5926 45.9158 33.7261C46.1684 33.3868 46.2407 33.2862 46.6013 32.8022L46.8316 32.4912L47.1999 32.6043C47.8465 32.7954 47.97 32.8305 48.424 32.9741C48.6187 32.7016 48.7322 32.5455 48.8691 32.3634C48.6766 32.3092 48.4863 32.2571 48.1091 32.1542L47.2467 31.9168Z" fill="#00ACEA"/>
<path d="M49.4685 28.8408L49.8869 28.3466C49.9481 28.2743 49.9982 28.2166 50.0382 28.168C49.8591 28.1284 49.7044 28.0979 49.434 28.0436C49.2682 28.2143 49.2181 28.2697 48.9689 28.5389L48.8164 28.704L48.5939 28.6599C48.1632 28.5751 48.0954 28.5615 47.7749 28.5095L47.4756 28.8363L47.8517 28.9211L48.4971 29.067L48.0798 29.5838L47.786 29.9479C48.0086 30.0112 48.1733 30.061 48.5004 30.156C48.684 29.9072 48.7363 29.8359 48.9978 29.4854L49.1658 29.2592L49.4318 29.3384C49.9025 29.4763 49.9882 29.5023 50.322 29.6064C50.4633 29.4085 50.5446 29.2954 50.6447 29.1631L50.0883 29.0116L49.4685 28.8408Z" fill="#00ACEA"/>
<path d="M70.1349 60.2369L69.7142 59.9882L69.9012 59.5358C70.1894 58.8325 70.2484 58.6877 70.4364 58.2105C70.0013 57.9493 69.8111 57.8373 69.3993 57.5999C69.2402 57.9866 69.1623 58.1653 68.8875 58.82L68.646 59.3854L68.1096 59.088C67.5666 58.7861 67.4075 58.6979 67.0814 58.5226C66.7999 59.1672 66.6953 59.4035 66.3926 60.0809C66.7765 60.2777 66.9223 60.3568 67.5154 60.6802L67.9783 60.9324L67.7558 61.4175C67.4342 62.1198 67.3619 62.2781 67.146 62.7451C67.6145 62.9792 67.8136 63.0844 68.251 63.3037C68.4457 62.8808 68.5214 62.7146 68.824 62.044L69.0666 61.5046L69.5852 61.7783L70.4353 62.2306C70.6912 61.6392 70.7869 61.413 71.0496 60.7797C70.7658 60.6101 70.6267 60.5287 70.1349 60.2369Z" fill="#00ACEA"/>
<path d="M33.2035 53.2676L33.6353 53.5164L33.4417 53.98C33.1479 54.6868 33.0889 54.8315 32.8953 55.3133C33.3593 55.5914 33.5563 55.7068 33.9958 55.9624C34.1605 55.5609 34.2384 55.3777 34.5211 54.7185L34.7603 54.153L35.2922 54.4403C35.8642 54.749 36.0255 54.8361 36.3727 55.0294C36.6587 54.3815 36.7644 54.144 37.0726 53.4587C36.6765 53.2495 36.5307 53.1749 35.9198 52.8639L35.438 52.6185L35.6605 52.1209C35.9944 51.3938 36.0645 51.2332 36.287 50.7572L35.1208 50.1669C34.9183 50.6022 34.8438 50.7673 34.5333 51.4504L34.2885 51.9898L33.7699 51.715L32.8753 51.2321C32.6127 51.8337 32.5159 52.061 32.2432 52.7101C32.5492 52.8865 32.6861 52.9657 33.2035 53.2676Z" fill="#00ACEA"/>
<path d="M48.4971 40.3351L49.1536 40.5748L48.7809 41.1674C48.5405 41.5519 48.4415 41.7091 48.3135 41.9126C48.8409 42.1196 49.0724 42.2134 49.6811 42.4622C49.8747 42.1376 49.9481 42.0099 50.243 41.51L50.4878 41.0916L50.9329 41.2771C51.6139 41.5609 51.7597 41.622 52.2126 41.8154L52.6488 41.0362C52.315 40.8983 52.1358 40.8259 51.5494 40.5907L50.9207 40.3385L51.6073 39.2473C51.1499 39.0754 50.9296 38.9951 50.3743 38.7949C50.2219 39.0143 50.1407 39.1274 49.8613 39.5164L49.6199 39.8556L49.2326 39.7222C48.565 39.496 48.4381 39.4474 47.9952 39.2981C47.7883 39.5854 47.6781 39.7403 47.5168 39.9766L48.4971 40.3351Z" fill="#00ACEA"/>
<path d="M58.6365 45.239L58.7378 44.8466C58.8602 44.3751 58.8936 44.2427 58.9659 43.9781C58.483 43.6525 58.2871 43.5258 57.8921 43.2668C57.8509 43.4003 57.8031 43.5552 57.723 43.8187L57.5138 44.5085L56.9051 44.1365C56.381 43.8164 56.2118 43.7124 55.9125 43.5337C55.8068 43.8221 55.7367 44.0087 55.6031 44.3671C56.0382 44.6193 56.1695 44.6973 56.8094 45.0784L57.2189 45.3216L57.0475 45.7739C56.8417 46.3122 56.7905 46.4524 56.6592 46.7916C57.2155 47.123 57.427 47.2541 57.8832 47.5414C57.9544 47.3152 58.0145 47.1399 58.1547 46.7215L58.3851 46.0317L58.9848 46.4298C59.4233 46.7193 59.6058 46.8403 59.8261 46.9884C59.8984 46.7215 59.9474 46.5361 60.0375 46.1968C59.638 45.9164 59.5345 45.8463 58.9648 45.464L58.6365 45.239Z" fill="#00ACEA"/>
<path d="M61.1834 38.6928L61.2846 38.3004C61.4059 37.8289 61.4404 37.6966 61.5072 37.432C61.0242 37.1063 60.8284 36.9796 60.4334 36.7218C60.3922 36.8541 60.3443 37.009 60.2642 37.2725L60.055 37.9623L59.4463 37.5903C58.9222 37.2703 58.7531 37.1662 58.4538 36.9875C58.348 37.2759 58.2779 37.4625 58.1433 37.8221C58.5784 38.0731 58.7108 38.1512 59.3506 38.5323L59.759 38.7754L59.5888 39.2277C59.3829 39.766 59.3306 39.9062 59.2004 40.2455C59.7568 40.5779 59.9671 40.708 60.43 40.9952C60.5012 40.769 60.5613 40.5949 60.7015 40.1753L60.9319 39.4855L61.5317 39.8836L62.3729 40.4422C62.4452 40.1753 62.4942 39.9899 62.5832 39.6506C62.1849 39.3702 62.0803 39.3001 61.5105 38.9179L61.1834 38.6928Z" fill="#00ACEA"/>
<path d="M63.457 33.6033L63.5326 33.3105C63.6239 32.9576 63.6439 32.8581 63.7029 32.6602C63.3412 32.4171 63.1955 32.321 62.9006 32.1299C62.8694 32.2294 62.8338 32.3447 62.7737 32.5415L62.6168 33.0572L62.1617 32.779C61.7711 32.5404 61.6443 32.4623 61.4206 32.3266C61.3416 32.5415 61.2893 32.6817 61.1891 32.9497C61.5141 33.1374 61.6131 33.1963 62.0916 33.4812L62.3965 33.6633L62.2685 34.0025C62.115 34.4051 62.076 34.5069 61.9792 34.7658C62.3909 35.0135 62.5523 35.1119 62.8972 35.3313C62.9506 35.165 62.9963 35.0316 63.1009 34.7183L63.2722 34.2027L63.7173 34.5001L64.3449 34.9174C64.3995 34.7183 64.4362 34.5781 64.503 34.3248C64.2047 34.1145 64.1268 34.0625 63.7018 33.7764L63.457 33.6033Z" fill="#00ACEA"/>
<path d="M56.6522 30.3508L56.7156 30.0557C56.7924 29.6995 56.8135 29.6033 56.8603 29.3987C56.4886 29.1725 56.3384 29.0798 56.0357 28.9022C56.009 29.0029 55.9789 29.1205 55.9244 29.3195L55.7887 29.8408L55.3235 29.5818C54.9229 29.3557 54.7927 29.2878 54.5635 29.1634C54.4934 29.3817 54.4522 29.523 54.3577 29.7967C54.6915 29.9697 54.7916 30.0229 55.2812 30.2886L55.5939 30.4582L55.4827 30.7975C55.3458 31.2057 55.3113 31.3086 55.2245 31.5721C55.6462 31.7983 55.8109 31.8933 56.1648 32.0934C56.2115 31.9249 56.2505 31.7892 56.3428 31.4726L56.4942 30.9501L56.9537 31.2283L57.5991 31.6185C57.6448 31.4172 57.6759 31.2792 57.7327 31.0191C57.4267 30.8224 57.3465 30.7737 56.9092 30.5057L56.6522 30.3508Z" fill="#00ACEA"/>
<path d="M59.6945 64.6733L59.1737 64.4279L59.4297 63.9066C59.7902 63.175 59.8748 63.011 60.0973 62.5361C59.4586 62.2228 59.2316 62.112 58.5706 61.792C58.3314 62.2873 58.2535 62.449 57.8874 63.1987L57.6459 63.694L57.153 63.46C56.423 63.1128 56.2628 63.0393 55.7776 62.8052C55.4304 63.5165 55.3147 63.7528 54.9697 64.446L56.305 65.0736L56.8436 65.3213L55.9145 67.1555C56.5476 67.445 56.7769 67.5479 57.4334 67.834C57.6771 67.3624 57.7561 67.2098 58.1333 66.4872L58.3781 66.019L58.8544 66.2373C59.5343 66.5494 59.6867 66.6195 60.1263 66.8151C60.4757 66.1366 60.5914 65.9105 60.923 65.2501C60.5157 65.0612 60.3522 64.9821 59.6945 64.6733Z" fill="#00ACEA"/>
<path d="M40.569 31.4829L40.7648 31.2692L41.0486 31.3076C41.5749 31.3777 41.6628 31.389 42.069 31.4456L42.3472 31.1403L42.2493 31.1335L40.924 31.0374L40.8694 31.0826L40.6892 31.0939C40.2051 31.121 40.1428 31.1244 39.8056 31.1504L39.7756 31.1753L40.6736 31.1821L39.7177 32.1388L39.563 32.2948L39.8023 32.3276C40.1116 31.9839 40.1728 31.9171 40.569 31.4829Z" fill="#00ACEA"/>
<path d="M36.7297 45.5284L37.2616 45.7726L36.9957 46.3007C36.6618 46.9713 36.5784 47.133 36.3647 47.5627C36.8343 47.7889 37.0413 47.8929 37.5376 48.1383C37.7668 47.6724 37.8458 47.513 38.2052 46.8017L38.4456 46.3211L38.9296 46.5472C39.5595 46.8356 39.7086 46.9057 40.1147 47.0968C40.4486 46.4308 40.571 46.2001 40.8937 45.5668C40.5365 45.4074 40.3696 45.335 39.7753 45.0794L39.2112 44.8363L39.5038 44.289C39.8432 43.6523 39.9367 43.477 40.1448 43.0971C39.6763 42.9037 39.4649 42.8189 38.9653 42.6199C38.7216 43.0609 38.6425 43.2034 38.2687 43.883L38.0272 44.3206L37.571 44.1295C37.0224 43.9034 36.8766 43.8389 36.5494 43.7066C36.2245 44.3116 36.1043 44.5298 35.8028 45.1133C36.0687 45.2253 36.2379 45.3033 36.7297 45.5284Z" fill="#00ACEA"/>
<path d="M36.5774 72.2079L36.1613 71.967L36.3326 71.5147C36.5385 70.9708 36.5919 70.8305 36.7276 70.4879C36.1601 70.1577 35.9487 70.0356 35.4546 69.7336C35.3768 69.9542 35.32 70.1328 35.182 70.5625L34.9595 71.2523L34.3552 70.8667C33.8823 70.5659 33.702 70.4517 33.455 70.2889C33.3738 70.5603 33.3215 70.7412 33.2269 71.0872C33.6319 71.3632 33.7421 71.4367 34.3397 71.8279L34.6924 72.062L34.5678 72.4702C34.4309 72.9158 34.392 73.0413 34.323 73.3025C34.8159 73.6214 35.0129 73.7458 35.4424 74.0161C35.4891 73.8781 35.5437 73.7209 35.6394 73.4439L35.8619 72.7959L36.445 73.142C36.9903 73.4654 37.1583 73.5649 37.4699 73.7447L37.8037 72.9124C37.3552 72.658 37.2217 72.5799 36.5774 72.2079Z" fill="#00ACEA"/>
<path d="M35.1218 36.3713L35.9364 36.5556L35.4568 37.2488C35.1986 37.6208 35.0806 37.7916 34.9538 37.9793L35.4823 38.1331C35.7483 37.7192 35.824 37.6061 36.2246 37.0113L36.4471 36.6721L36.831 36.7851L37.768 37.0509C38.064 36.6087 38.1986 36.4086 38.4145 36.0942C38.2887 36.0625 38.1396 36.0275 37.9048 35.9721L37.0669 35.7719L37.591 35.0776L37.9716 34.5721C37.8492 34.554 37.719 34.5371 37.5387 34.5133C37.2472 34.8695 37.1804 34.9521 36.7654 35.4689L36.564 35.7199L36.2568 35.6713C35.8573 35.6079 35.7605 35.5921 35.5124 35.5661C35.2409 35.9144 35.104 36.0908 34.926 36.326L35.1218 36.3713Z" fill="#00ACEA"/>
<path d="M41.0106 80.9544L41.33 80.4049C41.4279 80.2341 41.4869 80.1335 41.537 80.043C41.0396 79.8089 40.827 79.7037 40.3062 79.4504C40.2562 79.5556 40.2072 79.6664 40.1149 79.8711L39.8745 80.4071L39.3571 80.1391C38.8407 79.8734 38.6772 79.7886 38.3778 79.6302C38.3689 79.6563 38.3589 79.6811 38.3489 79.7083C38.6749 79.8835 38.8151 79.9559 39.3615 80.2398L39.8233 80.4784L39.6208 80.9635L39.5596 81.1105C40.0047 81.3299 40.2005 81.4215 40.6434 81.6273L40.7413 81.4622L40.9906 81.0359L41.4357 81.2326C42.0177 81.4882 42.1534 81.5481 42.5195 81.7019L42.5607 81.6386C42.2847 81.5255 42.1011 81.4384 41.5826 81.2089L41.0106 80.9544Z" fill="#00ACEA"/>
<path d="M25.5395 57.608L25.3737 58.0433C25.1233 58.706 25.071 58.844 24.9108 59.2872C25.1111 59.4207 25.2446 59.5134 25.4115 59.6265C25.5228 59.3223 25.6041 59.1278 25.821 58.5759L26.0659 57.9563L26.6222 58.3023C26.9494 58.5047 27.0918 58.5918 27.2643 58.6936C27.498 58.1281 27.5981 57.902 27.8574 57.2992C27.6182 57.1658 27.488 57.0946 27.0785 56.8718L26.62 56.6219L26.8348 56.1401C27.1219 55.4956 27.1909 55.3395 27.38 54.9245L26.8103 54.6305C26.6523 54.9788 26.5766 55.1507 26.3107 55.7545L26.0603 56.3199L25.5273 56.0101L25.1189 55.7726C24.9208 56.2498 24.834 56.467 24.6159 57.0165C24.7528 57.1081 24.8663 57.1794 25.1445 57.3558L25.5395 57.608Z" fill="#00ACEA"/>
<path d="M29.1192 68.6967L29.285 68.2579C29.5477 67.5625 29.6 67.4222 29.7836 66.9428C29.3129 66.6555 29.1159 66.5334 28.7298 66.2903C28.6185 66.6126 28.5451 66.8048 28.3425 67.3793L28.1055 68.051L27.5157 67.6631C27.1552 67.4256 26.9883 67.3159 26.8103 67.1949C26.6678 67.6337 26.5977 67.8587 26.4297 68.4038C26.7535 68.6447 26.8592 68.7204 27.36 69.0766L27.6938 69.3164L27.568 69.7133C27.3666 70.3511 27.3266 70.4766 27.1986 70.9142C27.6092 71.2094 27.7917 71.3394 28.1278 71.5758C28.2057 71.3372 28.2724 71.1347 28.4315 70.6621L28.6608 69.9756L29.2594 70.368C29.7279 70.6756 29.8948 70.7842 30.1497 70.9504C30.3299 70.4608 30.4156 70.229 30.637 69.6398C30.2276 69.3887 30.1029 69.3119 29.5087 68.9421L29.1192 68.6967Z" fill="#00ACEA"/>
<path d="M32.4316 35.9662C32.6241 35.9809 32.7098 35.9877 32.8611 36.0024C33.0358 35.7762 33.1549 35.619 33.2651 35.4777L32.9045 35.4856L32.86 35.5342L32.7009 35.5727L32.5896 35.6009C32.524 35.6609 32.4583 35.7208 32.3938 35.7819L32.6019 35.7479L32.4316 35.9662Z" fill="#00ACEA"/>
<path d="M31.1635 43.0697L31.731 43.3037L31.4461 43.8556C31.1479 44.4346 31.0655 44.5929 30.8897 44.9502L31.4695 45.2239C31.6731 44.8145 31.7532 44.6585 32.0837 44.015L32.3252 43.5457L32.8014 43.7595C33.2254 43.9494 33.3634 44.0116 33.6071 44.1247C33.9131 43.5435 34.0322 43.3207 34.317 42.7994L33.6115 42.5303L32.9906 42.2984L33.3244 41.7195C33.6271 41.1947 33.7328 41.0104 33.8942 40.7334C33.6972 40.6667 33.5492 40.6203 33.3155 40.5457C33.0707 40.9528 32.9984 41.076 32.6401 41.6912L32.4053 42.0938L31.9724 41.9343C31.6631 41.8212 31.5385 41.7749 31.3827 41.7217C31.0945 42.2295 30.9832 42.4285 30.7295 42.8944L31.1635 43.0697Z" fill="#00ACEA"/>
<path d="M28.1185 41.8645L28.3021 41.9279L28.5725 42.0262L28.9197 42.1552C29.1723 41.696 29.2858 41.4902 29.495 41.1238L29.3993 41.1012L28.6415 40.9237L28.6549 40.9022L28.5603 40.8931L28.3856 40.8773C28.1408 41.2833 28.0339 41.4631 27.857 41.7741L28.1196 41.8623L28.1185 41.8645Z" fill="#00ACEA"/>
<path d="M68.6849 41.538L68.7851 41.1456C68.9075 40.6741 68.9409 40.5429 69.0143 40.2772C68.5302 39.9515 68.3344 39.8248 67.9394 39.567C67.8982 39.6993 67.8515 39.8542 67.7713 40.1177L67.561 40.8075L66.9524 40.4355C66.4294 40.1155 66.2602 40.0126 65.9598 39.8339C65.8541 40.1211 65.7851 40.3077 65.6504 40.6673C66.0855 40.9184 66.2179 40.9975 66.8578 41.3775L67.2661 41.6217L67.0948 42.0741C66.8889 42.6123 66.8377 42.7469 66.7075 43.0918C67.2639 43.4231 67.4742 43.5532 67.9316 43.8415C68.0028 43.6154 68.0629 43.4401 68.2031 43.0206L68.4334 42.3319L69.0343 42.7288L69.8745 43.2874C69.9468 43.0206 69.9958 42.8351 70.0859 42.4959C69.6875 42.2154 69.5829 42.1453 69.0132 41.7642L68.6849 41.538Z" fill="#00ACEA"/>
<path d="M69.8765 36.9642L69.9388 36.7234C70.0133 36.4339 70.0345 36.3536 70.079 36.1907C69.783 35.9917 69.6628 35.9114 69.4202 35.7554C69.3946 35.8368 69.3657 35.9318 69.3167 36.0946L69.1943 36.5164L68.8205 36.2902C68.5 36.0946 68.3965 36.0313 68.2129 35.9216L68.0226 36.4327C68.2897 36.5865 68.3709 36.634 68.7626 36.8681L69.013 37.0174L68.9084 37.2922C68.7826 37.6224 68.7503 37.7049 68.6702 37.9186C69.0041 38.1211 69.1409 38.2013 69.4236 38.3778C69.4681 38.2409 69.5048 38.1312 69.5905 37.8745L69.7318 37.4527L70.099 37.6959L70.6142 38.0351C70.6587 37.8711 70.6888 37.7581 70.7444 37.5489C70.4996 37.377 70.4362 37.334 70.0868 37.0965L69.8765 36.9642Z" fill="#00ACEA"/>
<path d="M54.2209 73.6875L54.6594 73.8616C55.3426 74.1319 55.4817 74.1873 55.9446 74.3615C56.264 73.8255 56.3897 73.6185 56.6724 73.1255L55.5362 72.6618L54.952 72.421L55.8934 70.7146C55.2903 70.4556 55.0577 70.3538 54.4045 70.0643C54.1642 70.5167 54.0885 70.6625 53.7369 71.3343L53.4954 71.7945L53.0214 71.5864C52.2981 71.2675 52.149 71.2019 51.6582 70.9837C51.3522 71.5683 51.2376 71.7866 50.9561 72.3169C51.3567 72.4934 51.5325 72.568 52.1946 72.8496L52.7721 73.095L52.465 73.6491L51.9153 74.6397C52.4783 74.8658 52.7031 74.9597 53.3263 75.2051C53.5566 74.8262 53.6334 74.6951 53.9795 74.1025L54.2209 73.6875Z" fill="#00ACEA"/>
<path d="M28.4338 50.392L28.2692 50.8285C28.0188 51.4912 27.9665 51.628 27.8062 52.0668C28.0065 52.2013 28.1345 52.2929 28.307 52.406C28.4183 52.1007 28.4984 51.9062 28.7165 51.3544L28.9602 50.7358L29.5166 51.0807C29.8448 51.2831 29.9862 51.3702 30.1597 51.472C30.3934 50.9065 30.4936 50.6804 30.7517 50.0777C30.5136 49.9442 30.3823 49.8741 29.9728 49.6513L29.5143 49.4014L29.728 48.9197C30.0151 48.274 30.0841 48.1191 30.2744 47.704C30.0462 47.591 29.9049 47.5141 29.7046 47.41C29.5466 47.7583 29.4709 47.9291 29.205 48.5329L28.9546 49.104L28.4205 48.793L28.0132 48.5556C27.8152 49.0339 27.7272 49.2499 27.5103 49.7995C27.6471 49.8911 27.7606 49.9623 28.0388 50.1387L28.4338 50.392Z" fill="#00ACEA"/>
<path d="M30.4905 62.2384L30.3648 62.6353C30.1634 63.2731 30.1244 63.3986 29.9965 63.8362C30.406 64.1314 30.5885 64.2614 30.9245 64.4978C31.0024 64.2592 31.0703 64.0579 31.2283 63.5841L31.4575 62.8976L32.0562 63.29C32.5247 63.5976 32.6916 63.7062 32.9464 63.8724C33.1267 63.3828 33.2123 63.1509 33.4338 62.5618C33.0243 62.3119 32.8997 62.2339 32.3054 61.8652L31.9171 61.6198L32.0829 61.1799C32.3455 60.4845 32.3989 60.3442 32.5814 59.8648C32.1107 59.5787 31.9138 59.4554 31.5276 59.2123C31.4163 59.5346 31.3429 59.7268 31.1404 60.3024L30.9034 60.973L30.3136 60.5862C29.9531 60.3476 29.7861 60.2379 29.6081 60.1169C29.4657 60.5557 29.3956 60.7807 29.2287 61.3258C29.5514 61.5678 29.6571 61.6424 30.1578 62.0043L30.4905 62.2384Z" fill="#00ACEA"/>
<path d="M37.1008 65.3291L36.9272 65.7814C36.6802 66.4238 36.6223 66.573 36.4676 66.9756C37.0518 67.3148 37.2633 67.4415 37.8141 67.7581C37.9421 67.446 38.0166 67.264 38.2481 66.6963L38.4851 66.115L39.0292 66.4158C39.6746 66.7732 39.8404 66.8682 40.2444 67.0864C40.4825 66.5278 40.5782 66.2948 40.8519 65.6978C40.3746 65.4422 40.2277 65.3585 39.5255 64.9831L39.0682 64.7366L39.2774 64.256C39.5812 63.556 39.6479 63.4022 39.8538 62.9386C39.2139 62.5993 38.9892 62.4704 38.3949 62.147C38.2291 62.5484 38.1557 62.7237 37.882 63.3683L37.6383 63.9472L37.0975 63.6374C36.5088 63.2982 36.3341 63.1998 35.9958 63.003C35.7855 63.5458 35.6998 63.7731 35.4784 64.3657C35.9057 64.6201 36.0348 64.7049 36.6924 65.0928L37.1008 65.3291Z" fill="#00ACEA"/>
<path d="M43.6828 75.9643L43.9498 75.4362C44.1891 74.9624 44.267 74.8086 44.4083 74.5315C43.7874 74.2353 43.5581 74.1244 42.9339 73.818C42.797 74.1097 42.7236 74.2613 42.4888 74.7521L42.2406 75.2609L41.741 75.0065C41.1067 74.6842 40.9398 74.5994 40.5592 74.4015L40.1965 75.2406C40.5982 75.4509 40.7462 75.5267 41.3771 75.849L41.8656 76.0977L41.6286 76.5987C41.4606 76.9549 41.3905 77.1019 41.3081 77.2772C41.8779 77.5576 42.0871 77.6617 42.6601 77.9286C42.757 77.742 42.8326 77.5995 43.0274 77.2342L43.2733 76.774L43.744 76.9877C44.3994 77.2862 44.5474 77.3541 44.968 77.5407C45.1449 77.2263 45.2384 77.0567 45.4076 76.7491C45.0214 76.5761 44.8512 76.4969 44.218 76.2063L43.6828 75.9643Z" fill="#00ACEA"/>
<path d="M65.378 69.0989L65.8353 69.2945C66.3505 69.5207 66.493 69.5761 66.799 69.696C67.1194 69.1011 67.2352 68.8852 67.5378 68.3096C67.2919 68.1965 67.125 68.1241 66.6621 67.9115L66.1291 67.6673L66.3962 67.138C66.73 66.4788 66.8101 66.3182 67.0193 65.8941C66.5742 65.6781 66.3784 65.5797 65.9065 65.3513C65.684 65.815 65.6005 65.9721 65.2478 66.6767L65.0063 67.1595L64.52 66.9333C63.9147 66.6518 63.7678 66.5839 63.375 66.4041C63.0412 67.0679 62.9199 67.2975 62.5961 67.9183C62.9399 68.0642 63.1068 68.1377 63.6788 68.3853L64.2452 68.6318L63.9481 69.1792C63.6142 69.8034 63.5119 69.9821 63.3149 70.3428C63.76 70.5192 63.9637 70.6017 64.4366 70.7861C64.678 70.353 64.7571 70.2105 65.1309 69.5422L65.378 69.0989Z" fill="#00ACEA"/>
<path d="M72.1991 52.4435L72.2402 52.146C72.3092 51.6451 72.3226 51.5478 72.3604 51.2165C72.1 50.9779 71.9476 50.8399 71.7807 50.6907L71.7295 50.9621L71.5603 51.8667L70.8426 51.3013C70.5622 51.0808 70.4109 50.9621 70.2673 50.849C70.215 51.0571 70.1672 51.2436 70.0848 51.558C70.4721 51.8407 70.57 51.9165 71.1086 52.3247L71.4068 52.5509L71.3089 52.9274C71.162 53.5087 71.133 53.6229 71.0262 54.0368C71.379 54.3003 71.5592 54.4382 71.7918 54.6169C71.823 54.4699 71.8575 54.3003 71.9153 54.0221L72.1045 53.1039L72.8144 53.7032C72.958 53.8231 73.0648 53.9135 73.1538 53.9893C73.175 53.8276 73.1961 53.6591 73.2273 53.4092C72.9213 53.1174 72.8512 53.053 72.4127 52.6493L72.1991 52.4435Z" fill="#00ACEA"/>
<path d="M45.1746 47.5002L44.6961 47.274C44.0018 46.9529 43.8482 46.8828 43.3953 46.6792C43.0459 47.3577 42.9291 47.5907 42.593 48.2624C43.0103 48.4591 43.1772 48.5394 43.8504 48.8606L44.3656 49.1071L44.1119 49.625C43.7514 50.3601 43.6668 50.5218 43.4365 51.0069C44.0908 51.3292 44.32 51.4411 44.9943 51.7691C45.2369 51.2659 45.3159 51.1053 45.682 50.351L45.9246 49.8523L46.4209 50.0921C47.1564 50.4483 47.3111 50.524 47.8063 50.7615C48.1568 50.0446 48.2725 49.8094 48.6153 49.1105C48.1457 48.8843 47.9821 48.8086 47.261 48.4682L46.7392 48.2217L46.9995 47.6992C47.3523 46.9925 47.4357 46.8228 47.6672 46.3762C47.0174 46.0754 46.7881 45.9713 46.1216 45.6705C45.8734 46.1477 45.7944 46.3004 45.4216 47.0275L45.1746 47.5002Z" fill="#00ACEA"/>
<path d="M42.0437 58.0437L42.5589 58.3084C43.2689 58.6748 43.4291 58.7607 43.8943 58.9948C44.2225 58.2891 44.3338 58.0517 44.6732 57.3313C44.1858 57.0882 44.0289 57.009 43.3 56.6415L42.8104 56.395L43.0441 55.8929C43.4013 55.1285 43.477 54.9645 43.7118 54.4613C43.0441 54.1288 42.8104 54.0146 42.1539 53.6855C41.9224 54.1775 41.8457 54.3414 41.5007 55.0844L41.2648 55.6091L40.7563 55.349C40.0886 55.0097 39.925 54.9249 39.5155 54.7135C39.2062 55.392 39.1005 55.6294 38.79 56.3272C39.2262 56.5533 39.3787 56.6393 40.0574 57.0057L40.5204 57.2556L40.2978 57.7396C39.964 58.4746 39.8983 58.6284 39.6824 59.1214L41.188 59.9277C41.3916 59.4754 41.4707 59.299 41.7978 58.5764L42.0437 58.0437Z" fill="#00ACEA"/>
<path d="M43.0302 37.9429L43.6055 37.2644L43.8136 37.019C43.5677 36.9647 43.3618 36.9217 42.9823 36.8459C42.7531 37.0834 42.6841 37.1569 42.3414 37.5244L42.1311 37.7506L41.8295 37.6907C41.2353 37.5776 41.1418 37.555 40.7001 37.4837C40.522 37.6782 40.4052 37.8049 40.2883 37.9361L40.8069 38.0491L41.6904 38.2493L41.1151 38.9606C40.9226 39.1981 40.8102 39.3372 40.7112 39.4615C41.0228 39.5498 41.2442 39.6142 41.696 39.7488C41.9486 39.4095 42.0209 39.3089 42.3803 38.8249L42.6118 38.5139L42.979 38.627C43.6266 38.817 43.749 38.8532 44.203 38.9956C44.3978 38.7243 44.5124 38.5671 44.6482 38.385L43.8881 38.1758L43.0302 37.9429Z" fill="#00ACEA"/>
<path d="M54.9114 53.1108L54.4519 52.8621L54.6655 52.3803C54.9904 51.643 55.0583 51.4892 55.272 50.9951C54.6433 50.6558 54.4218 50.5371 53.8042 50.2035C53.605 50.6558 53.526 50.8311 53.2045 51.5492L52.963 52.0863L51.1314 51.1376L50.3625 52.7987C50.8432 53.043 50.999 53.121 51.7189 53.4772L52.2108 53.7238L51.976 54.227C51.6221 54.9846 51.5464 55.1463 51.3083 55.6518C51.9648 55.9809 52.1907 56.094 52.8283 56.4095C53.0565 55.9221 53.1321 55.7592 53.4737 55.0231L53.7152 54.5029L54.2226 54.7585C54.8736 55.0841 55.0405 55.1678 55.4367 55.3736C55.7404 54.6951 55.845 54.4622 56.1499 53.7758L54.9114 53.1108Z" fill="#00ACEA"/>
<path d="M62.2624 57.9608L62.7698 58.2152C63.4208 58.5409 63.5877 58.6246 63.9827 58.8304C64.2876 58.1519 64.3922 57.919 64.6971 57.2325C64.272 57.0007 64.1218 56.9204 63.4564 56.5541L62.9979 56.3064L63.2104 55.8235C63.5365 55.0874 63.6044 54.9324 63.8169 54.4394L62.3503 53.6478C62.15 54.1002 62.0721 54.2754 61.7494 54.9935L61.509 55.5307L59.6763 54.5819L58.9074 56.2442C59.3892 56.4873 59.5439 56.5654 60.265 56.9227L60.7568 57.1692L60.522 57.6724C60.1681 58.4312 60.0925 58.5929 59.8543 59.0973C60.5098 59.4263 60.7368 59.5394 61.3744 59.8549C61.5969 59.3675 61.6782 59.2047 62.0198 58.4697L62.2624 57.9608Z" fill="#00ACEA"/>
<path d="M50.2335 62.5606L50.7098 62.7788C51.3897 63.0909 51.5432 63.1622 51.9828 63.3578C52.3311 62.6793 52.4468 62.4532 52.7795 61.7916C52.38 61.6005 52.212 61.5225 51.5555 61.2126L51.0347 60.9684L51.2918 60.4471C51.6523 59.7154 51.7369 59.5515 51.9594 59.0754L50.4327 58.3313C50.1935 58.8277 50.1145 58.9883 49.7484 59.7392L49.508 60.2333L49.015 60.0004C48.284 59.6532 48.1248 59.5786 47.6386 59.3445C47.2925 60.0558 47.1756 60.2921 46.8307 60.9865L48.166 61.6141L48.6923 61.8617L47.7643 63.6948C48.3975 63.9854 48.6256 64.0872 49.2821 64.3733C49.5269 63.9006 49.6059 63.7491 49.9831 63.0265L50.2335 62.5606Z" fill="#00ACEA"/>
<path d="M54.3208 34.173L55.0074 33.0817C54.55 32.9098 54.3297 32.8307 53.7755 32.6294C53.6231 32.8488 53.5408 32.9619 53.2614 33.3509L53.02 33.6901L52.6339 33.5567C51.9662 33.3305 51.8382 33.2819 51.3953 33.1326C51.1884 33.4198 51.0782 33.5748 50.9169 33.8111L51.9017 34.1685L52.5582 34.4082L52.1821 35.0053C51.9417 35.3897 51.8427 35.5469 51.7147 35.7505C52.2422 35.9574 52.4736 36.0513 53.0823 36.3001C53.2759 35.9755 53.3494 35.8477 53.6442 35.3479L53.889 34.9306L54.3342 35.115C55.0152 35.3988 55.1609 35.4599 55.6138 35.6532C55.8008 35.3208 55.8965 35.1489 56.05 34.8741C55.7162 34.7361 55.5382 34.6638 54.9506 34.4285L54.3208 34.173Z" fill="#00ACEA"/>
<path d="M66.2575 48.5693L66.3588 48.178C66.4801 47.7053 66.5146 47.5742 66.5869 47.3084C66.1039 46.9827 65.9081 46.8561 65.5131 46.5983C65.4708 46.7306 65.4241 46.8866 65.3439 47.1501L65.1336 47.8388L64.526 47.4667C64.0019 47.1467 63.8328 47.0438 63.5335 46.8651C63.4222 47.1524 63.3577 47.339 63.223 47.6986C63.6581 47.9496 63.7905 48.0288 64.4304 48.4098L64.8387 48.653L64.6674 49.1053C64.4626 49.6436 64.4103 49.7838 64.2801 50.1231C64.8365 50.4544 65.0468 50.5856 65.5042 50.8728C65.5754 50.6466 65.6355 50.4713 65.7757 50.0518L66.006 49.3631L66.6058 49.7612C67.0431 50.0507 67.2256 50.1717 67.4459 50.3198C67.5183 50.0529 67.5683 49.8675 67.6574 49.5282C67.259 49.2467 67.1544 49.1777 66.5847 48.7955L66.2575 48.5693Z" fill="#00ACEA"/>
<path d="M46.5287 70.2941L47.0161 70.5203C47.7316 70.8595 47.8841 70.9296 48.3648 71.1501C48.6541 70.5847 48.7665 70.3586 49.0603 69.7932C48.6029 69.5794 48.436 69.5003 47.7305 69.1644L47.2153 68.9179L47.469 68.4C47.8029 67.7283 47.8774 67.5677 48.0888 67.1334C47.3911 66.7942 47.1575 66.6811 46.4553 66.3351C46.245 66.7761 46.1704 66.9367 45.8544 67.6186L45.6129 68.1399L45.1055 67.8843C44.39 67.5258 44.2253 67.4433 43.7702 67.2058C43.502 67.7927 43.4008 68.0166 43.137 68.599C43.6022 68.8376 43.7568 68.9156 44.4657 69.2775L44.9575 69.5251L44.7138 70.0318C44.4301 70.6345 44.3533 70.7985 44.1819 71.1535C44.8385 71.4769 45.0655 71.5866 45.7253 71.9033C45.9056 71.5425 45.9835 71.3842 46.2817 70.7826L46.5287 70.2941Z" fill="#00ACEA"/>
<path d="M57.4077 80.3829L56.9815 80.2234C56.3494 79.9882 56.2148 79.9373 55.7842 79.7711C55.4704 80.3003 55.3391 80.5118 55.0731 80.9472L56.0223 81.2774L56.7044 81.516L56.3038 82.1255C56.0401 82.5281 55.9233 82.7056 55.7908 82.9057C56.148 83.0188 56.3583 83.0742 56.8168 83.202C57.0872 82.8255 57.1584 82.7214 57.539 82.1651L57.7682 81.8258L58.1532 81.9389C58.7096 82.1062 58.8342 82.1424 59.197 82.2419C59.5141 81.7794 59.6421 81.5861 59.898 81.2072L59.1681 80.9811L58.4726 80.7628L58.8632 80.1386C59.1781 79.6343 59.286 79.4601 59.4552 79.1831L58.3669 78.7771C58.1154 79.2125 58.0331 79.3425 57.6469 79.9848L57.4077 80.3829Z" fill="#00ACEA"/>
<path d="M71.4212 70.0239L71.715 69.4585C72.0121 68.8863 72.0944 68.7268 72.2714 68.3831C72.1011 68.2994 71.972 68.2383 71.7784 68.1467C71.5803 68.5436 71.5013 68.6974 71.1786 69.325L70.9427 69.7842L70.472 69.5851C70.0692 69.4144 69.9335 69.359 69.7042 69.2561C69.4016 69.8283 69.2847 70.0476 69.0043 70.561C69.169 70.6278 69.3192 70.6843 69.643 70.8064L70.2595 71.0405L69.9257 71.6195C69.6453 72.1125 69.5429 72.298 69.3838 72.5603C69.5473 72.6101 69.6797 72.6519 69.8711 72.7141C70.1115 72.3172 70.1849 72.1928 70.5388 71.5833L70.778 71.1796L71.212 71.3447C71.478 71.4465 71.5926 71.4906 71.7261 71.5336C72.0143 71.0292 72.1267 70.8302 72.3671 70.3892C72.278 70.353 72.169 70.3111 72.0043 70.2478L71.4212 70.0239Z" fill="#00ACEA"/>
<path d="M61.8508 75.0916L62.2414 74.4662C62.5563 73.963 62.6642 73.7877 62.8334 73.5118L61.7451 73.1058C61.4936 73.5412 61.4113 73.6712 61.0251 74.3124L60.7859 74.706L60.3597 74.5465C59.7277 74.3113 59.593 74.2604 59.1624 74.0942C58.8486 74.6223 58.7173 74.8349 58.4513 75.2691L59.4005 75.6004L60.0826 75.8379L59.682 76.4486C59.4183 76.8511 59.3015 77.0287 59.1691 77.2288C59.5263 77.3363 59.7366 77.3973 60.195 77.5251C60.4654 77.1485 60.5366 77.0434 60.9172 76.4881L61.1464 76.1489L61.5315 76.262C62.0878 76.4293 62.2125 76.4655 62.5752 76.565C62.8924 76.1014 63.0203 75.9092 63.2763 75.5303C63.0982 75.4715 62.9146 75.4172 62.5463 75.3042L61.8508 75.0916Z" fill="#00ACEA"/>
<path d="M67.5793 76.7755L67.8731 76.2101C68.1713 75.6379 68.2537 75.4784 68.4295 75.1347C68.2592 75.051 68.1302 74.9888 67.9365 74.8983C67.7396 75.2952 67.6606 75.449 67.3368 76.0766L67.1009 76.5358L66.6268 76.3356C66.224 76.1648 66.0882 76.1094 65.859 76.0065C65.5563 76.5787 65.4395 76.7981 65.1591 77.3115C65.3249 77.3782 65.474 77.4348 65.7978 77.5569L66.4154 77.791L66.0816 78.37C65.8012 78.8619 65.6988 79.0417 65.5408 79.3108C65.7043 79.3606 65.8357 79.4024 66.027 79.4635C66.2674 79.0677 66.3408 78.9433 66.6947 78.3326L66.9328 77.9289L67.3668 78.094C67.6328 78.1958 67.7474 78.2399 67.882 78.2829C68.1702 77.7785 68.2815 77.5795 68.5219 77.1374L68.1591 76.9971L67.5793 76.7755Z" fill="#00ACEA"/>
<path d="M77.4478 65.0004L77.114 64.7346L77.0906 64.7166C76.9448 65.0942 76.858 65.3091 76.6689 65.775L76.9293 65.9492L77.065 66.0408L77.0806 66.0046L77.4011 66.2386C77.519 65.9345 77.5902 65.7388 77.7438 65.3125L77.6882 65.2548L77.4478 65.0004Z" fill="#00ACEA"/>
<path d="M75.0485 63.2407L74.6791 62.9919L74.8382 62.5701C75.0819 61.9244 75.1297 61.7966 75.29 61.3511C75.1231 61.2301 75.0096 61.1498 74.8694 61.0514C74.7581 61.3409 74.6846 61.5376 74.4766 62.0793L74.2362 62.7047L73.6709 62.3575L73.0823 61.9968C72.8597 62.543 72.7618 62.7714 72.5092 63.3538C72.7239 63.477 72.8508 63.5426 73.228 63.7394L73.6987 63.9836L73.4829 64.4744C73.1969 65.1201 73.1268 65.2784 72.9432 65.6821L73.4294 65.9366C73.5841 65.5973 73.652 65.4277 73.9124 64.8442L74.155 64.2878L74.6835 64.575L75.0452 64.7741C75.2377 64.307 75.3223 64.0956 75.5281 63.563L75.0485 63.2407Z" fill="#00ACEA"/>
<path d="M74.1411 45.6522L74.1822 45.3548C74.2512 44.8549 74.2646 44.7577 74.3024 44.4263C74.042 44.1877 73.8896 44.0487 73.7227 43.9005L73.6715 44.1708L73.5023 45.0754L72.7846 44.51L72.2093 44.0577C72.157 44.2669 72.1092 44.4524 72.0268 44.7679C72.4141 45.0506 72.5131 45.1252 73.0506 45.5346L73.3488 45.7607L73.2564 46.1271C73.1095 46.7084 73.0806 46.8226 72.9738 47.2365C73.3265 47.5011 73.5068 47.6379 73.7394 47.8177C73.7705 47.6707 73.8061 47.4999 73.8629 47.2217L74.0521 46.3046L74.762 46.9029C74.9055 47.0227 75.0124 47.1132 75.1014 47.189C75.1236 47.0284 75.1448 46.8599 75.1748 46.61C74.8688 46.3171 74.7987 46.2526 74.3603 45.8501L74.1411 45.6522Z" fill="#00ACEA"/>
<path d="M50.9454 79.0216L51.7923 77.6929C51.2882 77.5006 51.0567 77.4102 50.4569 77.1738C50.2644 77.5006 50.1888 77.6262 49.8816 78.1271L49.6368 78.5274L49.2051 78.3555C48.5152 78.0796 48.3716 78.0231 47.9087 77.8308C47.7151 78.161 47.6161 78.3307 47.4636 78.5964C47.7796 78.7231 47.9644 78.7943 48.5363 79.0159L49.1795 79.2636L48.8056 79.8516C48.6576 80.0778 48.5697 80.2225 48.4918 80.3413C48.9369 80.4996 49.1595 80.5765 49.7014 80.7597C49.8683 80.5403 49.9406 80.4351 50.2088 80.0518L50.4447 79.7125L50.8342 79.8415C51.5018 80.0586 51.6253 80.1004 52.0716 80.2429C52.2785 79.9613 52.3909 79.8075 52.5523 79.5848C52.303 79.4999 52.1016 79.4287 51.6176 79.2579L50.9454 79.0216Z" fill="#00ACEA"/>
<path d="M76.9453 55.7923L77.012 55.4949C77.15 54.8797 77.17 54.787 77.2613 54.3233L77.0387 54.0802C77.0042 54.2238 76.9619 54.3957 76.8974 54.6524L76.6771 55.5288L75.9972 54.9509L75.6489 54.6569C75.5499 54.9962 75.4798 55.2336 75.3295 55.7289C75.5899 55.9325 75.6823 56.0037 76.0706 56.3023L76.3833 56.5431L76.2654 56.9242C76.0595 57.5858 76.0217 57.7068 75.8692 58.1885C76.0206 58.3016 76.1285 58.3819 76.2331 58.4622C76.2943 58.2563 76.351 58.0596 76.4679 57.6514L76.7183 56.7817L77.377 57.3924C77.4015 57.4139 77.4237 57.4354 77.4449 57.4557C77.5105 57.1843 77.5562 56.9683 77.6541 56.5511C77.4927 56.3746 77.4249 56.3023 77.1478 56.0094L76.9453 55.7923Z" fill="#00ACEA"/>
<path d="M78.2773 49.2524L78.3441 48.9561C78.4821 48.3398 78.5032 48.2471 78.5933 47.7834C78.5032 47.6862 78.432 47.6093 78.3708 47.5403C78.3363 47.6839 78.294 47.8558 78.2306 48.1125L78.0136 48.9866L77.3292 48.4042L76.9843 48.117C76.8841 48.4619 76.814 48.6937 76.6649 49.189C76.9242 49.3926 77.0166 49.4638 77.4049 49.7624L77.7187 50.0032L77.5996 50.3843C77.3938 51.0458 77.3559 51.168 77.2035 51.6486C77.3559 51.7617 77.4628 51.8419 77.5685 51.9222C77.6286 51.7164 77.6853 51.5197 77.8022 51.1114L78.0525 50.2418L78.7113 50.8525L78.7792 50.9158C78.8448 50.6444 78.8904 50.4284 78.9884 50.0111C78.827 49.8347 78.7591 49.7624 78.4832 49.4695L78.2773 49.2524Z" fill="#00ACEA"/>
</g>
<path d="M83.9961 49.9381C82.6777 42.9391 79.3054 36.5096 74.3228 31.4954C73.9037 31.0733 73.4738 30.6628 73.0331 30.264C73.5105 24.7331 69.9997 14.3024 61.4515 10.4994C51.8138 6.21016 38.454 8.12465 32.2125 17.7367C30.2173 20.808 28.9109 24.3215 28.6951 28.8188C28.3468 29.0947 28.0018 29.3774 27.6658 29.6669C23.0941 33.596 19.6048 38.6642 17.5393 44.3753C15.4738 50.0863 14.903 56.2446 15.8827 62.2471L20.8712 52.1002L20.6487 49.3139C20.1178 49.1448 19.6626 48.791 19.3631 48.3146C19.0636 47.8382 18.939 47.2697 19.0111 46.7092C19.0833 46.1486 19.3476 45.6319 19.7576 45.2498C20.1676 44.8677 20.697 44.6447 21.2528 44.6201C21.8086 44.5955 22.3551 44.7708 22.7963 45.1151C23.2374 45.4595 23.545 45.9509 23.6649 46.503C23.7847 47.055 23.7093 47.6323 23.4517 48.1334C23.1941 48.6345 22.771 49.0273 22.2566 49.2426C22.1646 49.2809 22.0702 49.313 21.974 49.3387L22.211 52.3524L16.3401 64.5461C19.0407 76.1404 27.4677 86.0714 39.421 89.9772C42.8346 91.0955 46.399 91.6655 49.9856 91.6667C50.3773 91.6667 50.7645 91.6588 51.1595 91.6452L52.4425 84.0868L52.5805 84.0721C48.3565 84.4704 44.0991 83.8646 40.1452 82.3025C36.1912 80.7405 32.6491 78.265 29.7989 75.0718L29.9703 76.9456L31.6962 79.1247C32.2288 78.9615 32.801 78.9943 33.3121 79.2174C33.8233 79.4405 34.2406 79.8396 34.4909 80.3445C34.7411 80.8494 34.8081 81.4278 34.6802 81.978C34.5523 82.5281 34.2376 83.0148 33.7914 83.3525C33.3453 83.6902 32.7963 83.8573 32.2409 83.8243C31.6856 83.7913 31.1595 83.5604 30.7551 83.1721C30.3507 82.7839 30.094 82.2632 30.03 81.7017C29.9661 81.1401 30.099 80.5736 30.4054 80.1017C30.4605 80.0175 30.5211 79.937 30.5868 79.8609L28.724 77.5031H28.7173L28.1075 72.956C27.2355 71.7514 26.4597 70.4778 25.7874 69.1474C23.2858 64.1958 22.3117 58.5927 22.9922 53.0697C23.6727 47.5468 25.9762 42.3607 29.602 38.1888C31.0486 36.6056 33.7192 34.4005 33.7114 34.344C34.2678 33.9245 34.8164 33.5332 35.3605 33.1804C37.0018 32.118 38.7494 31.2356 40.5738 30.5478C45.2549 28.7917 50.3205 28.3755 55.2184 29.3444C60.1163 30.3133 64.6585 32.6302 68.3495 36.0425C70.8974 38.3977 72.9789 41.2262 74.4819 44.3755L75.3165 41.3709L74.601 38.6728C74.0484 38.6053 73.5369 38.3419 73.1565 37.929C72.7761 37.516 72.5511 36.98 72.5212 36.4152C72.4912 35.8504 72.6582 35.293 72.9927 34.8409C73.3272 34.3888 73.8079 34.0711 74.3502 33.9436C74.8925 33.8161 75.4616 33.887 75.9575 34.1438C76.4535 34.4006 76.8444 34.8269 77.0616 35.3477C77.2788 35.8684 77.3084 36.4504 77.1451 36.9911C76.9818 37.5319 76.6362 37.9968 76.1689 38.3041C76.0853 38.3588 75.9983 38.4079 75.9085 38.4511L76.6874 41.3709H76.693L75.3165 46.29C76.6901 49.8139 77.3376 53.5866 77.2189 57.3749C77.1002 61.1632 76.2179 64.8865 74.6266 68.3144C73.0352 71.7424 70.7687 74.802 67.9672 77.3041C65.1656 79.8061 61.8887 81.6974 58.3391 82.861L58.6039 82.7739L57.1429 90.9C68.8825 88.3636 79.012 79.689 82.9423 67.2657C84.7114 61.6698 85.0737 55.7128 83.9961 49.9381ZM60.5969 23.0391C55.5669 21.3814 50.2277 20.929 44.997 21.7172C41.403 22.2547 37.9147 23.3644 34.6606 25.0056C34.6828 24.9446 34.7029 24.8835 34.7251 24.8236C36.5879 19.8208 40.8542 16.927 42.3309 16.0178C42.4956 15.916 42.6647 15.8188 42.8438 15.7227L41.079 15.4965C40.9041 15.8077 40.6268 16.0462 40.296 16.1703C39.9652 16.2944 39.6019 16.2961 39.27 16.175C38.938 16.054 38.6587 15.818 38.481 15.5084C38.3033 15.1989 38.2386 14.8356 38.2982 14.4824C38.3579 14.1292 38.5381 13.8087 38.8072 13.5771C39.0763 13.3454 39.417 13.2176 39.7697 13.2159C40.1223 13.2143 40.4643 13.3389 40.7355 13.568C41.0067 13.7971 41.1897 14.116 41.2526 14.4686C41.2622 14.5315 41.2674 14.5949 41.2682 14.6586L44.2348 15.0713C48.2152 13.4678 53.9158 13.1489 58.1154 15.0329C60.4344 16.071 62.1815 17.2742 63.4956 18.5384L62.3751 15.7792C62.1469 15.8287 61.9104 15.8221 61.6852 15.76C61.3974 15.6805 61.1393 15.516 60.9435 15.2875C60.7477 15.0589 60.623 14.7764 60.5851 14.4758C60.5473 14.1752 60.598 13.87 60.7309 13.5986C60.8638 13.3273 61.0728 13.1022 61.3316 12.9516C61.5904 12.801 61.8874 12.7318 62.1849 12.7528C62.4824 12.7737 62.7671 12.8838 63.003 13.0692C63.2389 13.2546 63.4155 13.5069 63.5103 13.7942C63.6051 14.0816 63.6139 14.391 63.5357 14.6834C63.517 14.7445 63.4944 14.8042 63.4678 14.8621C63.3868 15.0648 63.2629 15.247 63.105 15.3959L65.049 20.3116C66.2727 21.9763 67.0292 23.9472 67.2379 26.0143C65.1327 24.7893 62.9068 23.7921 60.5969 23.0391Z" fill="#00ACEA"/>
<path d="M57.9248 82.9937C57.128 83.2409 56.3242 83.4509 55.5134 83.6235C55.6748 83.5896 55.7961 83.5625 55.9474 83.5285L54.5375 91.3572C55.1599 91.2736 55.7775 91.1722 56.3903 91.0531L57.8458 83.0242L57.9248 82.9937Z" fill="#00ACEA"/>
<path d="M55.496 83.6265C54.6681 83.8014 53.8346 83.9356 52.9956 84.029L53.1714 84.0098L51.8528 91.6135C52.5041 91.5781 53.1525 91.5234 53.7979 91.4495L55.1944 83.6864L55.496 83.6265Z" fill="#00ACEA"/>
<path d="M34.0733 69.9966H36.6849V67.269H38.4932V74.3378H36.6849V71.4226H34.0733V74.3378H32.265V67.269H34.0733V69.9966Z" fill="#00ACEA"/>
<path d="M43.9086 68.8251H41.7587V70.0034H43.7884V71.5594H41.7587V72.7784H43.9086V74.3344H39.9505V67.269H43.9086V68.8251Z" fill="#00ACEA"/>
<path d="M49.4727 73.1098H46.8889L46.4738 74.3378H44.5454L47.1938 67.269H49.1656L51.814 74.3378H49.8878L49.4727 73.1098ZM48.992 71.7132L48.1808 69.3599L47.3685 71.7132H48.992Z" fill="#00ACEA"/>
<path d="M54.418 67.269V72.7818H56.5857V74.3378H52.6154V67.269H54.418Z" fill="#00ACEA"/>
<path d="M59.7866 68.8251V74.3378H57.9784V68.8251H56.4929V67.269H61.2722V68.8251H59.7866Z" fill="#00ACEA"/>
<path d="M63.8839 69.9966H66.4944V67.269H68.3049V74.3378H66.4944V71.4226H63.8839V74.3378H62.0734V67.269H63.8816L63.8839 69.9966Z" fill="#00ACEA"/>
<path d="M34.0221 61.4681L36.0484 58.7892H38.0992L35.5655 61.8616L38.3362 65.2813H36.1842L34.0221 62.4644V65.2813H32.3629V58.7892H34.0232L34.0221 61.4681Z" fill="#00ACEA"/>
<path d="M38.8268 59.1678C38.826 59.0512 38.8491 58.9356 38.8946 58.8286C38.9382 58.7238 39.0018 58.6289 39.0816 58.5493C39.1607 58.469 39.2539 58.4045 39.3564 58.3593C39.4621 58.3141 39.5756 58.2908 39.6903 58.2908C39.8049 58.2908 39.9184 58.3141 40.0241 58.3593C40.231 58.4506 40.396 58.6183 40.4859 58.8286C40.5304 58.936 40.5533 59.0513 40.5533 59.1678C40.5533 59.2843 40.5304 59.3997 40.4859 59.5071C40.4414 59.6113 40.378 59.706 40.299 59.7864C40.2203 59.8672 40.1269 59.9317 40.0241 59.9764C39.9184 60.0216 39.8049 60.0449 39.6903 60.0449C39.5756 60.0449 39.4621 60.0216 39.3564 59.9764C39.2536 59.9317 39.1603 59.8672 39.0816 59.7864C39.0018 59.7067 38.9382 59.6118 38.8946 59.5071C38.8491 59.4 38.826 59.2845 38.8268 59.1678ZM40.4625 60.8641V65.2833H38.9269V60.8641H40.4625Z" fill="#00ACEA"/>
<path d="M43.0451 58.129V65.2781H41.5139V58.129H43.0451Z" fill="#00ACEA"/>
<path d="M43.9346 63.0348C43.932 62.7182 43.9985 62.405 44.1293 62.1177C44.2579 61.8353 44.4428 61.583 44.6723 61.377C44.9144 61.1605 45.1945 60.9924 45.498 60.8817C45.8335 60.7581 46.1882 60.6968 46.5451 60.7007C46.8987 60.6974 47.25 60.7572 47.5833 60.8772C47.8882 60.9864 48.1702 61.1529 48.4145 61.3679C48.6469 61.5756 48.8332 61.8312 48.9609 62.1177C49.0935 62.4196 49.1599 62.7472 49.1556 63.0777C49.1596 63.4005 49.0951 63.7202 48.9664 64.0153C48.8378 64.3104 48.648 64.5738 48.4101 64.7876C48.1663 65.0041 47.8826 65.1694 47.5755 65.2738C47.2356 65.3915 46.8786 65.45 46.5195 65.4468C46.1677 65.4504 45.8179 65.3919 45.4857 65.2738C45.1835 65.1677 44.9053 65.0008 44.6679 64.783C44.4381 64.5698 44.2547 64.3102 44.1293 64.0208C43.9961 63.71 43.9298 63.3738 43.9346 63.0348ZM45.5536 63.0517C45.5519 63.1924 45.5792 63.3318 45.6337 63.4611C45.6852 63.5809 45.7571 63.6904 45.8463 63.7845C45.9352 63.8774 46.042 63.9505 46.1601 63.9994C46.2822 64.0511 46.4133 64.0778 46.5457 64.0778C46.678 64.0778 46.8091 64.0511 46.9312 63.9994C47.0488 63.9502 47.1552 63.8771 47.2439 63.7845C47.3331 63.6904 47.405 63.5809 47.4564 63.4611C47.5105 63.3348 47.5378 63.1984 47.5366 63.0608C47.5372 62.9257 47.5099 62.792 47.4564 62.6684C47.4053 62.5488 47.3333 62.4396 47.2439 62.3461C47.1556 62.2528 47.0491 62.1792 46.9312 62.1301C46.6841 62.0276 46.4072 62.0276 46.1601 62.1301C46.0417 62.179 45.9348 62.2525 45.8463 62.3461C45.7577 62.4386 45.6858 62.5461 45.6337 62.6639C45.5782 62.7854 45.5489 62.9177 45.5481 63.0517H45.5536Z" fill="#00ACEA"/>
<path d="M56.4292 50.0815C56.0141 50.2828 55.4855 50.4626 54.9737 50.4207C55.0274 50.4876 55.0758 50.5587 55.1183 50.6333C55.2236 50.8318 55.2986 51.0453 55.3409 51.2666C55.4013 51.1241 55.4894 50.9954 55.5999 50.8884C55.7104 50.7813 55.8411 50.698 55.9841 50.6435C56.5849 50.4264 56.852 50.8572 56.852 50.8572C56.852 50.8572 56.9911 49.6812 58.1361 49.628C58.7348 49.5998 59.1877 50.0905 59.4025 50.6831C59.5157 51.0029 59.5627 51.343 59.5407 51.6822C59.5187 52.0213 59.4281 52.3522 59.2745 52.6541C59.2745 52.6541 60.0189 52.1271 59.9188 50.9375C59.7741 49.2074 58.273 48.7776 58.036 49.1813C58.0557 49.1681 58.0779 49.1591 58.1012 49.1549C58.1245 49.1506 58.1484 49.1513 58.1714 49.1568C58.1945 49.1623 58.2161 49.1726 58.2351 49.1869C58.2541 49.2012 58.2701 49.2193 58.2819 49.2402C58.3676 49.4154 58.0827 49.6925 57.7467 49.4584C57.6031 49.3578 57.503 49.1305 57.4707 48.8658C57.3439 49.3611 56.9299 49.8372 56.4292 50.0815Z" fill="#00ACEA"/>
<path d="M69.6677 44.7856H60.503V35.4393C60.503 34.9851 60.3255 34.5495 60.0096 34.2283C59.6937 33.907 59.2651 33.7264 58.8182 33.7261H52.6925C52.2454 33.7261 51.8166 33.9066 51.5004 34.2279C51.1842 34.5491 51.0066 34.9849 51.0066 35.4393V44.7856H41.843C41.6216 44.785 41.4023 44.8287 41.1975 44.9142C40.9928 44.9998 40.8066 45.1255 40.6497 45.2841C40.4927 45.4428 40.368 45.6313 40.2828 45.839C40.1975 46.0466 40.1533 46.2692 40.1527 46.4942V52.7194C40.1527 52.9444 40.1964 53.1671 40.2811 53.3749C40.3658 53.5827 40.49 53.7715 40.6466 53.9305C40.8031 54.0894 40.989 54.2155 41.1935 54.3015C41.398 54.3875 41.6172 54.4317 41.8386 54.4315H51.0022V63.7167C51.0022 63.9416 51.0458 64.1644 51.1305 64.3722C51.2153 64.58 51.3395 64.7687 51.496 64.9277C51.6526 65.0867 51.8384 65.2128 52.043 65.2988C52.2475 65.3848 52.4667 65.4289 52.688 65.4288H58.8138C59.2606 65.4288 59.6891 65.2484 60.0051 64.9273C60.321 64.6063 60.4985 64.1708 60.4985 63.7167V54.4315H69.6632C69.8846 54.4317 70.1037 54.3875 70.3083 54.3015C70.5128 54.2155 70.6987 54.0894 70.8552 53.9305C71.0118 53.7715 71.136 53.5827 71.2207 53.3749C71.3054 53.1671 71.3491 52.9444 71.3491 52.7194V46.4942C71.3479 46.0414 71.1704 45.6075 70.8553 45.2873C70.5402 44.9672 70.1132 44.7867 69.6677 44.7856ZM60.4918 51.3443C60.3806 52.6663 59.3167 53.3798 58.4254 53.5325C59.7051 51.9041 58.4933 49.6877 57.6932 50.5064C57.2949 50.9135 57.6209 51.6451 56.724 52.111C56.9021 51.7944 56.724 51.3263 56.2667 51.4326C55.8093 51.5388 55.5578 52.3971 56.1454 53.2C56.6417 53.8785 57.0779 53.6693 57.1469 53.589C57.2893 53.4352 57.1135 53.2091 56.9655 53.3346C56.9799 53.3296 56.9954 53.3283 57.0105 53.3307C57.0256 53.3332 57.0399 53.3394 57.0521 53.3488C57.0643 53.3581 57.074 53.3704 57.0804 53.3845C57.0869 53.3986 57.0898 53.4141 57.089 53.4296C57.089 53.5551 56.8475 53.6433 56.6929 53.4296C56.4926 53.1571 56.6706 52.8472 57.0022 52.742C56.9332 52.8155 56.8909 52.9682 56.9799 53.0327C57.0222 52.871 57.1179 52.7251 57.3772 52.603C57.4115 52.5899 57.4429 52.5699 57.4694 52.5442C57.496 52.5185 57.5171 52.4876 57.5315 52.4533C57.546 52.4191 57.5535 52.3822 57.5535 52.345C57.5536 52.3077 57.5462 52.2709 57.5319 52.2366C57.5319 52.2366 57.9436 52.6471 57.8757 53.1412C57.8078 53.6354 56.7852 54.5604 55.8449 53.6388C55.5656 53.3616 55.3646 53.0132 55.263 52.6301C55.0827 53.1367 54.6943 53.6083 53.9733 53.8876C52.9495 54.2845 51.5029 53.7078 51.2359 52.7296C51.2359 52.7296 52.086 53.7915 53.3968 53.3154C54.4707 52.9264 54.3983 51.6451 54.1402 51.8046C54.1329 51.8075 54.1262 51.8118 54.1205 51.8173C54.1149 51.8229 54.1103 51.8294 54.1072 51.8367C54.104 51.844 54.1023 51.8519 54.1022 51.8599C54.102 51.8678 54.1034 51.8758 54.1062 51.8832C54.1091 51.8906 54.1133 51.8974 54.1188 51.9031C54.1242 51.9089 54.1307 51.9135 54.1379 51.9167C54.1451 51.9199 54.1528 51.9216 54.1606 51.9218C54.1685 51.922 54.1763 51.9206 54.1836 51.9177C54.1738 51.9438 54.1564 51.9663 54.1337 51.9821C54.1111 51.998 54.0842 52.0065 54.0567 52.0065C54.0292 52.0065 54.0023 51.998 53.9797 51.9821C53.957 51.9663 53.9397 51.9438 53.9299 51.9177C53.8753 51.8046 53.8976 51.5626 53.8186 51.5185C53.8279 51.5102 53.8391 51.5044 53.8512 51.5015C53.8633 51.4987 53.8758 51.4989 53.8878 51.5021C53.8998 51.5053 53.9108 51.5115 53.9199 51.5201C53.929 51.5287 53.9358 51.5394 53.9399 51.5513C53.9497 51.4739 53.9393 51.3953 53.9098 51.3232C53.8804 51.2512 53.8328 51.1883 53.7719 51.1408C54.0267 51.082 54.4395 51.0933 54.5508 51.6271C54.622 51.1985 54.1124 50.2701 53.0196 50.434C52.2407 50.5539 51.7956 51.2132 51.8312 51.765C51.8713 52.3474 52.421 52.8155 52.9818 52.5125C53.4269 52.2716 53.1754 51.5705 52.6713 51.8905C52.7592 51.8713 52.9874 51.834 52.9874 52.0613C52.9874 52.2886 52.4744 52.413 52.3197 52.0014C52.0882 51.3658 52.6123 50.9836 52.5144 50.8875C52.6402 50.8502 52.6502 51.0616 52.6502 51.0616C52.6527 51.0056 52.6663 50.9507 52.6903 50.9002C52.7143 50.8497 52.7481 50.8047 52.7897 50.7679C52.8314 50.7311 52.8799 50.7033 52.9324 50.6861C52.985 50.669 53.0404 50.6628 53.0953 50.6681C53.15 50.6674 53.2037 50.6827 53.2501 50.7122C53.2965 50.7416 53.3335 50.784 53.3568 50.8343C53.3204 50.8209 53.2812 50.8173 53.243 50.8239C53.2049 50.8306 53.1691 50.8472 53.1392 50.8723C53.1093 50.8973 53.0863 50.9298 53.0726 50.9666C53.0588 51.0033 53.0548 51.0431 53.0608 51.082C53.0608 51.4212 53.5849 51.3342 53.7607 51.8939C53.9365 52.4537 53.4269 53.3086 52.4777 53.2102C51.1168 53.0689 50.6728 51.6587 51.2681 50.6647C51.8045 49.768 52.8672 49.5056 53.7696 49.7148C52.9907 48.584 53.7062 47.7189 53.7062 47.7189C53.6962 47.8041 53.6936 47.89 53.6984 47.9756C53.6995 48.0744 53.7231 48.1715 53.7674 48.2595C53.7823 48.042 53.848 47.8314 53.9591 47.6449C54.0702 47.4585 54.2235 47.3016 54.4061 47.1874C54.3731 47.1866 54.3404 47.1805 54.3093 47.1693C54.2784 47.1586 54.2505 47.1403 54.2281 47.1162C54.8101 47.0698 54.888 46.7 54.859 46.5202C54.8521 46.4458 54.8246 46.3748 54.7798 46.3154C54.735 46.256 54.6746 46.2107 54.6056 46.1846C54.5366 46.1585 54.4618 46.1528 54.3897 46.1679C54.3176 46.1831 54.2512 46.2186 54.198 46.2703C54.1526 46.3085 54.1204 46.3605 54.1062 46.4187C54.0919 46.4768 54.0964 46.5381 54.1189 46.5935C54.1415 46.6489 54.1808 46.6955 54.2313 46.7264C54.2818 46.7574 54.3407 46.7712 54.3994 46.7656C54.5686 46.7362 54.6031 46.5395 54.5341 46.4886C54.444 46.4196 54.385 46.527 54.4406 46.561C54.4963 46.5949 54.5096 46.5236 54.5096 46.5236C54.5764 46.5926 54.5096 46.6921 54.3905 46.6887C54.3504 46.6818 54.3144 46.6593 54.2901 46.626C54.2658 46.5927 54.2552 46.5512 54.2604 46.5101C54.2815 46.2409 54.6776 46.2545 54.75 46.5214C54.8223 46.7882 54.543 47.0461 54.2492 47.0099C53.6784 46.9477 53.4981 46.1459 54.0534 45.8067C54.6932 45.4166 55.3386 46.0702 55.2852 46.4852C55.7225 46.4648 55.55 46.0057 55.55 46.0057C55.8449 46.0984 55.9061 46.4275 55.9028 46.5711C55.9829 46.4343 55.9384 46.0803 55.609 45.844C55.2796 45.6077 54.9046 45.6122 54.849 45.1248C54.8045 44.7335 55.1483 44.565 55.086 44.4712C55.135 44.5074 55.1806 44.5639 55.1227 44.6973C55.104 44.7332 55.0988 44.7748 55.108 44.8144C55.1172 44.8539 55.1402 44.8887 55.1728 44.9122C55.0771 44.6668 55.323 44.426 55.4121 44.3468C55.5968 44.1851 55.54 44.0336 55.5144 43.9781C55.6413 44.0562 56.0608 44.3717 55.668 44.8511C55.6192 44.9022 55.5882 44.9681 55.5798 45.0388C55.5713 45.1094 55.5859 45.181 55.6213 45.2424C55.6331 45.1518 55.6684 45.0659 55.7236 44.9936C55.7787 44.9213 55.8516 44.8651 55.9351 44.8308C55.8899 44.9055 55.8722 44.994 55.8851 45.0807C55.8979 45.1674 55.9404 45.2467 56.0052 45.3046C56.1954 45.5115 56.2277 45.5997 56.2489 45.9299C56.2847 45.8551 56.3046 45.7734 56.3073 45.6902C56.31 45.607 56.2954 45.5242 56.2644 45.4471C56.2644 45.4471 56.9432 46.0894 56.6317 46.7362C56.3835 47.2496 55.8939 47.1332 55.9495 46.9534C54.6821 47.1105 53.8965 48.4811 54.6276 49.3541C55.224 50.0676 56.1687 49.6492 56.4714 49.3711C55.6925 49.535 54.9391 48.5795 55.4254 47.9847C55.9373 47.4634 56.4113 47.953 56.5782 47.7178C56.7095 47.5312 56.5538 47.3344 56.3724 47.2881C56.4811 47.2358 56.6059 47.2296 56.7192 47.2707C56.8325 47.3118 56.925 47.397 56.9766 47.5075C57.0734 47.7178 56.9621 48.0061 56.8653 48.1486C56.9423 48.1116 57.0091 48.056 57.06 47.9866C57.1108 47.9172 57.1441 47.8361 57.1569 47.7506C57.3227 48.5557 56.3479 49.0703 55.9874 48.7039C55.9442 48.6667 55.9161 48.6146 55.9084 48.5577C55.9007 48.5007 55.9141 48.4429 55.9458 48.3953C55.9776 48.3478 56.0255 48.3138 56.0805 48.3C56.1354 48.2862 56.1934 48.2935 56.2433 48.3205C56.2758 48.3393 56.2999 48.3702 56.3107 48.4066C56.3215 48.443 56.3181 48.4822 56.3012 48.5161C56.325 48.4885 56.3423 48.4557 56.3518 48.4202C56.3612 48.3848 56.3626 48.3476 56.3557 48.3115C56.2967 48.0627 55.9328 48.074 55.816 48.273C55.5523 48.7254 56.1988 49.2478 56.8943 48.8758C57.0282 48.8037 57.1465 48.705 57.2421 48.5856C57.3377 48.4661 57.4086 48.3282 57.4506 48.1803C57.475 48.2411 57.4929 48.3044 57.5041 48.3691C57.5312 48.2062 57.5966 48.0523 57.6948 47.9206C57.7931 47.7888 57.9212 47.6832 58.0682 47.6126C57.9827 47.6874 57.925 47.7897 57.9048 47.9025C57.8845 48.0152 57.9029 48.1317 57.957 48.2323C57.9314 48.0276 57.957 47.7494 58.3553 47.5312C58.6446 47.3729 58.5245 47.1625 58.5245 47.1625C58.5245 47.1625 58.8583 47.4057 58.7092 47.9134C58.6202 48.221 58.362 48.2267 58.2919 48.1057C58.204 47.9541 58.392 47.8512 58.4299 47.9383C58.4911 47.8343 58.2385 47.8365 58.1995 48.0276C58.1495 48.2753 58.5968 48.4607 58.7481 47.9767C58.7619 48.0318 58.7611 48.0895 58.7459 48.1441C58.7306 48.1987 58.7015 48.2482 58.6613 48.2877C58.6124 48.3436 58.583 48.4144 58.5778 48.4891C58.5725 48.5638 58.5917 48.6381 58.6324 48.7005C58.5578 48.3805 58.8394 48.2063 59.0775 48.2007C58.9106 48.938 60.661 49.293 60.4918 51.3443Z" fill="#00ACEA"/>
</svg>
